<?xml version="1.0" encoding="utf-8" standalone="no"?>
<!DOCTYPE svg PUBLIC "-//W3C//DTD SVG 1.1//EN"
  "http://www.w3.org/Graphics/SVG/1.1/DTD/svg11.dtd">
<!-- Created with matplotlib (http://matplotlib.org/) -->
<svg height="283pt" version="1.1" viewBox="0 0 750 283" width="750pt" xmlns="http://www.w3.org/2000/svg" xmlns:xlink="http://www.w3.org/1999/xlink">
 <defs>
  <style type="text/css">
*{stroke-linecap:butt;stroke-linejoin:round;}
  </style>
 </defs>
 <g id="figure_1">
  <g id="patch_1">
   <path d="M 0 283.68 
L 750.96 283.68 
L 750.96 0 
L 0 0 
z
" style="fill:#ffffff;"/>
  </g>
  <g id="axes_1">
   <g id="patch_2">
    <path d="M 49.86583 250.61552 
L 379.177435 250.61552 
L 379.177435 20.04672 
L 49.86583 20.04672 
z
" style="fill:#ffffff;"/>
   </g>
   <g id="PolyCollection_1">
    <defs>
     <path d="M 64.834539 -195.130449 
L 64.834539 -43.54488 
L 72.509103 -43.54488 
L 80.183666 -43.54488 
L 87.858229 -43.54488 
L 95.532792 -43.54488 
L 103.207355 -43.54488 
L 110.881919 -43.54488 
L 118.556482 -43.54488 
L 126.231045 -43.54488 
L 133.905608 -43.54488 
L 141.580171 -43.54488 
L 149.254735 -43.54488 
L 156.929298 -43.54488 
L 164.603861 -43.54488 
L 172.278424 -43.54488 
L 179.952987 -43.54488 
L 187.627551 -43.54488 
L 195.302114 -43.54488 
L 202.976677 -43.54488 
L 210.65124 -43.54488 
L 218.325804 -43.54488 
L 226.000367 -43.54488 
L 233.67493 -43.54488 
L 241.349493 -43.54488 
L 249.024057 -43.54488 
L 256.701734 -43.54488 
L 264.380805 -43.54488 
L 272.059875 -43.54488 
L 279.738946 -43.54488 
L 287.418017 -43.54488 
L 295.097088 -43.54488 
L 302.776159 -43.54488 
L 310.45523 -43.54488 
L 318.134301 -43.54488 
L 325.813371 -43.54488 
L 333.492442 -43.54488 
L 341.171513 -43.54488 
L 348.850584 -43.54488 
L 356.529655 -43.54488 
L 364.208726 -43.54488 
L 364.208726 -61.988859 
L 364.208726 -61.988859 
L 356.529655 -62.247009 
L 348.850584 -62.590379 
L 341.171513 -62.97561 
L 333.492442 -63.389721 
L 325.813371 -63.842404 
L 318.134301 -64.337305 
L 310.45523 -64.886674 
L 302.776159 -65.501876 
L 295.097088 -66.197344 
L 287.418017 -66.970582 
L 279.738946 -67.873506 
L 272.059875 -68.99788 
L 264.380805 -70.426165 
L 256.701734 -72.485843 
L 249.024057 -75.60674 
L 241.349493 -79.730323 
L 233.67493 -84.062821 
L 226.000367 -88.879037 
L 218.325804 -94.036433 
L 210.65124 -99.629873 
L 202.976677 -105.602383 
L 195.302114 -111.934808 
L 187.627551 -118.666521 
L 179.952987 -125.627673 
L 172.278424 -132.801503 
L 164.603861 -140.119161 
L 156.929298 -147.497617 
L 149.254735 -154.847692 
L 141.580171 -162.071292 
L 133.905608 -169.061498 
L 126.231045 -175.711624 
L 118.556482 -181.885326 
L 110.881919 -187.431167 
L 103.207355 -192.14611 
L 95.532792 -195.776507 
L 87.858229 -198.182633 
L 80.183666 -199.560845 
L 72.509103 -199.342422 
L 64.834539 -195.130449 
z
" id="ma3175f5c9f" style="stroke:#ff0000;stroke-opacity:0.3;"/>
    </defs>
    <g clip-path="url(#pe6a8503104)">
     <use style="fill:#ff0000;fill-opacity:0.3;stroke:#ff0000;stroke-opacity:0.3;" x="0" xlink:href="#ma3175f5c9f" y="283.68"/>
    </g>
   </g>
   <g id="PolyCollection_2">
    <defs>
     <path d="M 64.834539 -195.070717 
L 64.834539 -195.130449 
L 72.509103 -199.342422 
L 80.183666 -199.560845 
L 87.858229 -198.182633 
L 95.532792 -195.776507 
L 103.207355 -192.14611 
L 110.881919 -187.431167 
L 118.556482 -181.885326 
L 126.231045 -175.711624 
L 133.905608 -169.061498 
L 141.580171 -162.071292 
L 149.254735 -154.847692 
L 156.929298 -147.497617 
L 164.603861 -140.119161 
L 172.278424 -132.801503 
L 179.952987 -125.627673 
L 187.627551 -118.666521 
L 195.302114 -111.934808 
L 202.976677 -105.602383 
L 210.65124 -99.629873 
L 218.325804 -94.036433 
L 226.000367 -88.879037 
L 233.67493 -84.062821 
L 241.349493 -79.730323 
L 249.024057 -75.60674 
L 256.701734 -72.485843 
L 264.380805 -70.426165 
L 272.059875 -68.99788 
L 279.738946 -67.873506 
L 287.418017 -66.970582 
L 295.097088 -66.197344 
L 302.776159 -65.501876 
L 310.45523 -64.886674 
L 318.134301 -64.337305 
L 325.813371 -63.842404 
L 333.492442 -63.389721 
L 341.171513 -62.97561 
L 348.850584 -62.590379 
L 356.529655 -62.247009 
L 364.208726 -61.988859 
L 364.208726 -61.985456 
L 364.208726 -61.985456 
L 356.529655 -62.236848 
L 348.850584 -62.582647 
L 341.171513 -62.96861 
L 333.492442 -63.383495 
L 325.813371 -63.836966 
L 318.134301 -64.332649 
L 310.45523 -64.882772 
L 302.776159 -65.498663 
L 295.097088 -66.194712 
L 287.418017 -66.968376 
L 279.738946 -67.871497 
L 272.059875 -68.995769 
L 264.380805 -70.423566 
L 256.701734 -72.482278 
L 249.024057 -75.602984 
L 241.349493 -79.727642 
L 233.67493 -84.061432 
L 226.000367 -88.879057 
L 218.325804 -94.0376 
L 210.65124 -99.631346 
L 202.976677 -105.602476 
L 195.302114 -111.930726 
L 187.627551 -118.66007 
L 179.952987 -125.620033 
L 172.278424 -132.79201 
L 164.603861 -140.106966 
L 156.929298 -147.48166 
L 149.254735 -154.826789 
L 141.580171 -162.04421 
L 133.905608 -169.027091 
L 126.231045 -175.668989 
L 118.556482 -181.834063 
L 110.881919 -187.371605 
L 103.207355 -192.079561 
L 95.532792 -195.705495 
L 87.858229 -198.110711 
L 80.183666 -199.491203 
L 72.509103 -199.279426 
L 64.834539 -195.070717 
z
" id="m2cebd44a0e" style="stroke:#0000ff;stroke-opacity:0.3;"/>
    </defs>
    <g clip-path="url(#pe6a8503104)">
     <use style="fill:#0000ff;fill-opacity:0.3;stroke:#0000ff;stroke-opacity:0.3;" x="0" xlink:href="#m2cebd44a0e" y="283.68"/>
    </g>
   </g>
   <g id="matplotlib.axis_1">
    <g id="xtick_1">
     <g id="line2d_1">
      <defs>
       <path d="M 0 0 
L 0 3.5 
" id="mcefdca2fd3" style="stroke:#000000;stroke-width:0.8;"/>
      </defs>
      <g>
       <use style="stroke:#000000;stroke-width:0.8;" x="64.834539" xlink:href="#mcefdca2fd3" y="250.61552"/>
      </g>
     </g>
     <g id="text_1">
      <text style="font-family:DejaVu Sans;font-size:10px;font-style:normal;font-weight:normal;text-anchor:middle;" transform="rotate(-0, 64.834539, 265.213957)" x="64.834539" y="265.213957">0.000</text>
     </g>
    </g>
    <g id="xtick_2">
     <g id="line2d_2">
      <g>
       <use style="stroke:#000000;stroke-width:0.8;" x="129.525611" xlink:href="#mcefdca2fd3" y="250.61552"/>
      </g>
     </g>
     <g id="text_2">
      <text style="font-family:DejaVu Sans;font-size:10px;font-style:normal;font-weight:normal;text-anchor:middle;" transform="rotate(-0, 129.525611, 265.213957)" x="129.525611" y="265.213957">0.005</text>
     </g>
    </g>
    <g id="xtick_3">
     <g id="line2d_3">
      <g>
       <use style="stroke:#000000;stroke-width:0.8;" x="194.216683" xlink:href="#mcefdca2fd3" y="250.61552"/>
      </g>
     </g>
     <g id="text_3">
      <text style="font-family:DejaVu Sans;font-size:10px;font-style:normal;font-weight:normal;text-anchor:middle;" transform="rotate(-0, 194.216683, 265.213957)" x="194.216683" y="265.213957">0.010</text>
     </g>
    </g>
    <g id="xtick_4">
     <g id="line2d_4">
      <g>
       <use style="stroke:#000000;stroke-width:0.8;" x="258.907754" xlink:href="#mcefdca2fd3" y="250.61552"/>
      </g>
     </g>
     <g id="text_4">
      <text style="font-family:DejaVu Sans;font-size:10px;font-style:normal;font-weight:normal;text-anchor:middle;" transform="rotate(-0, 258.907754, 265.213957)" x="258.907754" y="265.213957">0.015</text>
     </g>
    </g>
    <g id="xtick_5">
     <g id="line2d_5">
      <g>
       <use style="stroke:#000000;stroke-width:0.8;" x="323.598826" xlink:href="#mcefdca2fd3" y="250.61552"/>
      </g>
     </g>
     <g id="text_5">
      <text style="font-family:DejaVu Sans;font-size:10px;font-style:normal;font-weight:normal;text-anchor:middle;" transform="rotate(-0, 323.598826, 265.213957)" x="323.598826" y="265.213957">0.020</text>
     </g>
    </g>
    <g id="text_6">
     <text style="font-family:DejaVu Sans;font-size:10px;font-style:normal;font-weight:normal;text-anchor:middle;" transform="rotate(-0, 214.521633, 278.892083)" x="214.521633" y="278.892083">Arc length from nose (m)</text>
    </g>
   </g>
   <g id="matplotlib.axis_2">
    <g id="ytick_1">
     <g id="line2d_6">
      <defs>
       <path d="M 0 0 
L -3.5 0 
" id="md26ad58d1a" style="stroke:#000000;stroke-width:0.8;"/>
      </defs>
      <g>
       <use style="stroke:#000000;stroke-width:0.8;" x="49.86583" xlink:href="#md26ad58d1a" y="240.13512"/>
      </g>
     </g>
     <g id="text_7">
      <text style="font-family:DejaVu Sans;font-size:10px;font-style:normal;font-weight:normal;text-anchor:end;" transform="rotate(-0, 42.86583, 243.934339)" x="42.86583" y="243.934339">0.0</text>
     </g>
    </g>
    <g id="ytick_2">
     <g id="line2d_7">
      <g>
       <use style="stroke:#000000;stroke-width:0.8;" x="49.86583" xlink:href="#md26ad58d1a" y="212.445165"/>
      </g>
     </g>
     <g id="text_8">
      <text style="font-family:DejaVu Sans;font-size:10px;font-style:normal;font-weight:normal;text-anchor:end;" transform="rotate(-0, 42.86583, 216.244384)" x="42.86583" y="216.244384">0.5</text>
     </g>
    </g>
    <g id="ytick_3">
     <g id="line2d_8">
      <g>
       <use style="stroke:#000000;stroke-width:0.8;" x="49.86583" xlink:href="#md26ad58d1a" y="184.75521"/>
      </g>
     </g>
     <g id="text_9">
      <text style="font-family:DejaVu Sans;font-size:10px;font-style:normal;font-weight:normal;text-anchor:end;" transform="rotate(-0, 42.86583, 188.554429)" x="42.86583" y="188.554429">1.0</text>
     </g>
    </g>
    <g id="ytick_4">
     <g id="line2d_9">
      <g>
       <use style="stroke:#000000;stroke-width:0.8;" x="49.86583" xlink:href="#md26ad58d1a" y="157.065255"/>
      </g>
     </g>
     <g id="text_10">
      <text style="font-family:DejaVu Sans;font-size:10px;font-style:normal;font-weight:normal;text-anchor:end;" transform="rotate(-0, 42.86583, 160.864474)" x="42.86583" y="160.864474">1.5</text>
     </g>
    </g>
    <g id="ytick_5">
     <g id="line2d_10">
      <g>
       <use style="stroke:#000000;stroke-width:0.8;" x="49.86583" xlink:href="#md26ad58d1a" y="129.3753"/>
      </g>
     </g>
     <g id="text_11">
      <text style="font-family:DejaVu Sans;font-size:10px;font-style:normal;font-weight:normal;text-anchor:end;" transform="rotate(-0, 42.86583, 133.174519)" x="42.86583" y="133.174519">2.0</text>
     </g>
    </g>
    <g id="ytick_6">
     <g id="line2d_11">
      <g>
       <use style="stroke:#000000;stroke-width:0.8;" x="49.86583" xlink:href="#md26ad58d1a" y="101.685345"/>
      </g>
     </g>
     <g id="text_12">
      <text style="font-family:DejaVu Sans;font-size:10px;font-style:normal;font-weight:normal;text-anchor:end;" transform="rotate(-0, 42.86583, 105.484564)" x="42.86583" y="105.484564">2.5</text>
     </g>
    </g>
    <g id="ytick_7">
     <g id="line2d_12">
      <g>
       <use style="stroke:#000000;stroke-width:0.8;" x="49.86583" xlink:href="#md26ad58d1a" y="73.99539"/>
      </g>
     </g>
     <g id="text_13">
      <text style="font-family:DejaVu Sans;font-size:10px;font-style:normal;font-weight:normal;text-anchor:end;" transform="rotate(-0, 42.86583, 77.794609)" x="42.86583" y="77.794609">3.0</text>
     </g>
    </g>
    <g id="ytick_8">
     <g id="line2d_13">
      <g>
       <use style="stroke:#000000;stroke-width:0.8;" x="49.86583" xlink:href="#md26ad58d1a" y="46.305436"/>
      </g>
     </g>
     <g id="text_14">
      <text style="font-family:DejaVu Sans;font-size:10px;font-style:normal;font-weight:normal;text-anchor:end;" transform="rotate(-0, 42.86583, 50.104654)" x="42.86583" y="50.104654">3.5</text>
     </g>
    </g>
    <g id="text_15">
     <text style="font-family:DejaVu Sans;font-size:10px;font-style:normal;font-weight:normal;text-anchor:middle;" transform="rotate(-90, 20.883018, 135.33112)" x="20.883018" y="135.33112">q (MW/m2)</text>
    </g>
   </g>
   <g id="line2d_14">
    <path clip-path="url(#pe6a8503104)" d="M 64.834539 88.609283 
L 72.509103 84.400574 
L 80.183666 84.188797 
L 87.858229 85.569289 
L 95.532792 87.974505 
L 103.207355 91.600439 
L 110.881919 96.308395 
L 118.556482 101.845937 
L 126.231045 108.011011 
L 133.905608 114.652909 
L 141.580171 121.63579 
L 149.254735 128.853211 
L 156.929298 136.19834 
L 164.603861 143.573034 
L 172.278424 150.88799 
L 179.952987 158.059967 
L 187.627551 165.01993 
L 195.302114 171.749274 
L 202.976677 178.077524 
L 210.65124 184.048654 
L 218.325804 189.6424 
L 226.000367 194.800943 
L 233.67493 199.618568 
L 241.349493 203.952358 
L 249.024057 208.077016 
L 256.701734 211.197722 
L 264.380805 213.256434 
L 272.059875 214.684231 
L 279.738946 215.808503 
L 287.418017 216.711624 
L 295.097088 217.485288 
L 302.776159 218.181337 
L 310.45523 218.797228 
L 318.134301 219.347351 
L 325.813371 219.843034 
L 333.492442 220.296505 
L 341.171513 220.71139 
L 348.850584 221.097353 
L 356.529655 221.443152 
L 364.208726 221.694544 
" style="fill:none;stroke:#000000;stroke-linecap:square;stroke-width:2;"/>
   </g>
   <g id="patch_3">
    <path d="M 49.86583 250.61552 
L 49.86583 20.04672 
" style="fill:none;stroke:#000000;stroke-linecap:square;stroke-linejoin:miter;stroke-width:0.8;"/>
   </g>
   <g id="patch_4">
    <path d="M 379.177435 250.61552 
L 379.177435 20.04672 
" style="fill:none;stroke:#000000;stroke-linecap:square;stroke-linejoin:miter;stroke-width:0.8;"/>
   </g>
   <g id="patch_5">
    <path d="M 49.86583 250.61552 
L 379.177435 250.61552 
" style="fill:none;stroke:#000000;stroke-linecap:square;stroke-linejoin:miter;stroke-width:0.8;"/>
   </g>
   <g id="patch_6">
    <path d="M 49.86583 20.04672 
L 379.177435 20.04672 
" style="fill:none;stroke:#000000;stroke-linecap:square;stroke-linejoin:miter;stroke-width:0.8;"/>
   </g>
   <g id="text_16">
    <text style="font-family:DejaVu Sans;font-size:12px;font-style:normal;font-weight:normal;text-anchor:middle;" transform="rotate(-0, 214.521633, 14.04672)" x="214.521633" y="14.04672">Noncatalytic</text>
   </g>
   <g id="legend_1">
    <g id="patch_7">
     <path d="M 304.525873 72.91547 
L 372.177435 72.91547 
Q 374.177435 72.91547 374.177435 70.91547 
L 374.177435 27.04672 
Q 374.177435 25.04672 372.177435 25.04672 
L 304.525873 25.04672 
Q 302.525873 25.04672 302.525873 27.04672 
L 302.525873 70.91547 
Q 302.525873 72.91547 304.525873 72.91547 
z
" style="fill:#ffffff;opacity:0.8;stroke:#cccccc;stroke-linejoin:miter;"/>
    </g>
    <g id="line2d_15">
     <path d="M 306.525873 33.145158 
L 326.525873 33.145158 
" style="fill:none;stroke:#000000;stroke-linecap:square;stroke-width:2;"/>
    </g>
    <g id="line2d_16"/>
    <g id="text_17">
     <text style="font-family:DejaVu Sans;font-size:10px;font-style:normal;font-weight:normal;text-anchor:start;" transform="rotate(-0, 334.525873, 36.645158)" x="334.525873" y="36.645158">q_total</text>
    </g>
    <g id="patch_8">
     <path d="M 306.525873 51.601408 
L 326.525873 51.601408 
L 326.525873 44.601408 
L 306.525873 44.601408 
z
" style="fill:#ff0000;opacity:0.3;stroke:#ff0000;stroke-linejoin:miter;"/>
    </g>
    <g id="text_18">
     <text style="font-family:DejaVu Sans;font-size:10px;font-style:normal;font-weight:normal;text-anchor:start;" transform="rotate(-0, 334.525873, 51.601408)" x="334.525873" y="51.601408">q_cond</text>
    </g>
    <g id="patch_9">
     <path d="M 306.525873 66.557658 
L 326.525873 66.557658 
L 326.525873 59.557658 
L 306.525873 59.557658 
z
" style="fill:#0000ff;opacity:0.3;stroke:#0000ff;stroke-linejoin:miter;"/>
    </g>
    <g id="text_19">
     <text style="font-family:DejaVu Sans;font-size:10px;font-style:normal;font-weight:normal;text-anchor:start;" transform="rotate(-0, 334.525873, 66.557658)" x="334.525873" y="66.557658">q_diff</text>
    </g>
   </g>
  </g>
  <g id="axes_2">
   <g id="patch_10">
    <path d="M 407.755635 250.61552 
L 737.06724 250.61552 
L 737.06724 20.04672 
L 407.755635 20.04672 
z
" style="fill:#ffffff;"/>
   </g>
   <g id="PolyCollection_3">
    <defs>
     <path d="M 422.724344 -178.793393 
L 422.724344 -43.54488 
L 430.398908 -43.54488 
L 438.073471 -43.54488 
L 445.748034 -43.54488 
L 453.422597 -43.54488 
L 461.09716 -43.54488 
L 468.771724 -43.54488 
L 476.446287 -43.54488 
L 484.12085 -43.54488 
L 491.795413 -43.54488 
L 499.469976 -43.54488 
L 507.14454 -43.54488 
L 514.819103 -43.54488 
L 522.493666 -43.54488 
L 530.168229 -43.54488 
L 537.842792 -43.54488 
L 545.517356 -43.54488 
L 553.191919 -43.54488 
L 560.866482 -43.54488 
L 568.541045 -43.54488 
L 576.215609 -43.54488 
L 583.890172 -43.54488 
L 591.564735 -43.54488 
L 599.239298 -43.54488 
L 606.913862 -43.54488 
L 614.591539 -43.54488 
L 622.27061 -43.54488 
L 629.94968 -43.54488 
L 637.628751 -43.54488 
L 645.307822 -43.54488 
L 652.986893 -43.54488 
L 660.665964 -43.54488 
L 668.345035 -43.54488 
L 676.024106 -43.54488 
L 683.703176 -43.54488 
L 691.382247 -43.54488 
L 699.061318 -43.54488 
L 706.740389 -43.54488 
L 714.41946 -43.54488 
L 722.098531 -43.54488 
L 722.098531 -59.285839 
L 722.098531 -59.285839 
L 714.41946 -59.676194 
L 706.740389 -60.186319 
L 699.061318 -60.796602 
L 691.382247 -61.459977 
L 683.703176 -62.153019 
L 676.024106 -62.863423 
L 668.345035 -63.597688 
L 660.665964 -64.338103 
L 652.986893 -65.077885 
L 645.307822 -65.849737 
L 637.628751 -66.732137 
L 629.94968 -67.815408 
L 622.27061 -69.131242 
L 614.591539 -70.930184 
L 606.913862 -73.528232 
L 599.239298 -76.933408 
L 591.564735 -80.142083 
L 583.890172 -83.671945 
L 576.215609 -87.459744 
L 568.541045 -91.645737 
L 560.866482 -96.271794 
L 553.191919 -101.406934 
L 545.517356 -107.140874 
L 537.842792 -113.323776 
L 530.168229 -119.900076 
L 522.493666 -126.752608 
L 514.819103 -133.735967 
L 507.14454 -140.73476 
L 499.469976 -147.631911 
L 491.795413 -154.319094 
L 484.12085 -160.669932 
L 476.446287 -166.512761 
L 468.771724 -171.658602 
L 461.09716 -175.932191 
L 453.422597 -179.258385 
L 445.748034 -181.640406 
L 438.073471 -182.942272 
L 430.398908 -182.538245 
L 422.724344 -178.793393 
z
" id="ma8a92d4826" style="stroke:#ff0000;stroke-opacity:0.3;"/>
    </defs>
    <g clip-path="url(#pb9d225d0a9)">
     <use style="fill:#ff0000;fill-opacity:0.3;stroke:#ff0000;stroke-opacity:0.3;" x="0" xlink:href="#ma8a92d4826" y="283.68"/>
    </g>
   </g>
   <g id="PolyCollection_4">
    <defs>
     <path d="M 422.724344 -247.116132 
L 422.724344 -178.793393 
L 430.398908 -182.538245 
L 438.073471 -182.942272 
L 445.748034 -181.640406 
L 453.422597 -179.258385 
L 461.09716 -175.932191 
L 468.771724 -171.658602 
L 476.446287 -166.512761 
L 484.12085 -160.669932 
L 491.795413 -154.319094 
L 499.469976 -147.631911 
L 507.14454 -140.73476 
L 514.819103 -133.735967 
L 522.493666 -126.752608 
L 530.168229 -119.900076 
L 537.842792 -113.323776 
L 545.517356 -107.140874 
L 553.191919 -101.406934 
L 560.866482 -96.271794 
L 568.541045 -91.645737 
L 576.215609 -87.459744 
L 583.890172 -83.671945 
L 591.564735 -80.142083 
L 599.239298 -76.933408 
L 606.913862 -73.528232 
L 614.591539 -70.930184 
L 622.27061 -69.131242 
L 629.94968 -67.815408 
L 637.628751 -66.732137 
L 645.307822 -65.849737 
L 652.986893 -65.077885 
L 660.665964 -64.338103 
L 668.345035 -63.597688 
L 676.024106 -62.863423 
L 683.703176 -62.153019 
L 691.382247 -61.459977 
L 699.061318 -60.796602 
L 706.740389 -60.186319 
L 714.41946 -59.676194 
L 722.098531 -59.285839 
L 722.098531 -65.168208 
L 722.098531 -65.168208 
L 714.41946 -65.730115 
L 706.740389 -66.442376 
L 699.061318 -67.285199 
L 691.382247 -68.202735 
L 683.703176 -69.172255 
L 676.024106 -70.177959 
L 668.345035 -71.229223 
L 660.665964 -72.306637 
L 652.986893 -73.404681 
L 645.307822 -74.568897 
L 637.628751 -75.902011 
L 629.94968 -77.522884 
L 622.27061 -79.506486 
L 614.591539 -82.218079 
L 606.913862 -86.166332 
L 599.239298 -91.201002 
L 591.564735 -96.031975 
L 583.890172 -101.347003 
L 576.215609 -107.058188 
L 568.541045 -113.343376 
L 560.866482 -120.258722 
L 553.191919 -127.893246 
L 545.517356 -136.38319 
L 537.842792 -145.532339 
L 530.168229 -155.279717 
L 522.493666 -165.481361 
L 514.819103 -175.948536 
L 507.14454 -186.522198 
L 499.469976 -197.033776 
L 491.795413 -207.319376 
L 484.12085 -217.183919 
L 476.446287 -226.363845 
L 468.771724 -234.557018 
L 461.09716 -241.466561 
L 453.422597 -246.921654 
L 445.748034 -250.887043 
L 438.073471 -253.15288 
L 430.398908 -252.740472 
L 422.724344 -247.116132 
z
" id="m0a9a0baf95" style="stroke:#0000ff;stroke-opacity:0.3;"/>
    </defs>
    <g clip-path="url(#pb9d225d0a9)">
     <use style="fill:#0000ff;fill-opacity:0.3;stroke:#0000ff;stroke-opacity:0.3;" x="0" xlink:href="#m0a9a0baf95" y="283.68"/>
    </g>
   </g>
   <g id="matplotlib.axis_3">
    <g id="xtick_6">
     <g id="line2d_17">
      <g>
       <use style="stroke:#000000;stroke-width:0.8;" x="422.724344" xlink:href="#mcefdca2fd3" y="250.61552"/>
      </g>
     </g>
     <g id="text_20">
      <text style="font-family:DejaVu Sans;font-size:10px;font-style:normal;font-weight:normal;text-anchor:middle;" transform="rotate(-0, 422.724344, 265.213957)" x="422.724344" y="265.213957">0.000</text>
     </g>
    </g>
    <g id="xtick_7">
     <g id="line2d_18">
      <g>
       <use style="stroke:#000000;stroke-width:0.8;" x="487.415416" xlink:href="#mcefdca2fd3" y="250.61552"/>
      </g>
     </g>
     <g id="text_21">
      <text style="font-family:DejaVu Sans;font-size:10px;font-style:normal;font-weight:normal;text-anchor:middle;" transform="rotate(-0, 487.415416, 265.213957)" x="487.415416" y="265.213957">0.005</text>
     </g>
    </g>
    <g id="xtick_8">
     <g id="line2d_19">
      <g>
       <use style="stroke:#000000;stroke-width:0.8;" x="552.106488" xlink:href="#mcefdca2fd3" y="250.61552"/>
      </g>
     </g>
     <g id="text_22">
      <text style="font-family:DejaVu Sans;font-size:10px;font-style:normal;font-weight:normal;text-anchor:middle;" transform="rotate(-0, 552.106488, 265.213957)" x="552.106488" y="265.213957">0.010</text>
     </g>
    </g>
    <g id="xtick_9">
     <g id="line2d_20">
      <g>
       <use style="stroke:#000000;stroke-width:0.8;" x="616.797559" xlink:href="#mcefdca2fd3" y="250.61552"/>
      </g>
     </g>
     <g id="text_23">
      <text style="font-family:DejaVu Sans;font-size:10px;font-style:normal;font-weight:normal;text-anchor:middle;" transform="rotate(-0, 616.797559, 265.213957)" x="616.797559" y="265.213957">0.015</text>
     </g>
    </g>
    <g id="xtick_10">
     <g id="line2d_21">
      <g>
       <use style="stroke:#000000;stroke-width:0.8;" x="681.488631" xlink:href="#mcefdca2fd3" y="250.61552"/>
      </g>
     </g>
     <g id="text_24">
      <text style="font-family:DejaVu Sans;font-size:10px;font-style:normal;font-weight:normal;text-anchor:middle;" transform="rotate(-0, 681.488631, 265.213957)" x="681.488631" y="265.213957">0.020</text>
     </g>
    </g>
    <g id="text_25">
     <text style="font-family:DejaVu Sans;font-size:10px;font-style:normal;font-weight:normal;text-anchor:middle;" transform="rotate(-0, 572.411438, 278.892083)" x="572.411438" y="278.892083">Arc length from nose (m)</text>
    </g>
   </g>
   <g id="matplotlib.axis_4">
    <g id="ytick_9">
     <g id="line2d_22">
      <g>
       <use style="stroke:#000000;stroke-width:0.8;" x="407.755635" xlink:href="#md26ad58d1a" y="240.13512"/>
      </g>
     </g>
    </g>
    <g id="ytick_10">
     <g id="line2d_23">
      <g>
       <use style="stroke:#000000;stroke-width:0.8;" x="407.755635" xlink:href="#md26ad58d1a" y="212.445165"/>
      </g>
     </g>
    </g>
    <g id="ytick_11">
     <g id="line2d_24">
      <g>
       <use style="stroke:#000000;stroke-width:0.8;" x="407.755635" xlink:href="#md26ad58d1a" y="184.75521"/>
      </g>
     </g>
    </g>
    <g id="ytick_12">
     <g id="line2d_25">
      <g>
       <use style="stroke:#000000;stroke-width:0.8;" x="407.755635" xlink:href="#md26ad58d1a" y="157.065255"/>
      </g>
     </g>
    </g>
    <g id="ytick_13">
     <g id="line2d_26">
      <g>
       <use style="stroke:#000000;stroke-width:0.8;" x="407.755635" xlink:href="#md26ad58d1a" y="129.3753"/>
      </g>
     </g>
    </g>
    <g id="ytick_14">
     <g id="line2d_27">
      <g>
       <use style="stroke:#000000;stroke-width:0.8;" x="407.755635" xlink:href="#md26ad58d1a" y="101.685345"/>
      </g>
     </g>
    </g>
    <g id="ytick_15">
     <g id="line2d_28">
      <g>
       <use style="stroke:#000000;stroke-width:0.8;" x="407.755635" xlink:href="#md26ad58d1a" y="73.99539"/>
      </g>
     </g>
    </g>
    <g id="ytick_16">
     <g id="line2d_29">
      <g>
       <use style="stroke:#000000;stroke-width:0.8;" x="407.755635" xlink:href="#md26ad58d1a" y="46.305436"/>
      </g>
     </g>
    </g>
    <g id="text_26">
     <text style="font-family:DejaVu Sans;font-size:10px;font-style:normal;font-weight:normal;text-anchor:middle;" transform="rotate(-90, 401.675948, 135.33112)" x="401.675948" y="135.33112">q (MW/m2)</text>
    </g>
   </g>
   <g id="line2d_30">
    <path clip-path="url(#pb9d225d0a9)" d="M 422.724344 36.563868 
L 430.398908 30.939528 
L 438.073471 30.52712 
L 445.748034 32.792957 
L 453.422597 36.758346 
L 461.09716 42.213439 
L 468.771724 49.122982 
L 476.446287 57.316155 
L 484.12085 66.496081 
L 491.795413 76.360624 
L 499.469976 86.646224 
L 507.14454 97.157802 
L 514.819103 107.731464 
L 522.493666 118.198639 
L 530.168229 128.400283 
L 537.842792 138.147661 
L 545.517356 147.29681 
L 553.191919 155.786754 
L 560.866482 163.421278 
L 568.541045 170.336624 
L 576.215609 176.621812 
L 583.890172 182.332997 
L 591.564735 187.648025 
L 599.239298 192.478998 
L 606.913862 197.513668 
L 614.591539 201.461921 
L 622.27061 204.173514 
L 629.94968 206.157116 
L 637.628751 207.777989 
L 645.307822 209.111103 
L 652.986893 210.275319 
L 660.665964 211.373363 
L 668.345035 212.450777 
L 676.024106 213.502041 
L 683.703176 214.507745 
L 691.382247 215.477265 
L 699.061318 216.394801 
L 706.740389 217.237624 
L 714.41946 217.949885 
L 722.098531 218.511792 
" style="fill:none;stroke:#000000;stroke-linecap:square;stroke-width:2;"/>
   </g>
   <g id="patch_11">
    <path d="M 407.755635 250.61552 
L 407.755635 20.04672 
" style="fill:none;stroke:#000000;stroke-linecap:square;stroke-linejoin:miter;stroke-width:0.8;"/>
   </g>
   <g id="patch_12">
    <path d="M 737.06724 250.61552 
L 737.06724 20.04672 
" style="fill:none;stroke:#000000;stroke-linecap:square;stroke-linejoin:miter;stroke-width:0.8;"/>
   </g>
   <g id="patch_13">
    <path d="M 407.755635 250.61552 
L 737.06724 250.61552 
" style="fill:none;stroke:#000000;stroke-linecap:square;stroke-linejoin:miter;stroke-width:0.8;"/>
   </g>
   <g id="patch_14">
    <path d="M 407.755635 20.04672 
L 737.06724 20.04672 
" style="fill:none;stroke:#000000;stroke-linecap:square;stroke-linejoin:miter;stroke-width:0.8;"/>
   </g>
   <g id="text_27">
    <text style="font-family:DejaVu Sans;font-size:12px;font-style:normal;font-weight:normal;text-anchor:middle;" transform="rotate(-0, 572.411438, 14.04672)" x="572.411438" y="14.04672">Catalytic</text>
   </g>
   <g id="legend_2">
    <g id="patch_15">
     <path d="M 662.415678 72.91547 
L 730.06724 72.91547 
Q 732.06724 72.91547 732.06724 70.91547 
L 732.06724 27.04672 
Q 732.06724 25.04672 730.06724 25.04672 
L 662.415678 25.04672 
Q 660.415678 25.04672 660.415678 27.04672 
L 660.415678 70.91547 
Q 660.415678 72.91547 662.415678 72.91547 
z
" style="fill:#ffffff;opacity:0.8;stroke:#cccccc;stroke-linejoin:miter;"/>
    </g>
    <g id="line2d_31">
     <path d="M 664.415678 33.145158 
L 684.415678 33.145158 
" style="fill:none;stroke:#000000;stroke-linecap:square;stroke-width:2;"/>
    </g>
    <g id="line2d_32"/>
    <g id="text_28">
     <text style="font-family:DejaVu Sans;font-size:10px;font-style:normal;font-weight:normal;text-anchor:start;" transform="rotate(-0, 692.415678, 36.645158)" x="692.415678" y="36.645158">q_total</text>
    </g>
    <g id="patch_16">
     <path d="M 664.415678 51.601408 
L 684.415678 51.601408 
L 684.415678 44.601408 
L 664.415678 44.601408 
z
" style="fill:#ff0000;opacity:0.3;stroke:#ff0000;stroke-linejoin:miter;"/>
    </g>
    <g id="text_29">
     <text style="font-family:DejaVu Sans;font-size:10px;font-style:normal;font-weight:normal;text-anchor:start;" transform="rotate(-0, 692.415678, 51.601408)" x="692.415678" y="51.601408">q_cond</text>
    </g>
    <g id="patch_17">
     <path d="M 664.415678 66.557658 
L 684.415678 66.557658 
L 684.415678 59.557658 
L 664.415678 59.557658 
z
" style="fill:#0000ff;opacity:0.3;stroke:#0000ff;stroke-linejoin:miter;"/>
    </g>
    <g id="text_30">
     <text style="font-family:DejaVu Sans;font-size:10px;font-style:normal;font-weight:normal;text-anchor:start;" transform="rotate(-0, 692.415678, 66.557658)" x="692.415678" y="66.557658">q_diff</text>
    </g>
   </g>
  </g>
 </g>
 <defs>
  <clipPath id="pe6a8503104">
   <rect height="230.5688" width="329.311605" x="49.86583" y="20.04672"/>
  </clipPath>
  <clipPath id="pb9d225d0a9">
   <rect height="230.5688" width="329.311605" x="407.755635" y="20.04672"/>
  </clipPath>
 </defs>
</svg>
