<?xml version="1.0" encoding="utf-8" standalone="no"?>
<!DOCTYPE svg PUBLIC "-//W3C//DTD SVG 1.1//EN"
  "http://www.w3.org/Graphics/SVG/1.1/DTD/svg11.dtd">
<!-- Created with matplotlib (https://matplotlib.org/) -->
<svg height="345.6pt" version="1.1" viewBox="0 0 460.8 345.6" width="460.8pt" xmlns="http://www.w3.org/2000/svg" xmlns:xlink="http://www.w3.org/1999/xlink">
 <defs>
  <style type="text/css">
*{stroke-linecap:butt;stroke-linejoin:round;}
  </style>
 </defs>
 <g id="figure_1">
  <g id="patch_1">
   <path d="M 0 345.6 
L 460.8 345.6 
L 460.8 0 
L 0 0 
z
" style="fill:#ffffff;"/>
  </g>
  <g id="axes_1">
   <g id="patch_2">
    <path d="M 57.6 307.584 
L 414.72 307.584 
L 414.72 41.472 
L 57.6 41.472 
z
" style="fill:#ffffff;"/>
   </g>
   <g id="matplotlib.axis_1">
    <g id="xtick_1">
     <g id="line2d_1">
      <path clip-path="url(#pd604890046)" d="M 73.832727 307.584 
L 73.832727 41.472 
" style="fill:none;stroke:#b0b0b0;stroke-linecap:square;stroke-width:0.8;"/>
     </g>
     <g id="line2d_2">
      <defs>
       <path d="M 0 0 
L 0 3.5 
" id="m0fccafa1d1" style="stroke:#000000;stroke-width:0.8;"/>
      </defs>
      <g>
       <use style="stroke:#000000;stroke-width:0.8;" x="73.832727" xlink:href="#m0fccafa1d1" y="307.584"/>
      </g>
     </g>
     <g id="text_1">
      <!-- 0.0 -->
      <defs>
       <path d="M 31.78125 66.40625 
Q 24.171875 66.40625 20.328125 58.90625 
Q 16.5 51.421875 16.5 36.375 
Q 16.5 21.390625 20.328125 13.890625 
Q 24.171875 6.390625 31.78125 6.390625 
Q 39.453125 6.390625 43.28125 13.890625 
Q 47.125 21.390625 47.125 36.375 
Q 47.125 51.421875 43.28125 58.90625 
Q 39.453125 66.40625 31.78125 66.40625 
z
M 31.78125 74.21875 
Q 44.046875 74.21875 50.515625 64.515625 
Q 56.984375 54.828125 56.984375 36.375 
Q 56.984375 17.96875 50.515625 8.265625 
Q 44.046875 -1.421875 31.78125 -1.421875 
Q 19.53125 -1.421875 13.0625 8.265625 
Q 6.59375 17.96875 6.59375 36.375 
Q 6.59375 54.828125 13.0625 64.515625 
Q 19.53125 74.21875 31.78125 74.21875 
z
" id="DejaVuSans-48"/>
       <path d="M 10.6875 12.40625 
L 21 12.40625 
L 21 0 
L 10.6875 0 
z
" id="DejaVuSans-46"/>
      </defs>
      <g transform="translate(65.881165 322.182437)scale(0.1 -0.1)">
       <use xlink:href="#DejaVuSans-48"/>
       <use x="63.623047" xlink:href="#DejaVuSans-46"/>
       <use x="95.410156" xlink:href="#DejaVuSans-48"/>
      </g>
     </g>
    </g>
    <g id="xtick_2">
     <g id="line2d_3">
      <path clip-path="url(#pd604890046)" d="M 154.996364 307.584 
L 154.996364 41.472 
" style="fill:none;stroke:#b0b0b0;stroke-linecap:square;stroke-width:0.8;"/>
     </g>
     <g id="line2d_4">
      <g>
       <use style="stroke:#000000;stroke-width:0.8;" x="154.996364" xlink:href="#m0fccafa1d1" y="307.584"/>
      </g>
     </g>
     <g id="text_2">
      <!-- 0.5 -->
      <defs>
       <path d="M 10.796875 72.90625 
L 49.515625 72.90625 
L 49.515625 64.59375 
L 19.828125 64.59375 
L 19.828125 46.734375 
Q 21.96875 47.46875 24.109375 47.828125 
Q 26.265625 48.1875 28.421875 48.1875 
Q 40.625 48.1875 47.75 41.5 
Q 54.890625 34.8125 54.890625 23.390625 
Q 54.890625 11.625 47.5625 5.09375 
Q 40.234375 -1.421875 26.90625 -1.421875 
Q 22.3125 -1.421875 17.546875 -0.640625 
Q 12.796875 0.140625 7.71875 1.703125 
L 7.71875 11.625 
Q 12.109375 9.234375 16.796875 8.0625 
Q 21.484375 6.890625 26.703125 6.890625 
Q 35.15625 6.890625 40.078125 11.328125 
Q 45.015625 15.765625 45.015625 23.390625 
Q 45.015625 31 40.078125 35.4375 
Q 35.15625 39.890625 26.703125 39.890625 
Q 22.75 39.890625 18.8125 39.015625 
Q 14.890625 38.140625 10.796875 36.28125 
z
" id="DejaVuSans-53"/>
      </defs>
      <g transform="translate(147.044801 322.182437)scale(0.1 -0.1)">
       <use xlink:href="#DejaVuSans-48"/>
       <use x="63.623047" xlink:href="#DejaVuSans-46"/>
       <use x="95.410156" xlink:href="#DejaVuSans-53"/>
      </g>
     </g>
    </g>
    <g id="xtick_3">
     <g id="line2d_5">
      <path clip-path="url(#pd604890046)" d="M 236.16 307.584 
L 236.16 41.472 
" style="fill:none;stroke:#b0b0b0;stroke-linecap:square;stroke-width:0.8;"/>
     </g>
     <g id="line2d_6">
      <g>
       <use style="stroke:#000000;stroke-width:0.8;" x="236.16" xlink:href="#m0fccafa1d1" y="307.584"/>
      </g>
     </g>
     <g id="text_3">
      <!-- 1.0 -->
      <defs>
       <path d="M 12.40625 8.296875 
L 28.515625 8.296875 
L 28.515625 63.921875 
L 10.984375 60.40625 
L 10.984375 69.390625 
L 28.421875 72.90625 
L 38.28125 72.90625 
L 38.28125 8.296875 
L 54.390625 8.296875 
L 54.390625 0 
L 12.40625 0 
z
" id="DejaVuSans-49"/>
      </defs>
      <g transform="translate(228.208438 322.182437)scale(0.1 -0.1)">
       <use xlink:href="#DejaVuSans-49"/>
       <use x="63.623047" xlink:href="#DejaVuSans-46"/>
       <use x="95.410156" xlink:href="#DejaVuSans-48"/>
      </g>
     </g>
    </g>
    <g id="xtick_4">
     <g id="line2d_7">
      <path clip-path="url(#pd604890046)" d="M 317.323636 307.584 
L 317.323636 41.472 
" style="fill:none;stroke:#b0b0b0;stroke-linecap:square;stroke-width:0.8;"/>
     </g>
     <g id="line2d_8">
      <g>
       <use style="stroke:#000000;stroke-width:0.8;" x="317.323636" xlink:href="#m0fccafa1d1" y="307.584"/>
      </g>
     </g>
     <g id="text_4">
      <!-- 1.5 -->
      <g transform="translate(309.372074 322.182437)scale(0.1 -0.1)">
       <use xlink:href="#DejaVuSans-49"/>
       <use x="63.623047" xlink:href="#DejaVuSans-46"/>
       <use x="95.410156" xlink:href="#DejaVuSans-53"/>
      </g>
     </g>
    </g>
    <g id="xtick_5">
     <g id="line2d_9">
      <path clip-path="url(#pd604890046)" d="M 398.487273 307.584 
L 398.487273 41.472 
" style="fill:none;stroke:#b0b0b0;stroke-linecap:square;stroke-width:0.8;"/>
     </g>
     <g id="line2d_10">
      <g>
       <use style="stroke:#000000;stroke-width:0.8;" x="398.487273" xlink:href="#m0fccafa1d1" y="307.584"/>
      </g>
     </g>
     <g id="text_5">
      <!-- 2.0 -->
      <defs>
       <path d="M 19.1875 8.296875 
L 53.609375 8.296875 
L 53.609375 0 
L 7.328125 0 
L 7.328125 8.296875 
Q 12.9375 14.109375 22.625 23.890625 
Q 32.328125 33.6875 34.8125 36.53125 
Q 39.546875 41.84375 41.421875 45.53125 
Q 43.3125 49.21875 43.3125 52.78125 
Q 43.3125 58.59375 39.234375 62.25 
Q 35.15625 65.921875 28.609375 65.921875 
Q 23.96875 65.921875 18.8125 64.3125 
Q 13.671875 62.703125 7.8125 59.421875 
L 7.8125 69.390625 
Q 13.765625 71.78125 18.9375 73 
Q 24.125 74.21875 28.421875 74.21875 
Q 39.75 74.21875 46.484375 68.546875 
Q 53.21875 62.890625 53.21875 53.421875 
Q 53.21875 48.921875 51.53125 44.890625 
Q 49.859375 40.875 45.40625 35.40625 
Q 44.1875 33.984375 37.640625 27.21875 
Q 31.109375 20.453125 19.1875 8.296875 
z
" id="DejaVuSans-50"/>
      </defs>
      <g transform="translate(390.53571 322.182437)scale(0.1 -0.1)">
       <use xlink:href="#DejaVuSans-50"/>
       <use x="63.623047" xlink:href="#DejaVuSans-46"/>
       <use x="95.410156" xlink:href="#DejaVuSans-48"/>
      </g>
     </g>
    </g>
    <g id="text_6">
     <!-- $t$ (ms) -->
     <defs>
      <path d="M 42.28125 54.6875 
L 40.921875 47.703125 
L 23 47.703125 
L 17.1875 18.015625 
Q 16.890625 16.359375 16.75 15.234375 
Q 16.609375 14.109375 16.609375 13.484375 
Q 16.609375 10.359375 18.484375 8.9375 
Q 20.359375 7.515625 24.515625 7.515625 
L 33.59375 7.515625 
L 32.078125 0 
L 23.484375 0 
Q 15.484375 0 11.546875 3.125 
Q 7.625 6.25 7.625 12.59375 
Q 7.625 13.71875 7.765625 15.0625 
Q 7.90625 16.40625 8.203125 18.015625 
L 14.015625 47.703125 
L 6.390625 47.703125 
L 7.8125 54.6875 
L 15.28125 54.6875 
L 18.3125 70.21875 
L 27.296875 70.21875 
L 24.3125 54.6875 
z
" id="DejaVuSans-Oblique-116"/>
      <path id="DejaVuSans-32"/>
      <path d="M 31 75.875 
Q 24.46875 64.65625 21.28125 53.65625 
Q 18.109375 42.671875 18.109375 31.390625 
Q 18.109375 20.125 21.3125 9.0625 
Q 24.515625 -2 31 -13.1875 
L 23.1875 -13.1875 
Q 15.875 -1.703125 12.234375 9.375 
Q 8.59375 20.453125 8.59375 31.390625 
Q 8.59375 42.28125 12.203125 53.3125 
Q 15.828125 64.359375 23.1875 75.875 
z
" id="DejaVuSans-40"/>
      <path d="M 52 44.1875 
Q 55.375 50.25 60.0625 53.125 
Q 64.75 56 71.09375 56 
Q 79.640625 56 84.28125 50.015625 
Q 88.921875 44.046875 88.921875 33.015625 
L 88.921875 0 
L 79.890625 0 
L 79.890625 32.71875 
Q 79.890625 40.578125 77.09375 44.375 
Q 74.3125 48.1875 68.609375 48.1875 
Q 61.625 48.1875 57.5625 43.546875 
Q 53.515625 38.921875 53.515625 30.90625 
L 53.515625 0 
L 44.484375 0 
L 44.484375 32.71875 
Q 44.484375 40.625 41.703125 44.40625 
Q 38.921875 48.1875 33.109375 48.1875 
Q 26.21875 48.1875 22.15625 43.53125 
Q 18.109375 38.875 18.109375 30.90625 
L 18.109375 0 
L 9.078125 0 
L 9.078125 54.6875 
L 18.109375 54.6875 
L 18.109375 46.1875 
Q 21.1875 51.21875 25.484375 53.609375 
Q 29.78125 56 35.6875 56 
Q 41.65625 56 45.828125 52.96875 
Q 50 49.953125 52 44.1875 
z
" id="DejaVuSans-109"/>
      <path d="M 44.28125 53.078125 
L 44.28125 44.578125 
Q 40.484375 46.53125 36.375 47.5 
Q 32.28125 48.484375 27.875 48.484375 
Q 21.1875 48.484375 17.84375 46.4375 
Q 14.5 44.390625 14.5 40.28125 
Q 14.5 37.15625 16.890625 35.375 
Q 19.28125 33.59375 26.515625 31.984375 
L 29.59375 31.296875 
Q 39.15625 29.25 43.1875 25.515625 
Q 47.21875 21.78125 47.21875 15.09375 
Q 47.21875 7.46875 41.1875 3.015625 
Q 35.15625 -1.421875 24.609375 -1.421875 
Q 20.21875 -1.421875 15.453125 -0.5625 
Q 10.6875 0.296875 5.421875 2 
L 5.421875 11.28125 
Q 10.40625 8.6875 15.234375 7.390625 
Q 20.0625 6.109375 24.8125 6.109375 
Q 31.15625 6.109375 34.5625 8.28125 
Q 37.984375 10.453125 37.984375 14.40625 
Q 37.984375 18.0625 35.515625 20.015625 
Q 33.0625 21.96875 24.703125 23.78125 
L 21.578125 24.515625 
Q 13.234375 26.265625 9.515625 29.90625 
Q 5.8125 33.546875 5.8125 39.890625 
Q 5.8125 47.609375 11.28125 51.796875 
Q 16.75 56 26.8125 56 
Q 31.78125 56 36.171875 55.265625 
Q 40.578125 54.546875 44.28125 53.078125 
z
" id="DejaVuSans-115"/>
      <path d="M 8.015625 75.875 
L 15.828125 75.875 
Q 23.140625 64.359375 26.78125 53.3125 
Q 30.421875 42.28125 30.421875 31.390625 
Q 30.421875 20.453125 26.78125 9.375 
Q 23.140625 -1.703125 15.828125 -13.1875 
L 8.015625 -13.1875 
Q 14.5 -2 17.703125 9.0625 
Q 20.90625 20.125 20.90625 31.390625 
Q 20.90625 42.671875 17.703125 53.65625 
Q 14.5 64.65625 8.015625 75.875 
z
" id="DejaVuSans-41"/>
     </defs>
     <g transform="translate(221.21 335.860562)scale(0.1 -0.1)">
      <use transform="translate(0 0.125)" xlink:href="#DejaVuSans-Oblique-116"/>
      <use transform="translate(39.208984 0.125)" xlink:href="#DejaVuSans-32"/>
      <use transform="translate(70.996094 0.125)" xlink:href="#DejaVuSans-40"/>
      <use transform="translate(110.009766 0.125)" xlink:href="#DejaVuSans-109"/>
      <use transform="translate(207.421875 0.125)" xlink:href="#DejaVuSans-115"/>
      <use transform="translate(259.521484 0.125)" xlink:href="#DejaVuSans-41"/>
     </g>
    </g>
   </g>
   <g id="matplotlib.axis_2">
    <g id="ytick_1">
     <g id="line2d_11">
      <path clip-path="url(#pd604890046)" d="M 57.6 277.946179 
L 414.72 277.946179 
" style="fill:none;stroke:#b0b0b0;stroke-linecap:square;stroke-width:0.8;"/>
     </g>
     <g id="line2d_12">
      <defs>
       <path d="M 0 0 
L -3.5 0 
" id="mb5df44fe86" style="stroke:#000000;stroke-width:0.8;"/>
      </defs>
      <g>
       <use style="stroke:#000000;stroke-width:0.8;" x="57.6" xlink:href="#mb5df44fe86" y="277.946179"/>
      </g>
     </g>
     <g id="text_7">
      <!-- −0.4 -->
      <defs>
       <path d="M 10.59375 35.5 
L 73.1875 35.5 
L 73.1875 27.203125 
L 10.59375 27.203125 
z
" id="DejaVuSans-8722"/>
       <path d="M 37.796875 64.3125 
L 12.890625 25.390625 
L 37.796875 25.390625 
z
M 35.203125 72.90625 
L 47.609375 72.90625 
L 47.609375 25.390625 
L 58.015625 25.390625 
L 58.015625 17.1875 
L 47.609375 17.1875 
L 47.609375 0 
L 37.796875 0 
L 37.796875 17.1875 
L 4.890625 17.1875 
L 4.890625 26.703125 
z
" id="DejaVuSans-52"/>
      </defs>
      <g transform="translate(26.317187 281.745397)scale(0.1 -0.1)">
       <use xlink:href="#DejaVuSans-8722"/>
       <use x="83.789062" xlink:href="#DejaVuSans-48"/>
       <use x="147.412109" xlink:href="#DejaVuSans-46"/>
       <use x="179.199219" xlink:href="#DejaVuSans-52"/>
      </g>
     </g>
    </g>
    <g id="ytick_2">
     <g id="line2d_13">
      <path clip-path="url(#pd604890046)" d="M 57.6 226.073177 
L 414.72 226.073177 
" style="fill:none;stroke:#b0b0b0;stroke-linecap:square;stroke-width:0.8;"/>
     </g>
     <g id="line2d_14">
      <g>
       <use style="stroke:#000000;stroke-width:0.8;" x="57.6" xlink:href="#mb5df44fe86" y="226.073177"/>
      </g>
     </g>
     <g id="text_8">
      <!-- −0.2 -->
      <g transform="translate(26.317187 229.872396)scale(0.1 -0.1)">
       <use xlink:href="#DejaVuSans-8722"/>
       <use x="83.789062" xlink:href="#DejaVuSans-48"/>
       <use x="147.412109" xlink:href="#DejaVuSans-46"/>
       <use x="179.199219" xlink:href="#DejaVuSans-50"/>
      </g>
     </g>
    </g>
    <g id="ytick_3">
     <g id="line2d_15">
      <path clip-path="url(#pd604890046)" d="M 57.6 174.200176 
L 414.72 174.200176 
" style="fill:none;stroke:#b0b0b0;stroke-linecap:square;stroke-width:0.8;"/>
     </g>
     <g id="line2d_16">
      <g>
       <use style="stroke:#000000;stroke-width:0.8;" x="57.6" xlink:href="#mb5df44fe86" y="174.200176"/>
      </g>
     </g>
     <g id="text_9">
      <!-- 0.0 -->
      <g transform="translate(34.696875 177.999395)scale(0.1 -0.1)">
       <use xlink:href="#DejaVuSans-48"/>
       <use x="63.623047" xlink:href="#DejaVuSans-46"/>
       <use x="95.410156" xlink:href="#DejaVuSans-48"/>
      </g>
     </g>
    </g>
    <g id="ytick_4">
     <g id="line2d_17">
      <path clip-path="url(#pd604890046)" d="M 57.6 122.327175 
L 414.72 122.327175 
" style="fill:none;stroke:#b0b0b0;stroke-linecap:square;stroke-width:0.8;"/>
     </g>
     <g id="line2d_18">
      <g>
       <use style="stroke:#000000;stroke-width:0.8;" x="57.6" xlink:href="#mb5df44fe86" y="122.327175"/>
      </g>
     </g>
     <g id="text_10">
      <!-- 0.2 -->
      <g transform="translate(34.696875 126.126394)scale(0.1 -0.1)">
       <use xlink:href="#DejaVuSans-48"/>
       <use x="63.623047" xlink:href="#DejaVuSans-46"/>
       <use x="95.410156" xlink:href="#DejaVuSans-50"/>
      </g>
     </g>
    </g>
    <g id="ytick_5">
     <g id="line2d_19">
      <path clip-path="url(#pd604890046)" d="M 57.6 70.454174 
L 414.72 70.454174 
" style="fill:none;stroke:#b0b0b0;stroke-linecap:square;stroke-width:0.8;"/>
     </g>
     <g id="line2d_20">
      <g>
       <use style="stroke:#000000;stroke-width:0.8;" x="57.6" xlink:href="#mb5df44fe86" y="70.454174"/>
      </g>
     </g>
     <g id="text_11">
      <!-- 0.4 -->
      <g transform="translate(34.696875 74.253392)scale(0.1 -0.1)">
       <use xlink:href="#DejaVuSans-48"/>
       <use x="63.623047" xlink:href="#DejaVuSans-46"/>
       <use x="95.410156" xlink:href="#DejaVuSans-52"/>
      </g>
     </g>
    </g>
    <g id="text_12">
     <!-- Moment (Nm/m) -->
     <defs>
      <path d="M 9.8125 72.90625 
L 24.515625 72.90625 
L 43.109375 23.296875 
L 61.8125 72.90625 
L 76.515625 72.90625 
L 76.515625 0 
L 66.890625 0 
L 66.890625 64.015625 
L 48.09375 14.015625 
L 38.1875 14.015625 
L 19.390625 64.015625 
L 19.390625 0 
L 9.8125 0 
z
" id="DejaVuSans-77"/>
      <path d="M 30.609375 48.390625 
Q 23.390625 48.390625 19.1875 42.75 
Q 14.984375 37.109375 14.984375 27.296875 
Q 14.984375 17.484375 19.15625 11.84375 
Q 23.34375 6.203125 30.609375 6.203125 
Q 37.796875 6.203125 41.984375 11.859375 
Q 46.1875 17.53125 46.1875 27.296875 
Q 46.1875 37.015625 41.984375 42.703125 
Q 37.796875 48.390625 30.609375 48.390625 
z
M 30.609375 56 
Q 42.328125 56 49.015625 48.375 
Q 55.71875 40.765625 55.71875 27.296875 
Q 55.71875 13.875 49.015625 6.21875 
Q 42.328125 -1.421875 30.609375 -1.421875 
Q 18.84375 -1.421875 12.171875 6.21875 
Q 5.515625 13.875 5.515625 27.296875 
Q 5.515625 40.765625 12.171875 48.375 
Q 18.84375 56 30.609375 56 
z
" id="DejaVuSans-111"/>
      <path d="M 56.203125 29.59375 
L 56.203125 25.203125 
L 14.890625 25.203125 
Q 15.484375 15.921875 20.484375 11.0625 
Q 25.484375 6.203125 34.421875 6.203125 
Q 39.59375 6.203125 44.453125 7.46875 
Q 49.3125 8.734375 54.109375 11.28125 
L 54.109375 2.78125 
Q 49.265625 0.734375 44.1875 -0.34375 
Q 39.109375 -1.421875 33.890625 -1.421875 
Q 20.796875 -1.421875 13.15625 6.1875 
Q 5.515625 13.8125 5.515625 26.8125 
Q 5.515625 40.234375 12.765625 48.109375 
Q 20.015625 56 32.328125 56 
Q 43.359375 56 49.78125 48.890625 
Q 56.203125 41.796875 56.203125 29.59375 
z
M 47.21875 32.234375 
Q 47.125 39.59375 43.09375 43.984375 
Q 39.0625 48.390625 32.421875 48.390625 
Q 24.90625 48.390625 20.390625 44.140625 
Q 15.875 39.890625 15.1875 32.171875 
z
" id="DejaVuSans-101"/>
      <path d="M 54.890625 33.015625 
L 54.890625 0 
L 45.90625 0 
L 45.90625 32.71875 
Q 45.90625 40.484375 42.875 44.328125 
Q 39.84375 48.1875 33.796875 48.1875 
Q 26.515625 48.1875 22.3125 43.546875 
Q 18.109375 38.921875 18.109375 30.90625 
L 18.109375 0 
L 9.078125 0 
L 9.078125 54.6875 
L 18.109375 54.6875 
L 18.109375 46.1875 
Q 21.34375 51.125 25.703125 53.5625 
Q 30.078125 56 35.796875 56 
Q 45.21875 56 50.046875 50.171875 
Q 54.890625 44.34375 54.890625 33.015625 
z
" id="DejaVuSans-110"/>
      <path d="M 18.3125 70.21875 
L 18.3125 54.6875 
L 36.8125 54.6875 
L 36.8125 47.703125 
L 18.3125 47.703125 
L 18.3125 18.015625 
Q 18.3125 11.328125 20.140625 9.421875 
Q 21.96875 7.515625 27.59375 7.515625 
L 36.8125 7.515625 
L 36.8125 0 
L 27.59375 0 
Q 17.1875 0 13.234375 3.875 
Q 9.28125 7.765625 9.28125 18.015625 
L 9.28125 47.703125 
L 2.6875 47.703125 
L 2.6875 54.6875 
L 9.28125 54.6875 
L 9.28125 70.21875 
z
" id="DejaVuSans-116"/>
      <path d="M 9.8125 72.90625 
L 23.09375 72.90625 
L 55.421875 11.921875 
L 55.421875 72.90625 
L 64.984375 72.90625 
L 64.984375 0 
L 51.703125 0 
L 19.390625 60.984375 
L 19.390625 0 
L 9.8125 0 
z
" id="DejaVuSans-78"/>
      <path d="M 25.390625 72.90625 
L 33.6875 72.90625 
L 8.296875 -9.28125 
L 0 -9.28125 
z
" id="DejaVuSans-47"/>
     </defs>
     <g transform="translate(20.2375 215.633469)rotate(-90)scale(0.1 -0.1)">
      <use xlink:href="#DejaVuSans-77"/>
      <use x="86.279297" xlink:href="#DejaVuSans-111"/>
      <use x="147.460938" xlink:href="#DejaVuSans-109"/>
      <use x="244.873047" xlink:href="#DejaVuSans-101"/>
      <use x="306.396484" xlink:href="#DejaVuSans-110"/>
      <use x="369.775391" xlink:href="#DejaVuSans-116"/>
      <use x="408.984375" xlink:href="#DejaVuSans-32"/>
      <use x="440.771484" xlink:href="#DejaVuSans-40"/>
      <use x="479.785156" xlink:href="#DejaVuSans-78"/>
      <use x="554.589844" xlink:href="#DejaVuSans-109"/>
      <use x="652.001953" xlink:href="#DejaVuSans-47"/>
      <use x="685.693359" xlink:href="#DejaVuSans-109"/>
      <use x="783.105469" xlink:href="#DejaVuSans-41"/>
     </g>
    </g>
   </g>
   <g id="line2d_21">
    <path clip-path="url(#pd604890046)" d="M 98.185993 243.302282 
L 98.224218 243.302282 
L 98.335912 243.91426 
L 98.360418 243.91426 
L 98.472125 245.185794 
L 98.496605 245.185794 
L 98.607798 247.431524 
L 98.632096 247.431524 
L 98.745379 248.469895 
L 98.766962 248.469895 
L 98.880482 248.888278 
L 98.902145 248.888278 
L 99.013348 251.171867 
L 99.037803 251.171867 
L 99.149317 253.536638 
L 99.173809 253.536638 
L 99.285383 255.617919 
L 99.309877 255.617919 
L 99.421462 258.027698 
L 99.445963 258.027698 
L 99.557646 259.851835 
L 99.582184 259.851835 
L 99.694066 262.087353 
L 99.718638 262.087353 
L 99.830566 264.770493 
L 99.855142 264.770493 
L 99.96719 266.434203 
L 99.991805 266.434203 
L 100.103889 269.209881 
L 100.128445 269.209881 
L 100.239945 272.066658 
L 100.264394 272.066658 
L 100.376062 274.386669 
L 100.400635 274.386669 
L 100.512777 276.201599 
L 100.537412 276.201599 
L 100.649527 277.654304 
L 100.67412 277.654304 
L 100.786258 279.024628 
L 100.810911 279.024628 
L 100.923385 280.46709 
L 100.948113 280.46709 
L 101.060949 281.638857 
L 101.085754 281.638857 
L 101.198931 283.585459 
L 101.223825 283.585459 
L 101.337565 285.386958 
L 101.362645 285.386958 
L 101.474741 286.650097 
L 101.502838 286.650097 
L 101.615189 288.339778 
L 101.643308 288.339778 
L 101.755792 289.526648 
L 101.783883 289.526648 
L 101.896215 290.190063 
L 101.924304 290.190063 
L 102.036756 290.586627 
L 102.064906 290.586627 
L 102.177342 290.904929 
L 102.346512 290.930345 
L 102.4602 290.691885 
L 102.488723 290.691885 
L 102.600143 290.507171 
L 102.631587 290.507171 
L 102.74286 290.777048 
L 103.05848 290.745199 
L 103.169948 290.596543 
L 103.201504 290.596543 
L 103.313803 290.178425 
L 103.345547 290.178425 
L 103.458064 289.859704 
L 103.634122 289.821205 
L 103.74707 289.742642 
L 103.779026 289.742642 
L 103.892692 289.618013 
L 103.924792 289.618013 
L 104.035999 289.295433 
L 104.071235 289.295433 
L 104.183099 288.549792 
L 104.218508 288.549792 
L 104.330816 288.02763 
L 104.366265 288.02763 
L 104.478426 287.539665 
L 104.513851 287.539665 
L 104.626168 286.884423 
L 104.657598 286.884423 
L 104.769588 285.866335 
L 104.801343 285.866335 
L 104.914518 284.541383 
L 104.946603 284.541383 
L 105.058017 283.569546 
L 105.093399 283.569546 
L 105.206199 282.689393 
L 105.242086 282.689393 
L 105.353589 280.791572 
L 105.393055 280.791572 
L 105.505935 279.83378 
L 105.545663 279.83378 
L 105.658348 279.347158 
L 105.697711 279.347158 
L 105.809067 278.149869 
L 105.848051 278.149869 
L 105.95976 276.28663 
L 105.999531 276.28663 
L 106.111149 274.776558 
L 106.155138 274.776558 
L 106.266398 273.998656 
L 106.314573 273.998656 
L 106.427711 272.983607 
L 106.476339 272.983607 
L 106.589638 272.51239 
L 106.636566 272.51239 
L 106.750615 270.602329 
L 106.781355 270.602329 
L 106.893075 269.691579 
L 106.936914 269.691579 
L 107.049364 268.810467 
L 107.093029 268.810467 
L 107.205516 268.270125 
L 107.249401 268.270125 
L 107.362781 267.731619 
L 107.407136 267.731619 
L 107.518849 267.458636 
L 107.897062 267.529507 
L 108.009679 268.90754 
L 108.068567 268.90754 
L 108.18124 269.164207 
L 108.430708 269.091843 
L 108.542633 270.332048 
L 108.62288 270.332048 
L 108.735245 268.226256 
L 108.786191 268.226256 
L 108.897273 268.108021 
L 108.946581 268.108021 
L 109.058915 268.612819 
L 109.11865 268.612819 
L 109.231943 268.963983 
L 109.304469 268.963983 
L 109.418793 270.561043 
L 109.503724 270.561043 
L 109.615615 272.633501 
L 109.71317 272.633501 
L 109.825554 274.07402 
L 109.924723 274.07402 
L 110.038335 274.279077 
L 110.124546 274.279077 
L 110.23857 275.57616 
L 110.345251 275.57616 
L 110.459482 276.535125 
L 110.56375 276.535125 
L 110.675722 276.175631 
L 110.778563 276.175631 
L 110.889763 276.717532 
L 110.992355 276.717532 
L 111.103507 276.332088 
L 111.206219 276.332088 
L 111.317772 277.069382 
L 111.421204 277.069382 
L 111.533978 278.693465 
L 111.639023 278.693465 
L 111.754148 279.828372 
L 111.861918 279.828372 
L 111.975907 280.107095 
L 112.091986 280.107095 
L 112.205788 280.676808 
L 112.332095 280.676808 
L 112.44499 281.116358 
L 112.577595 281.116358 
L 112.689934 282.608617 
L 112.82193 282.608617 
L 112.934737 284.093249 
L 113.067212 284.093249 
L 113.180105 284.823566 
L 113.558379 284.811806 
L 113.671216 285.927133 
L 113.80362 285.927133 
L 113.916398 286.974896 
L 114.048751 286.974896 
L 114.161329 288.573295 
L 114.293269 288.573295 
L 114.405467 289.416452 
L 114.536955 289.416452 
L 114.648743 291.319321 
L 114.779783 291.319321 
L 114.891387 293.165317 
L 115.022611 293.165317 
L 115.1347 293.993671 
L 115.266743 293.993671 
L 115.381593 294.973639 
L 116.211355 294.930387 
L 116.324114 294.822717 
L 116.456854 294.822717 
L 116.568903 294.655054 
L 116.699933 294.655054 
L 116.811505 294.850142 
L 116.942623 294.850142 
L 117.054482 295.008838 
L 117.18603 295.008838 
L 117.298297 294.46489 
L 117.430358 294.46489 
L 117.543076 293.800265 
L 117.675563 293.800265 
L 117.788526 293.326912 
L 118.412027 293.250683 
L 118.524763 292.943626 
L 118.657141 292.943626 
L 118.769983 292.297339 
L 118.902512 292.297339 
L 119.015427 290.303741 
L 119.148146 290.303741 
L 119.261312 288.775333 
L 119.39425 288.775333 
L 119.507578 287.789418 
L 119.640739 287.789418 
L 119.754256 287.27202 
L 119.8876 287.27202 
L 120.001302 286.731727 
L 120.134825 286.731727 
L 120.248533 286.308796 
L 120.629025 286.386663 
L 120.742413 285.849217 
L 120.875371 285.849217 
L 120.988549 286.133905 
L 121.121359 286.133905 
L 121.234534 286.791111 
L 121.367411 286.791111 
L 121.480582 287.126334 
L 121.613409 287.126334 
L 121.726541 287.890178 
L 121.859276 287.890178 
L 121.972273 287.36972 
L 122.104933 287.36972 
L 122.217935 287.545543 
L 122.841991 287.613851 
L 122.95522 287.833056 
L 123.088214 287.833056 
L 123.201563 287.105192 
L 123.33469 287.105192 
L 123.448166 287.539984 
L 123.581447 287.539984 
L 123.695022 288.617154 
L 123.828389 288.617154 
L 123.942036 288.746322 
L 124.075394 288.746322 
L 124.189077 288.928433 
L 124.322782 288.928433 
L 124.43685 289.065817 
L 124.570833 289.065817 
L 124.685061 289.390646 
L 124.819264 289.390646 
L 124.933675 290.076226 
L 125.068073 290.076226 
L 125.182639 290.2771 
L 125.566654 290.283807 
L 125.681528 291.025872 
L 126.066559 291.116476 
L 126.181723 291.451764 
L 126.567809 291.439422 
L 126.683283 291.711352 
L 126.81891 291.711352 
L 126.934497 292.575795 
L 127.07029 292.575795 
L 127.18603 293.152535 
L 127.321944 293.152535 
L 127.437791 293.546593 
L 127.573896 293.546593 
L 127.689907 294.442512 
L 127.826122 294.442512 
L 127.942213 294.763091 
L 128.07858 294.763091 
L 128.189747 295.488 
L 128.331352 295.488 
L 128.442733 295.125986 
L 128.584587 295.125986 
L 128.6961 294.43259 
L 128.838101 294.43259 
L 128.949751 294.242885 
L 129.091948 294.242885 
L 129.20371 293.06915 
L 129.346066 293.06915 
L 129.457998 292.554301 
L 129.600557 292.554301 
L 129.712681 291.462939 
L 129.8555 291.462939 
L 129.967785 290.842714 
L 130.621988 290.786201 
L 130.73463 290.542228 
L 130.878094 290.542228 
L 130.990913 290.983275 
L 131.134622 290.983275 
L 131.247629 291.690161 
L 131.391546 291.690161 
L 131.504651 292.296049 
L 131.905798 292.297079 
L 132.019057 291.473405 
L 132.163308 291.473405 
L 132.276756 291.705229 
L 132.421286 291.705229 
L 132.534945 292.33378 
L 132.679666 292.33378 
L 132.793425 291.24507 
L 132.938258 291.24507 
L 133.052062 290.628249 
L 133.196937 290.628249 
L 133.310783 290.130958 
L 133.714961 290.144238 
L 133.829299 290.732525 
L 134.234931 290.782556 
L 134.349397 291.079203 
L 134.495177 291.079203 
L 134.609776 291.960099 
L 134.755775 291.960099 
L 134.870625 292.705683 
L 135.27842 292.628806 
L 135.393531 292.91241 
L 135.802025 293.016206 
L 135.917397 292.790061 
L 136.064217 292.790061 
L 136.179511 292.603019 
L 136.326352 292.603019 
L 136.441895 292.89882 
L 136.852268 292.950119 
L 136.968089 293.530792 
L 137.115595 293.530792 
L 137.2316 294.312101 
L 137.908089 294.25697 
L 138.019254 294.032541 
L 138.17283 294.032541 
L 138.284074 293.028515 
L 138.703102 292.946894 
L 138.814726 292.77229 
L 138.968997 292.77229 
L 139.080719 292.381033 
L 139.23498 292.381033 
L 139.346702 292.560952 
L 139.501053 292.560952 
L 139.612873 293.139562 
L 139.767364 293.139562 
L 139.879316 293.761266 
L 140.033999 293.761266 
L 140.146052 293.887307 
L 140.567986 293.923645 
L 140.680244 293.328654 
L 140.835293 293.328654 
L 140.947618 293.5243 
L 141.102809 293.5243 
L 141.215237 293.232256 
L 141.370544 293.232256 
L 141.483043 292.963579 
L 141.906614 292.896916 
L 142.019322 293.519227 
L 142.175003 293.519227 
L 142.287771 293.822131 
L 142.443567 293.822131 
L 142.556422 294.135143 
L 142.981366 294.233155 
L 143.094449 294.393273 
L 143.2507 294.393273 
L 143.363907 293.918346 
L 143.520274 293.918346 
L 143.63356 293.504864 
L 144.060111 293.526564 
L 144.173542 293.967208 
L 144.330243 293.967208 
L 144.443737 293.392019 
L 144.600505 293.392019 
L 144.714057 292.798648 
L 145.141575 292.736214 
L 145.255343 292.615103 
L 145.412488 292.615103 
L 145.526308 292.039713 
L 145.683581 292.039713 
L 145.797567 291.549673 
L 146.226908 291.621877 
L 146.341134 290.446307 
L 146.498923 290.446307 
L 146.613241 289.954331 
L 146.771138 289.954331 
L 146.885478 289.08831 
L 147.043385 289.08831 
L 147.157745 288.5587 
L 147.588066 288.505947 
L 147.702581 288.115177 
L 147.860815 288.115177 
L 147.975468 287.786245 
L 148.133894 287.786245 
L 148.248645 287.633761 
L 148.407147 287.633761 
L 148.521962 286.900352 
L 148.680652 286.900352 
L 148.795659 286.442784 
L 148.954549 286.442784 
L 149.069628 286.131509 
L 149.228533 286.131509 
L 149.343597 286.464255 
L 149.502487 286.464255 
L 149.617565 286.713039 
L 150.051199 286.774734 
L 150.166563 286.114487 
L 150.325856 286.114487 
L 150.441147 285.525949 
L 150.600293 285.525949 
L 150.715533 285.34118 
L 151.149708 285.452284 
L 151.265344 285.596854 
L 151.425204 285.596854 
L 151.541085 285.993122 
L 151.701194 285.993122 
L 151.817161 285.837192 
L 151.977277 285.837192 
L 152.093162 286.134044 
L 152.253061 286.134044 
L 152.368746 286.352943 
L 152.528456 286.352943 
L 152.644147 286.063375 
L 152.804007 286.063375 
L 152.91982 285.373996 
L 153.079839 285.373996 
L 153.195825 284.895888 
L 153.356206 284.895888 
L 153.472518 285.046259 
L 153.633413 285.046259 
L 153.744537 283.725977 
L 154.188863 283.728895 
L 154.305223 283.424032 
L 154.465789 283.424032 
L 154.582057 282.825585 
L 154.742664 282.825585 
L 154.858994 282.381682 
L 155.019712 282.381682 
L 155.136181 281.914796 
L 155.297173 281.914796 
L 155.408349 281.609222 
L 155.575408 281.609222 
L 155.686973 281.326297 
L 155.854507 281.326297 
L 155.966226 281.113467 
L 156.133743 281.113467 
L 156.245377 280.625177 
L 156.412796 280.625177 
L 156.524403 280.235046 
L 156.691829 280.235046 
L 156.803444 280.017117 
L 156.970832 280.017117 
L 157.082418 280.185516 
L 157.249867 280.185516 
L 157.361581 279.849372 
L 157.52928 279.849372 
L 157.641166 279.631164 
L 157.809096 279.631164 
L 157.921157 279.519278 
L 158.089491 279.519278 
L 158.201858 279.400115 
L 158.370589 279.400115 
L 158.483221 278.634628 
L 158.652329 278.634628 
L 158.7651 277.655113 
L 158.934212 277.655113 
L 159.046818 276.954743 
L 159.215409 276.954743 
L 159.327626 276.557942 
L 159.495776 276.557942 
L 159.607826 275.700593 
L 159.775914 275.700593 
L 159.88804 275.220262 
L 160.056425 275.220262 
L 160.168811 274.898471 
L 160.337544 274.898471 
L 160.45013 275.468832 
L 160.619154 275.468832 
L 160.731924 275.814611 
L 160.901219 275.814611 
L 161.014162 275.674412 
L 161.183694 275.674412 
L 161.296822 275.321696 
L 161.466686 275.321696 
L 161.580022 275.76566 
L 162.033592 275.736524 
L 162.146898 275.345629 
L 162.3168 275.345629 
L 162.43002 274.68404 
L 162.599746 274.68404 
L 162.712859 274.145619 
L 162.882582 274.145619 
L 162.995819 273.626448 
L 163.16586 273.626448 
L 163.279358 272.695881 
L 163.449881 272.695881 
L 163.563782 271.682589 
L 163.73496 271.682589 
L 163.849262 270.888142 
L 164.020854 270.888142 
L 164.135243 269.799275 
L 164.306696 269.799275 
L 164.420926 268.959922 
L 164.592161 268.959922 
L 164.706201 268.019131 
L 164.876999 268.019131 
L 164.990693 267.212273 
L 165.161088 267.212273 
L 165.274658 265.95833 
L 165.445032 265.95833 
L 165.55862 265.162861 
L 165.729035 265.162861 
L 165.842688 263.666468 
L 166.013268 263.666468 
L 166.127074 262.224157 
L 166.297893 262.224157 
L 166.411871 260.823737 
L 166.583085 260.823737 
L 166.697442 259.746498 
L 166.869307 259.746498 
L 166.984108 259.236398 
L 167.444079 259.1548 
L 167.559218 259.851723 
L 167.732073 259.851723 
L 167.847389 261.308868 
L 168.020497 261.308868 
L 168.135997 263.866045 
L 168.309317 263.866045 
L 168.424846 266.353142 
L 168.597948 266.353142 
L 168.713088 268.685737 
L 168.8853 268.685737 
L 168.999815 271.352447 
L 169.171333 271.352447 
L 169.285627 272.727141 
L 169.457097 272.727141 
L 169.571456 274.303581 
L 169.743062 274.303581 
L 169.857501 275.241266 
L 170.029196 275.241266 
L 170.143663 276.428386 
L 170.31535 276.428386 
L 170.429785 276.115251 
L 170.601382 276.115251 
L 170.715736 275.578963 
L 170.887182 275.578963 
L 171.001443 274.554998 
L 171.172842 274.554998 
L 171.287143 273.385611 
L 171.45871 273.385611 
L 171.573168 272.57052 
L 171.744966 272.57052 
L 171.859586 271.767687 
L 172.031697 271.767687 
L 172.146564 271.516055 
L 172.319025 271.516055 
L 172.434125 270.622834 
L 172.606978 270.622834 
L 172.722347 269.561046 
L 172.895594 269.561046 
L 173.011196 268.748847 
L 173.184696 268.748847 
L 173.300409 267.799672 
L 173.473908 267.799672 
L 173.589491 268.113792 
L 173.762809 268.113792 
L 173.878369 269.063148 
L 174.051794 269.063148 
L 174.167478 269.899152 
L 174.630675 269.827127 
L 174.746731 269.231396 
L 174.921134 269.231396 
L 175.037625 268.785521 
L 175.212613 268.785521 
L 175.329393 268.651418 
L 175.504603 268.651418 
L 175.621361 269.445628 
L 175.796453 269.445628 
L 175.913201 270.622828 
L 176.088376 270.622828 
L 176.205235 271.681784 
L 176.380631 271.681784 
L 176.497581 272.50461 
L 176.673009 272.50461 
L 176.789954 273.434853 
L 176.965196 273.434853 
L 177.081701 274.356937 
L 177.255965 274.356937 
L 177.371909 275.00285 
L 177.545975 275.00285 
L 177.662351 276.022472 
L 177.837543 276.022472 
L 177.948858 276.160186 
L 178.130895 276.160186 
L 178.242647 276.51181 
L 178.425035 276.51181 
L 178.536756 277.571067 
L 178.718665 277.571067 
L 178.835506 279.074869 
L 179.010091 279.074869 
L 179.126224 280.126263 
L 179.30046 280.126263 
L 179.416841 279.505919 
L 179.591924 279.505919 
L 179.703089 277.823521 
L 179.88434 277.823521 
L 180.000026 274.385637 
L 180.171225 274.385637 
L 180.284182 269.870032 
L 180.452625 269.870032 
L 180.565084 267.065873 
L 180.73488 267.065873 
L 180.849152 266.150743 
L 181.314713 266.079652 
L 181.425905 266.874904 
L 181.607737 266.874904 
L 181.719488 267.399794 
L 181.902308 267.399794 
L 182.014675 266.903876 
L 182.197744 266.903876 
L 182.30981 265.728523 
L 182.4928 265.728523 
L 182.605336 265.229908 
L 182.789596 265.229908 
L 182.902436 264.805279 
L 183.086208 264.805279 
L 183.198598 265.45225 
L 183.381434 265.45225 
L 183.493091 266.307067 
L 183.67473 266.307067 
L 183.785879 266.571935 
L 184.261862 266.577497 
L 184.374342 265.858491 
L 184.558556 265.858491 
L 184.67183 263.956128 
L 184.857172 263.956128 
L 184.970996 264.273073 
L 185.156801 264.273073 
L 185.270617 264.02196 
L 185.754216 264.088478 
L 185.866979 263.713966 
L 186.050228 263.713966 
L 186.162138 263.222402 
L 186.639191 263.245687 
L 186.751846 263.098493 
L 186.936469 263.098493 
L 187.050031 263.210793 
L 187.235611 263.210793 
L 187.349381 262.256029 
L 187.833582 262.277791 
L 187.946759 262.465727 
L 188.13084 262.465727 
L 188.243459 262.309839 
L 188.427318 262.309839 
L 188.540295 261.977019 
L 188.725329 261.977019 
L 188.839122 261.83476 
L 189.025065 261.83476 
L 189.139066 261.720313 
L 189.324936 261.720313 
L 189.438761 260.588023 
L 189.624357 260.588023 
L 189.73795 260.900967 
L 190.22147 260.806518 
L 190.335226 261.136799 
L 190.821393 261.071389 
L 190.935359 260.308463 
L 191.121352 260.308463 
L 191.235343 259.94256 
L 191.721489 260.01062 
L 191.835825 259.051196 
L 192.022547 259.051196 
L 192.137017 258.354552 
L 192.323749 258.354552 
L 192.438225 258.102447 
L 192.624984 258.102447 
L 192.739505 256.927392 
L 192.926503 256.927392 
L 193.041212 256.572648 
L 193.22844 256.572648 
L 193.343226 256.237664 
L 193.530387 256.237664 
L 193.645044 255.971771 
L 193.832006 255.971771 
L 193.946614 254.854617 
L 194.133645 254.854617 
L 194.248336 254.233109 
L 194.435577 254.233109 
L 194.550354 254.044131 
L 194.737543 254.044131 
L 194.852279 252.987391 
L 195.341764 253.021947 
L 195.456749 252.441172 
L 195.644451 252.441172 
L 195.759496 251.372398 
L 195.947247 251.372398 
L 196.062316 250.91996 
L 196.249956 250.91996 
L 196.364966 250.220764 
L 196.552613 250.220764 
L 196.667601 249.56074 
L 196.855127 249.56074 
L 196.970013 248.640213 
L 197.157333 248.640213 
L 197.272096 248.017525 
L 197.459366 248.017525 
L 197.57413 247.704701 
L 197.761426 247.704701 
L 197.876257 247.131847 
L 198.063599 247.131847 
L 198.178419 246.667178 
L 198.668251 246.628494 
L 198.783256 246.002983 
L 198.970828 246.002983 
L 199.085811 244.982317 
L 199.877845 244.999868 
L 199.992724 245.349397 
L 200.180169 245.349397 
L 200.295051 244.849912 
L 200.482656 244.849912 
L 200.597641 243.916061 
L 200.78534 243.916061 
L 200.900477 243.010264 
L 201.088274 243.010264 
L 201.203374 242.597854 
L 201.693984 242.70889 
L 201.80901 242.187757 
L 201.996719 242.187757 
L 202.111879 241.988696 
L 202.2998 241.988696 
L 202.415026 240.757514 
L 202.907097 240.806949 
L 203.022674 240.404591 
L 203.211349 240.404591 
L 203.327049 240.107859 
L 203.515724 240.107859 
L 203.631422 239.837015 
L 203.820223 239.837015 
L 203.93592 239.116246 
L 204.124681 239.116246 
L 204.240318 238.504206 
L 204.429136 238.504206 
L 204.544879 238.160509 
L 204.733709 238.160509 
L 204.849575 237.203339 
L 205.343766 237.13617 
L 205.459734 236.791599 
L 205.648995 236.791599 
L 205.764943 236.078746 
L 205.954185 236.078746 
L 206.070203 234.949533 
L 206.259516 234.949533 
L 206.375503 234.051698 
L 206.564789 234.051698 
L 206.680872 233.713095 
L 206.87025 233.713095 
L 206.986338 233.592703 
L 207.175863 233.592703 
L 207.292014 234.582339 
L 207.481493 234.582339 
L 207.597622 233.092166 
L 207.787128 233.092166 
L 207.903253 232.730864 
L 208.092715 232.730864 
L 208.208877 231.231962 
L 208.398412 231.231962 
L 208.514553 230.80344 
L 209.315956 230.82681 
L 209.432277 230.138594 
L 209.62203 230.138594 
L 209.738351 229.59705 
L 209.927979 229.59705 
L 210.044109 228.724425 
L 210.233635 228.724425 
L 210.349841 227.68767 
L 210.53935 227.68767 
L 210.655538 227.3767 
L 210.845288 227.3767 
L 210.961639 226.769217 
L 211.151617 226.769217 
L 211.26816 226.298084 
L 211.458299 226.298084 
L 211.574775 225.664223 
L 211.764817 225.664223 
L 211.881244 225.361069 
L 212.376792 225.408474 
L 212.492952 224.124693 
L 212.68256 224.124693 
L 212.798883 223.338326 
L 212.988748 223.338326 
L 213.105169 222.368612 
L 213.295371 222.368612 
L 213.411976 221.763476 
L 213.602208 221.763476 
L 213.71887 221.8777 
L 214.215828 221.833618 
L 214.332167 220.891587 
L 214.521808 220.891587 
L 214.638088 218.91355 
L 214.827941 218.91355 
L 214.944359 217.389208 
L 215.134564 217.389208 
L 215.251329 216.872977 
L 215.442102 216.872977 
L 215.559207 217.201291 
L 216.059439 217.091988 
L 216.176625 215.815492 
L 216.36744 215.815492 
L 216.484322 214.736312 
L 216.675155 214.736312 
L 216.792085 213.739765 
L 216.98293 213.739765 
L 217.10003 213.479275 
L 217.291372 213.479275 
L 217.40281 213.361378 
L 217.601423 213.361378 
L 217.713271 212.475333 
L 217.912156 212.475333 
L 218.024027 211.582548 
L 218.222721 211.582548 
L 218.334263 210.542441 
L 218.532259 210.542441 
L 218.649598 210.370178 
L 218.840907 210.370178 
L 218.952038 209.780522 
L 219.149685 209.780522 
L 219.261049 208.43439 
L 219.459481 208.43439 
L 219.571343 206.872535 
L 219.770509 206.872535 
L 219.882692 205.652742 
L 220.082245 205.652742 
L 220.194454 205.442848 
L 220.393913 205.442848 
L 220.505993 205.202763 
L 220.704954 205.202763 
L 220.816689 203.936635 
L 221.015193 203.936635 
L 221.126796 202.082078 
L 221.325366 202.082078 
L 221.437231 200.609302 
L 221.636518 200.609302 
L 221.748856 200.33205 
L 222.262228 200.295774 
L 222.37504 199.354159 
L 222.575394 199.354159 
L 222.687921 197.887231 
L 222.887657 197.887231 
L 222.999921 196.698195 
L 223.199544 196.698195 
L 223.31198 196.21079 
L 223.512091 196.21079 
L 223.624853 195.896485 
L 223.825625 195.896485 
L 223.938668 194.635861 
L 224.139767 194.635861 
L 224.252931 193.1275 
L 224.453918 193.1275 
L 224.566792 191.91883 
L 224.767337 191.91883 
L 224.880141 191.699404 
L 225.080791 191.699404 
L 225.193674 191.48204 
L 225.394274 191.48204 
L 225.507151 190.449651 
L 225.708031 190.449651 
L 225.821097 188.640864 
L 226.022082 188.640864 
L 226.135094 186.959057 
L 226.335777 186.959057 
L 226.448651 186.339991 
L 226.649396 186.339991 
L 226.762339 186.168065 
L 226.963163 186.168065 
L 227.076146 185.123227 
L 227.277069 185.123227 
L 227.390111 183.687082 
L 227.591043 183.687082 
L 227.704074 182.051952 
L 227.905198 182.051952 
L 228.01861 181.414988 
L 228.220097 181.414988 
L 228.333372 181.290784 
L 228.534762 181.290784 
L 228.648098 180.456729 
L 228.849671 180.456729 
L 228.963058 178.879822 
L 229.164663 178.879822 
L 229.27813 177.240931 
L 229.480053 177.240931 
L 229.593744 176.518702 
L 229.795991 176.518702 
L 229.909724 176.231572 
L 230.111758 176.231572 
L 230.225345 175.447193 
L 230.427167 175.447193 
L 230.540679 174.067245 
L 230.742549 174.067245 
L 230.856192 172.442378 
L 231.058474 172.442378 
L 231.1724 171.647819 
L 231.375092 171.647819 
L 231.489158 171.309364 
L 231.692021 171.309364 
L 231.806138 170.312407 
L 232.008914 170.312407 
L 232.122872 168.762799 
L 232.325389 168.762799 
L 232.439353 167.364367 
L 232.64215 167.364367 
L 232.756305 166.570714 
L 232.959304 166.570714 
L 233.073497 165.834487 
L 233.27652 165.834487 
L 233.390754 164.873829 
L 233.59391 164.873829 
L 233.708246 163.594678 
L 233.911711 163.594678 
L 234.026281 161.79196 
L 234.23002 161.79196 
L 234.344574 160.40189 
L 234.548135 160.40189 
L 234.662611 159.98423 
L 234.866081 159.98423 
L 234.980494 159.297827 
L 235.183836 159.297827 
L 235.298283 157.566685 
L 235.502086 157.566685 
L 235.616923 155.832533 
L 235.821226 155.832533 
L 235.93613 154.867586 
L 236.140397 154.867586 
L 236.255328 154.205294 
L 236.459655 154.205294 
L 236.574593 153.081793 
L 236.778775 153.081793 
L 236.893628 151.809512 
L 237.098024 151.809512 
L 237.213104 150.865414 
L 237.417669 150.865414 
L 237.53264 149.899796 
L 237.736745 149.899796 
L 237.851454 148.74327 
L 238.055454 148.74327 
L 238.170275 147.2196 
L 238.37447 147.2196 
L 238.489412 145.489102 
L 238.693987 145.489102 
L 238.809118 143.767906 
L 239.01364 143.767906 
L 239.12854 142.15642 
L 239.332498 142.15642 
L 239.447105 141.248982 
L 239.969728 141.309071 
L 240.084584 142.257797 
L 240.288954 142.257797 
L 240.403985 143.310676 
L 240.608403 143.310676 
L 240.723235 142.399289 
L 240.927021 142.399289 
L 241.041586 139.603295 
L 241.245389 139.603295 
L 241.360158 136.178822 
L 241.564386 136.178822 
L 241.679371 133.258855 
L 241.883952 133.258855 
L 241.999079 131.169679 
L 242.203666 131.169679 
L 242.318557 129.917141 
L 242.522209 129.917141 
L 242.636447 129.660428 
L 242.839327 129.660428 
L 242.953563 129.926101 
L 243.157137 129.926101 
L 243.271953 130.628411 
L 243.476545 130.628411 
L 243.59193 131.128098 
L 244.118857 131.195407 
L 244.234078 129.800406 
L 244.438282 129.800406 
L 244.552861 127.515945 
L 244.756433 127.515945 
L 244.87109 125.864583 
L 245.075427 125.864583 
L 245.190648 124.733355 
L 245.395871 124.733355 
L 245.511449 124.398629 
L 245.717041 124.398629 
L 245.832622 123.347178 
L 246.037819 123.347178 
L 246.153001 120.58356 
L 246.35733 120.58356 
L 246.472132 116.939458 
L 246.676288 116.939458 
L 246.791215 113.928332 
L 246.996766 113.928332 
L 247.112386 113.659724 
L 247.317844 113.659724 
L 247.433355 115.547193 
L 247.638643 115.547193 
L 247.75417 118.589075 
L 247.959703 118.589075 
L 248.075363 118.367707 
L 248.280959 118.367707 
L 248.396649 116.322092 
L 248.602655 116.322092 
L 248.718682 113.342768 
L 248.924833 113.342768 
L 249.040584 110.240594 
L 249.246473 110.240594 
L 249.362239 109.850152 
L 249.568007 109.850152 
L 249.683666 110.622154 
L 249.889214 110.622154 
L 250.004894 111.487172 
L 250.210696 111.487172 
L 250.326493 109.852543 
L 250.532214 109.852543 
L 250.647932 108.285302 
L 250.853869 108.285302 
L 250.969732 105.920095 
L 251.175528 105.920095 
L 251.291254 103.541044 
L 251.81897 103.605312 
L 251.934791 104.668783 
L 252.140726 104.668783 
L 252.256584 104.437109 
L 252.462641 104.437109 
L 252.57861 102.89488 
L 252.784737 102.89488 
L 252.900631 101.515006 
L 253.106707 101.515006 
L 253.222647 99.961322 
L 253.428713 99.961322 
L 253.544645 99.409685 
L 253.750869 99.409685 
L 253.866901 98.973061 
L 254.073219 98.973061 
L 254.189332 98.134761 
L 254.39583 98.134761 
L 254.511994 97.163653 
L 254.718548 97.163653 
L 254.834759 95.45319 
L 255.041298 95.45319 
L 255.157423 94.542785 
L 255.686177 94.499571 
L 255.802247 94.375555 
L 256.008715 94.375555 
L 256.124901 93.499851 
L 256.331621 93.499851 
L 256.447972 91.591482 
L 256.654815 91.591482 
L 256.771112 90.005447 
L 256.97786 90.005447 
L 257.094158 89.879881 
L 257.300881 89.879881 
L 257.417132 89.617175 
L 257.623809 89.617175 
L 257.740067 88.30254 
L 257.946728 88.30254 
L 258.06301 87.454609 
L 258.269854 87.454609 
L 258.386222 86.180187 
L 258.593098 86.180187 
L 258.709462 84.851602 
L 259.56262 84.914339 
L 259.678998 84.034604 
L 259.885977 84.034604 
L 260.002423 82.589848 
L 260.20957 82.589848 
L 260.326169 81.449356 
L 260.533462 81.449356 
L 260.650008 81.000138 
L 260.857195 81.000138 
L 260.973733 81.15122 
L 261.180871 81.15122 
L 261.297374 80.800104 
L 261.504502 80.800104 
L 261.620986 80.279212 
L 261.828051 80.279212 
L 261.94458 78.658303 
L 262.151798 78.658303 
L 262.26836 77.507969 
L 262.475615 77.507969 
L 262.592176 77.224298 
L 262.799285 77.224298 
L 262.915758 77.013273 
L 263.122873 77.013273 
L 263.239371 76.715887 
L 263.446467 76.715887 
L 263.563015 75.596829 
L 263.770324 75.596829 
L 263.886964 74.393011 
L 264.094508 74.393011 
L 264.211329 73.783256 
L 264.743432 73.805734 
L 264.860237 73.198432 
L 265.067854 73.198432 
L 265.184643 72.421229 
L 265.392324 72.421229 
L 265.509153 71.582089 
L 265.716962 71.582089 
L 265.833922 70.488604 
L 266.04188 70.488604 
L 266.158825 71.058609 
L 266.366725 71.058609 
L 266.483691 70.910978 
L 266.691642 70.910978 
L 266.808644 70.228371 
L 267.016696 70.228371 
L 267.133746 69.516229 
L 267.341826 69.516229 
L 267.458924 68.475453 
L 267.667171 68.475453 
L 267.784309 67.87282 
L 267.992644 67.87282 
L 268.109813 68.114581 
L 268.318084 68.114581 
L 268.435242 67.94125 
L 268.643559 67.94125 
L 268.760771 67.386526 
L 268.96914 67.386526 
L 269.086381 66.15773 
L 269.294818 66.15773 
L 269.41208 65.383269 
L 269.620561 65.383269 
L 269.73785 65.217742 
L 269.946367 65.217742 
L 270.063628 64.615653 
L 270.272064 64.615653 
L 270.389321 64.497184 
L 270.597701 64.497184 
L 270.714926 63.905148 
L 271.249218 63.893755 
L 271.366566 63.57283 
L 271.575267 63.57283 
L 271.692672 64.33127 
L 271.901385 64.33127 
L 272.018825 63.288986 
L 272.553959 63.376465 
L 272.671495 61.759838 
L 272.880403 61.759838 
L 272.997997 61.231402 
L 273.533904 61.218282 
L 273.651551 60.945796 
L 273.860697 60.945796 
L 273.978327 60.641517 
L 274.187454 60.641517 
L 274.298576 59.788137 
L 275.167957 59.678348 
L 275.279194 60.058389 
L 275.495103 60.058389 
L 275.606274 59.36838 
L 276.14929 59.383925 
L 276.260591 58.719155 
L 276.476697 58.719155 
L 276.58798 59.289691 
L 276.804071 59.289691 
L 276.915496 59.839478 
L 277.459561 59.760643 
L 277.577588 59.684278 
L 277.787352 59.684278 
L 277.898766 58.607122 
L 278.44308 58.707842 
L 278.554642 58.150872 
L 279.099408 58.10286 
L 279.211022 57.929738 
L 279.427599 57.929738 
L 279.539187 57.455805 
L 279.755936 57.455805 
L 279.86761 57.63577 
L 280.084321 57.63577 
L 280.196014 57.366785 
L 280.412885 57.366785 
L 280.524608 57.76415 
L 280.741519 57.76415 
L 280.853305 58.247158 
L 281.070284 58.247158 
L 281.182039 57.846584 
L 281.7278 57.953023 
L 281.839622 57.550866 
L 282.056801 57.550866 
L 282.168718 57.857278 
L 282.715411 57.851467 
L 282.827386 57.415474 
L 283.044807 57.415474 
L 283.15683 57.066583 
L 283.374307 57.066583 
L 283.486349 56.304624 
L 283.70383 56.304624 
L 283.815894 56.111459 
L 284.033392 56.111459 
L 284.145444 56.55894 
L 284.363078 56.55894 
L 284.475216 56.78733 
L 285.022593 56.806697 
L 285.134728 56.582202 
L 285.352351 56.582202 
L 285.464506 56.055679 
L 285.682265 56.055679 
L 285.794427 56.51547 
L 286.342336 56.583638 
L 286.454595 56.393263 
L 286.672525 56.393263 
L 286.784833 56.728879 
L 287.002776 56.728879 
L 287.115064 56.518007 
L 287.333061 56.518007 
L 287.445377 56.653541 
L 287.66339 56.653541 
L 287.775668 57.001142 
L 287.993786 57.001142 
L 288.106177 58.065372 
L 288.324362 58.065372 
L 288.436782 57.814295 
L 288.654972 57.814295 
L 288.767393 57.69638 
L 288.985542 57.69638 
L 289.097951 57.188648 
L 289.316226 57.188648 
L 289.428639 56.481509 
L 289.646903 56.481509 
L 289.759376 56.930493 
L 290.308811 56.881997 
L 290.42138 57.491966 
L 290.639896 57.491966 
L 290.752451 57.805099 
L 290.970967 57.805099 
L 291.08352 57.464648 
L 291.302 57.464648 
L 291.414551 56.995452 
L 291.96429 57.018596 
L 292.076865 56.394127 
L 292.295512 56.394127 
L 292.408201 57.334762 
L 292.627078 57.334762 
L 292.739824 56.929897 
L 293.289736 57.028852 
L 293.402374 57.169448 
L 293.953067 57.280317 
L 294.065832 56.074366 
L 294.284718 56.074366 
L 294.397524 56.449482 
L 294.616653 56.449482 
L 294.729557 56.287874 
L 294.948744 56.287874 
L 295.061609 56.535504 
L 295.612529 56.559078 
L 295.725453 57.527327 
L 295.944717 57.527327 
L 296.057637 57.084564 
L 296.276785 57.084564 
L 296.389697 57.429336 
L 296.608886 57.429336 
L 296.721821 56.790033 
L 297.273096 56.740517 
L 297.385988 56.575255 
L 297.605071 56.575255 
L 297.717961 56.878959 
L 298.269445 56.834932 
L 298.382375 57.156178 
L 298.933712 57.250954 
L 299.046694 56.315682 
L 299.598444 56.399821 
L 299.711452 55.677181 
L 300.263477 55.700542 
L 300.376602 55.531131 
L 300.596192 55.531131 
L 300.709334 55.320754 
L 300.928956 55.320754 
L 301.042089 55.728963 
L 301.261698 55.728963 
L 301.374869 55.050318 
L 301.594538 55.050318 
L 301.707695 54.772667 
L 301.927439 54.772667 
L 302.040638 54.155741 
L 302.260376 54.155741 
L 302.373604 54.286205 
L 302.593412 54.286205 
L 302.706626 53.881476 
L 302.926376 53.881476 
L 303.039629 53.595115 
L 303.259491 53.595115 
L 303.372751 54.098767 
L 303.59263 54.098767 
L 303.705899 53.680681 
L 303.925756 53.680681 
L 304.039004 53.568 
L 304.591834 53.621469 
L 304.705068 53.803113 
L 305.258286 53.805068 
L 305.371637 54.313753 
L 305.591661 54.313753 
L 305.704939 54.137285 
L 305.924815 54.137285 
L 306.038091 55.128778 
L 306.257995 55.128778 
L 306.371277 55.266382 
L 306.924565 55.368423 
L 307.037903 55.567949 
L 307.257938 55.567949 
L 307.371325 57.025064 
L 307.591491 57.025064 
L 307.704949 57.347641 
L 307.925269 57.347641 
L 308.038791 57.793724 
L 308.259165 57.793724 
L 308.372664 57.63099 
L 308.592943 57.63099 
L 308.70641 58.361557 
L 308.926699 58.361557 
L 309.040171 58.794503 
L 309.260368 58.794503 
L 309.373789 59.544534 
L 309.593933 59.544534 
L 309.707289 60.077419 
L 309.927322 60.077419 
L 310.040674 60.350468 
L 310.260707 60.350468 
L 310.374077 60.540631 
L 310.594155 60.540631 
L 310.707543 60.950613 
L 310.927713 60.950613 
L 311.041187 61.170704 
L 311.261572 61.170704 
L 311.375145 61.885259 
L 312.262589 61.939368 
L 312.375926 61.763797 
L 312.596031 61.763797 
L 312.709528 62.352908 
L 312.930032 62.352908 
L 313.043652 63.32765 
L 313.263949 63.32765 
L 313.3773 63.505009 
L 313.597171 63.505009 
L 313.71042 63.362967 
L 313.930367 63.362967 
L 314.043752 63.50759 
L 314.598093 63.432305 
L 314.711677 64.177424 
L 315.265127 64.254452 
L 315.37835 64.878756 
L 315.598129 64.878756 
L 315.711362 65.707998 
L 315.93121 65.707998 
L 316.044516 65.263542 
L 316.264659 65.263542 
L 316.378231 65.698038 
L 316.598944 65.698038 
L 316.712653 65.536897 
L 316.933088 65.536897 
L 317.046456 65.371326 
L 317.266189 65.371326 
L 317.37931 65.671004 
L 317.598891 65.671004 
L 317.711989 66.083921 
L 317.931604 66.083921 
L 318.044834 66.332329 
L 318.5993 66.350109 
L 318.713021 66.792806 
L 318.933647 66.792806 
L 319.047203 67.496816 
L 319.267519 67.496816 
L 319.38097 67.980006 
L 319.601071 67.980006 
L 319.714421 67.83077 
L 319.934403 67.83077 
L 320.047731 67.943568 
L 320.26783 67.943568 
L 320.381265 67.559469 
L 320.935841 67.495431 
L 321.049368 67.751189 
L 321.268562 67.751189 
L 321.381722 68.690923 
L 321.602507 68.690923 
L 321.716167 69.482655 
L 321.936559 69.482655 
L 322.050018 70.499175 
L 322.270176 70.499175 
L 322.383569 71.19977 
L 322.603714 71.19977 
L 322.717155 70.744564 
L 322.937391 70.744564 
L 323.05087 70.019339 
L 323.271339 70.019339 
L 323.385032 70.385211 
L 323.605863 70.385211 
L 323.719721 71.839114 
L 323.941021 71.839114 
L 324.055076 73.174308 
L 324.276391 73.174308 
L 324.390298 73.760684 
L 324.611081 73.760684 
L 324.724607 74.672041 
L 324.944563 74.672041 
L 325.057684 74.911686 
L 325.277054 74.911686 
L 325.390035 75.236592 
L 325.942619 75.261961 
L 326.056057 75.071611 
L 326.276555 75.071611 
L 326.390313 74.733477 
L 326.611339 74.733477 
L 326.725268 73.906511 
L 326.946493 73.906511 
L 327.060477 73.520564 
L 327.281614 73.520564 
L 327.395316 73.226979 
L 327.948144 73.148701 
L 328.06112 72.514817 
L 328.280309 72.514817 
L 328.393195 71.989132 
L 328.612396 71.989132 
L 328.725407 71.303442 
L 328.945074 71.303442 
L 329.058454 71.529645 
L 329.278993 71.529645 
L 329.392831 71.978832 
L 329.614077 71.978832 
L 329.7281 72.981518 
L 329.949328 72.981518 
L 330.063025 74.318599 
L 330.282968 74.318599 
L 330.396031 75.363596 
L 330.615456 75.363596 
L 330.728605 77.002791 
L 330.948652 77.002791 
L 331.062169 78.956585 
L 331.282647 78.956585 
L 331.396248 81.076777 
L 331.616736 81.076777 
L 331.730291 83.299202 
L 331.950681 83.299202 
L 332.064219 85.197077 
L 332.284698 85.197077 
L 332.398331 86.689614 
L 332.617594 86.689614 
L 332.730466 87.826383 
L 333.285884 87.787805 
L 333.399807 87.410246 
L 333.620753 87.410246 
L 333.734379 86.300586 
L 333.954511 86.300586 
L 334.067704 84.833512 
L 334.287197 84.833512 
L 334.400228 83.095491 
L 334.619713 83.095491 
L 334.732877 81.454842 
L 334.95268 81.454842 
L 335.065931 79.462928 
L 335.285652 79.462928 
L 335.398717 77.433205 
L 335.617854 77.433205 
L 335.730451 76.166373 
L 335.948334 76.166373 
L 336.060329 75.395881 
L 336.277578 75.395881 
L 336.38942 75.682064 
L 336.606419 75.682064 
L 336.718177 75.844229 
L 336.935175 75.844229 
L 337.047112 76.664967 
L 337.264724 76.664967 
L 337.376952 78.414682 
L 337.595066 78.414682 
L 337.707578 80.068331 
L 337.926247 80.068331 
L 338.039006 81.63576 
L 338.258024 81.63576 
L 338.370855 83.099483 
L 338.589945 83.099483 
L 338.702909 84.795144 
L 338.922353 84.795144 
L 339.035469 86.500818 
L 339.255243 86.500818 
L 339.368579 87.801475 
L 339.588793 87.801475 
L 339.702367 88.847613 
L 339.923126 88.847613 
L 340.036985 89.84624 
L 340.258112 89.84624 
L 340.372034 90.675681 
L 340.593166 90.675681 
L 340.706906 91.090558 
L 340.92707 91.090558 
L 341.040234 91.433053 
L 341.259579 91.433053 
L 341.372463 91.570033 
L 341.591421 91.570033 
L 341.704149 90.558001 
L 341.922758 90.558001 
L 342.035217 89.270381 
L 342.25316 89.270381 
L 342.365199 87.24074 
L 342.582107 87.24074 
L 342.693533 84.344806 
L 342.909493 84.344806 
L 343.020722 82.040524 
L 343.236855 82.040524 
L 343.348303 80.879534 
L 343.564734 80.879534 
L 343.676298 79.775261 
L 343.892922 79.775261 
L 344.004619 79.153078 
L 344.221735 79.153078 
L 344.333699 79.036167 
L 344.551343 79.036167 
L 344.663628 79.449749 
L 344.881865 79.449749 
L 344.994442 80.819442 
L 345.213236 80.819442 
L 345.326045 81.859562 
L 345.545274 81.859562 
L 345.65836 83.571098 
L 345.878169 83.571098 
L 345.991543 85.245773 
L 346.211874 85.245773 
L 346.325475 86.486236 
L 346.546158 86.486236 
L 346.659884 87.635876 
L 346.880525 87.635876 
L 346.994103 88.458453 
L 347.547858 88.380143 
L 347.661317 87.318595 
L 347.88174 87.318595 
L 347.995426 85.621258 
L 348.216581 85.621258 
L 348.330827 84.72477 
L 348.553157 84.72477 
L 348.667826 83.813351 
L 348.890367 83.813351 
L 349.004895 83.080963 
L 349.227038 83.080963 
L 349.341334 83.811513 
L 349.562311 83.811513 
L 349.675602 86.696985 
L 349.892146 86.696985 
L 350.008434 90.117591 
L 350.214687 90.117591 
L 350.33145 92.024285 
L 350.541242 92.024285 
L 350.652918 91.797757 
L 350.869278 91.797757 
L 350.980542 92.112962 
L 351.196272 92.112962 
L 351.313911 91.929966 
L 351.523125 91.929966 
L 351.634375 92.216047 
L 351.850614 92.216047 
L 351.962171 92.340527 
L 352.179138 92.340527 
L 352.291147 91.295085 
L 352.50896 91.295085 
L 352.621264 91.121061 
L 352.839408 91.121061 
L 352.951922 90.575031 
L 353.502892 90.483032 
L 353.615722 89.691402 
L 354.165209 89.692392 
L 354.277886 90.228255 
L 354.496818 90.228255 
L 354.609657 91.163601 
L 354.828802 91.163601 
L 354.941739 92.128521 
L 355.161073 92.128521 
L 355.274139 93.552247 
L 355.493748 93.552247 
L 355.606897 94.330066 
L 355.826635 94.330066 
L 355.939834 94.745465 
L 356.159593 94.745465 
L 356.272906 94.99079 
L 356.492987 94.99079 
L 356.606439 96.294123 
L 356.826703 96.294123 
L 356.94016 96.869327 
L 357.160308 96.869327 
L 357.273755 98.187125 
L 357.494177 98.187125 
L 357.607764 97.988105 
L 357.828276 97.988105 
L 357.941845 98.398435 
L 358.494729 98.462198 
L 358.607535 98.725346 
L 358.826008 98.725346 
L 358.93829 99.058264 
L 359.155839 99.058264 
L 359.267732 99.174781 
L 359.484699 99.174781 
L 359.596312 99.705479 
L 359.812806 99.705479 
L 359.924252 100.648914 
L 360.140432 100.648914 
L 360.251784 100.419987 
L 360.79545 100.516463 
L 360.913328 100.595198 
L 361.12292 100.595198 
L 361.23428 100.061394 
L 361.450315 100.061394 
L 361.561632 101.55916 
L 361.777617 101.55916 
L 361.888778 101.850211 
L 362.431337 101.931716 
L 362.548972 102.324808 
L 362.757998 102.324808 
L 362.875622 103.333526 
L 363.084746 103.333526 
L 363.195891 104.912491 
L 363.411745 104.912491 
L 363.522912 106.084936 
L 363.738728 106.084936 
L 363.856344 105.948009 
L 364.065223 105.948009 
L 364.182649 106.417193 
L 364.391139 106.417193 
L 364.508397 106.973984 
L 364.716924 106.973984 
L 364.834236 108.190897 
L 365.043057 108.190897 
L 365.16059 108.699814 
L 365.369729 108.699814 
L 365.480888 109.196438 
L 365.696733 109.196438 
L 365.807914 109.422078 
L 366.02356 109.422078 
L 366.141183 110.123665 
L 366.35019 110.123665 
L 366.467723 110.662001 
L 366.676487 110.662001 
L 366.793912 111.654196 
L 367.002683 111.654196 
L 367.120079 111.912484 
L 367.328897 111.912484 
L 367.446358 112.05588 
L 367.655155 112.05588 
L 367.772586 111.853322 
L 367.981338 111.853322 
L 368.0987 112.265493 
L 368.307282 112.265493 
L 368.424668 113.369336 
L 368.633361 113.369336 
L 368.750661 113.787412 
L 369.284438 113.851934 
L 369.40153 113.952685 
L 369.609691 113.952685 
L 369.726715 113.301947 
L 369.934642 113.301947 
L 370.051586 114.788073 
L 370.259381 114.788073 
L 370.376137 115.268479 
L 370.583584 115.268479 
L 370.700287 116.609075 
L 370.907673 116.609075 
L 371.024289 116.982352 
L 371.23157 116.982352 
L 371.348127 116.734487 
L 371.55538 116.734487 
L 371.672039 117.663336 
L 371.879329 117.663336 
L 371.99584 118.20427 
L 372.202893 118.20427 
L 372.319247 119.405182 
L 372.525836 119.405182 
L 372.642026 120.271218 
L 372.848559 120.271218 
L 372.964646 120.803889 
L 373.17114 120.803889 
L 373.287396 121.142904 
L 373.494094 121.142904 
L 373.610378 122.262449 
L 373.817074 122.262449 
L 373.93321 122.47468 
L 374.139537 122.47468 
L 374.255542 122.626333 
L 374.461467 122.626333 
L 374.577163 123.059856 
L 374.782773 123.059856 
L 374.89836 124.108813 
L 375.103842 124.108813 
L 375.219499 125.199973 
L 375.425172 125.199973 
L 375.540888 126.196137 
L 375.746824 126.196137 
L 375.862699 126.651668 
L 376.068631 126.651668 
L 376.184498 126.349765 
L 376.390296 126.349765 
L 376.505911 126.99955 
L 376.711289 126.99955 
L 376.826685 128.423744 
L 377.031796 128.423744 
L 377.147231 130.190362 
L 377.352483 130.190362 
L 377.46803 131.762446 
L 377.995918 131.78461 
L 378.112091 132.075534 
L 378.318641 132.075534 
L 378.434721 132.853435 
L 378.640824 132.853435 
L 378.756506 134.131395 
L 378.961973 134.131395 
L 379.07748 135.528561 
L 379.282693 135.528561 
L 379.39819 136.089134 
L 379.603824 136.089134 
L 379.719783 136.331804 
L 379.926491 136.331804 
L 380.042949 137.180633 
L 380.250005 137.180633 
L 380.366434 138.097937 
L 380.573167 138.097937 
L 380.689147 138.903428 
L 380.894801 138.903428 
L 381.010195 139.121994 
L 381.21513 139.121994 
L 381.33041 139.661177 
L 381.535387 139.661177 
L 381.650858 141.055333 
L 381.856554 141.055333 
L 381.972492 142.552835 
L 382.178825 142.552835 
L 382.29504 143.640939 
L 382.824209 143.622556 
L 382.940138 144.054747 
L 383.145784 144.054747 
L 383.261227 145.468833 
L 383.466173 145.468833 
L 383.581402 147.313536 
L 383.786469 147.313536 
L 383.902 148.557559 
L 384.430354 148.555006 
L 384.546644 148.735509 
L 384.753388 148.735509 
L 384.869553 149.80556 
L 385.075637 149.80556 
L 385.191272 151.194375 
L 385.396437 151.194375 
L 385.511816 152.121763 
L 385.717155 152.121763 
L 385.832803 152.361986 
L 386.038648 152.361986 
L 386.154511 153.038751 
L 386.360611 153.038751 
L 386.476616 154.514024 
L 386.682818 154.514024 
L 386.798657 156.070287 
L 387.004251 156.070287 
L 387.119817 156.821923 
L 387.646243 156.737481 
L 387.761694 157.748321 
L 387.966982 157.748321 
L 388.082442 159.538814 
L 388.287547 159.538814 
L 388.402904 161.578086 
L 388.607942 161.578086 
L 388.723199 162.392011 
L 388.928097 162.392011 
L 389.043363 162.796856 
L 389.248264 162.796856 
L 389.363481 163.690161 
L 389.568231 163.690161 
L 389.683383 165.306118 
L 389.888046 165.306118 
L 390.003141 167.164687 
L 390.207783 167.164687 
L 390.322928 168.106001 
L 390.527488 168.106001 
L 390.642448 168.340783 
L 390.846726 168.340783 
L 390.961588 169.234079 
L 391.165756 169.234079 
L 391.280567 170.942957 
L 391.484648 170.942957 
L 391.599482 172.70891 
L 391.803783 172.70891 
L 391.918805 173.499984 
L 392.123401 173.499984 
L 392.238458 173.830586 
L 392.442802 173.830586 
L 392.557679 174.644195 
L 392.761883 174.644195 
L 392.876559 176.018566 
L 393.080531 176.018566 
L 393.195328 177.60933 
L 393.399639 177.60933 
L 393.514689 178.302492 
L 393.719302 178.302492 
L 393.834404 178.625107 
L 394.039027 178.625107 
L 394.154099 179.646117 
L 394.358506 179.646117 
L 394.473353 181.164685 
L 394.67743 181.164685 
L 394.792249 182.464913 
L 394.99646 182.464913 
L 395.111331 183.208993 
L 395.315539 183.208993 
L 395.430402 183.925518 
L 395.634577 183.925518 
L 395.749418 184.800322 
L 395.953569 184.800322 
L 396.068427 185.96043 
L 396.272688 185.96043 
L 396.387608 187.653618 
L 396.591794 187.653618 
L 396.70654 188.890138 
L 396.91035 188.890138 
L 397.024925 189.212503 
L 397.228975 189.212503 
L 397.343739 189.864821 
L 397.547624 189.864821 
L 397.662352 191.526203 
L 397.866574 191.526203 
L 397.98159 193.182636 
L 398.186102 193.182636 
L 398.301084 194.148754 
L 398.486279 194.148754 
L 398.486279 194.148754 
" style="fill:none;stroke:#000000;stroke-linecap:square;stroke-width:0.7;"/>
   </g>
   <g id="patch_3">
    <path d="M 57.6 307.584 
L 57.6 41.472 
" style="fill:none;stroke:#000000;stroke-linecap:square;stroke-linejoin:miter;stroke-width:0.8;"/>
   </g>
   <g id="patch_4">
    <path d="M 414.72 307.584 
L 414.72 41.472 
" style="fill:none;stroke:#000000;stroke-linecap:square;stroke-linejoin:miter;stroke-width:0.8;"/>
   </g>
   <g id="patch_5">
    <path d="M 57.6 307.584 
L 414.72 307.584 
" style="fill:none;stroke:#000000;stroke-linecap:square;stroke-linejoin:miter;stroke-width:0.8;"/>
   </g>
   <g id="patch_6">
    <path d="M 57.6 41.472 
L 414.72 41.472 
" style="fill:none;stroke:#000000;stroke-linecap:square;stroke-linejoin:miter;stroke-width:0.8;"/>
   </g>
  </g>
  <g id="axes_2">
   <g id="matplotlib.axis_3">
    <g id="xtick_6">
     <g id="line2d_22">
      <defs>
       <path d="M 0 0 
L 0 -3.5 
" id="ma26d4bfe42" style="stroke:#000000;stroke-width:0.8;"/>
      </defs>
      <g>
       <use style="stroke:#000000;stroke-width:0.8;" x="73.832727" xlink:href="#ma26d4bfe42" y="41.472"/>
      </g>
     </g>
     <g id="text_13">
      <!-- 0 -->
      <g transform="translate(70.651477 32.392313)scale(0.1 -0.1)">
       <use xlink:href="#DejaVuSans-48"/>
      </g>
     </g>
    </g>
    <g id="xtick_7">
     <g id="line2d_23">
      <g>
       <use style="stroke:#000000;stroke-width:0.8;" x="154.996364" xlink:href="#ma26d4bfe42" y="41.472"/>
      </g>
     </g>
     <g id="text_14">
      <!-- 36 -->
      <defs>
       <path d="M 40.578125 39.3125 
Q 47.65625 37.796875 51.625 33 
Q 55.609375 28.21875 55.609375 21.1875 
Q 55.609375 10.40625 48.1875 4.484375 
Q 40.765625 -1.421875 27.09375 -1.421875 
Q 22.515625 -1.421875 17.65625 -0.515625 
Q 12.796875 0.390625 7.625 2.203125 
L 7.625 11.71875 
Q 11.71875 9.328125 16.59375 8.109375 
Q 21.484375 6.890625 26.8125 6.890625 
Q 36.078125 6.890625 40.9375 10.546875 
Q 45.796875 14.203125 45.796875 21.1875 
Q 45.796875 27.640625 41.28125 31.265625 
Q 36.765625 34.90625 28.71875 34.90625 
L 20.21875 34.90625 
L 20.21875 43.015625 
L 29.109375 43.015625 
Q 36.375 43.015625 40.234375 45.921875 
Q 44.09375 48.828125 44.09375 54.296875 
Q 44.09375 59.90625 40.109375 62.90625 
Q 36.140625 65.921875 28.71875 65.921875 
Q 24.65625 65.921875 20.015625 65.03125 
Q 15.375 64.15625 9.8125 62.3125 
L 9.8125 71.09375 
Q 15.4375 72.65625 20.34375 73.4375 
Q 25.25 74.21875 29.59375 74.21875 
Q 40.828125 74.21875 47.359375 69.109375 
Q 53.90625 64.015625 53.90625 55.328125 
Q 53.90625 49.265625 50.4375 45.09375 
Q 46.96875 40.921875 40.578125 39.3125 
z
" id="DejaVuSans-51"/>
       <path d="M 33.015625 40.375 
Q 26.375 40.375 22.484375 35.828125 
Q 18.609375 31.296875 18.609375 23.390625 
Q 18.609375 15.53125 22.484375 10.953125 
Q 26.375 6.390625 33.015625 6.390625 
Q 39.65625 6.390625 43.53125 10.953125 
Q 47.40625 15.53125 47.40625 23.390625 
Q 47.40625 31.296875 43.53125 35.828125 
Q 39.65625 40.375 33.015625 40.375 
z
M 52.59375 71.296875 
L 52.59375 62.3125 
Q 48.875 64.0625 45.09375 64.984375 
Q 41.3125 65.921875 37.59375 65.921875 
Q 27.828125 65.921875 22.671875 59.328125 
Q 17.53125 52.734375 16.796875 39.40625 
Q 19.671875 43.65625 24.015625 45.921875 
Q 28.375 48.1875 33.59375 48.1875 
Q 44.578125 48.1875 50.953125 41.515625 
Q 57.328125 34.859375 57.328125 23.390625 
Q 57.328125 12.15625 50.6875 5.359375 
Q 44.046875 -1.421875 33.015625 -1.421875 
Q 20.359375 -1.421875 13.671875 8.265625 
Q 6.984375 17.96875 6.984375 36.375 
Q 6.984375 53.65625 15.1875 63.9375 
Q 23.390625 74.21875 37.203125 74.21875 
Q 40.921875 74.21875 44.703125 73.484375 
Q 48.484375 72.75 52.59375 71.296875 
z
" id="DejaVuSans-54"/>
      </defs>
      <g transform="translate(148.633864 32.392313)scale(0.1 -0.1)">
       <use xlink:href="#DejaVuSans-51"/>
       <use x="63.623047" xlink:href="#DejaVuSans-54"/>
      </g>
     </g>
    </g>
    <g id="xtick_8">
     <g id="line2d_24">
      <g>
       <use style="stroke:#000000;stroke-width:0.8;" x="236.16" xlink:href="#ma26d4bfe42" y="41.472"/>
      </g>
     </g>
     <g id="text_15">
      <!-- 0 -->
      <g transform="translate(232.97875 32.392313)scale(0.1 -0.1)">
       <use xlink:href="#DejaVuSans-48"/>
      </g>
     </g>
    </g>
    <g id="xtick_9">
     <g id="line2d_25">
      <g>
       <use style="stroke:#000000;stroke-width:0.8;" x="317.323636" xlink:href="#ma26d4bfe42" y="41.472"/>
      </g>
     </g>
     <g id="text_16">
      <!-- -36 -->
      <defs>
       <path d="M 4.890625 31.390625 
L 31.203125 31.390625 
L 31.203125 23.390625 
L 4.890625 23.390625 
z
" id="DejaVuSans-45"/>
      </defs>
      <g transform="translate(309.15723 32.392313)scale(0.1 -0.1)">
       <use xlink:href="#DejaVuSans-45"/>
       <use x="36.083984" xlink:href="#DejaVuSans-51"/>
       <use x="99.707031" xlink:href="#DejaVuSans-54"/>
      </g>
     </g>
    </g>
    <g id="xtick_10">
     <g id="line2d_26">
      <g>
       <use style="stroke:#000000;stroke-width:0.8;" x="398.487273" xlink:href="#ma26d4bfe42" y="41.472"/>
      </g>
     </g>
     <g id="text_17">
      <!-- 0 -->
      <g transform="translate(395.306023 32.392313)scale(0.1 -0.1)">
       <use xlink:href="#DejaVuSans-48"/>
      </g>
     </g>
    </g>
    <g id="text_18">
     <!-- $\theta ^\circ$  -->
     <defs>
      <path d="M 45.515625 34.671875 
L 14.453125 34.671875 
Q 12.359375 20.0625 14.5 13.875 
Q 17.1875 6.25 24.46875 6.25 
Q 31.78125 6.25 37.359375 13.921875 
Q 42.234375 20.65625 45.515625 34.671875 
z
M 47.015625 42.96875 
Q 48.34375 56.84375 46.625 61.71875 
Q 43.953125 69.4375 36.765625 69.4375 
Q 29.296875 69.4375 23.828125 61.8125 
Q 19.53125 55.671875 16.15625 42.96875 
z
M 38.1875 76.765625 
Q 49.90625 76.765625 54.59375 66.40625 
Q 59.28125 56.109375 55.71875 37.84375 
Q 52.203125 19.625 43.453125 9.28125 
Q 34.765625 -1.125 23.046875 -1.125 
Q 11.28125 -1.125 6.640625 9.28125 
Q 2 19.625 5.515625 37.84375 
Q 9.078125 56.109375 17.71875 66.40625 
Q 26.421875 76.765625 38.1875 76.765625 
z
" id="DejaVuSans-Oblique-952"/>
      <path d="M 31.296875 40.671875 
Q 27.390625 40.671875 24.703125 37.953125 
Q 22.015625 35.25 22.015625 31.34375 
Q 22.015625 27.484375 24.703125 24.828125 
Q 27.390625 22.171875 31.296875 22.171875 
Q 35.203125 22.171875 37.890625 24.828125 
Q 40.578125 27.484375 40.578125 31.34375 
Q 40.578125 35.203125 37.859375 37.9375 
Q 35.15625 40.671875 31.296875 40.671875 
z
M 31.296875 46.96875 
Q 34.421875 46.96875 37.296875 45.765625 
Q 40.1875 44.578125 42.28125 42.328125 
Q 44.53125 40.140625 45.65625 37.34375 
Q 46.78125 34.5625 46.78125 31.34375 
Q 46.78125 24.90625 42.265625 20.4375 
Q 37.75 15.96875 31.203125 15.96875 
Q 24.609375 15.96875 20.21875 20.359375 
Q 15.828125 24.75 15.828125 31.34375 
Q 15.828125 37.890625 20.3125 42.421875 
Q 24.8125 46.96875 31.296875 46.96875 
z
" id="DejaVuSans-8728"/>
     </defs>
     <g transform="translate(227.41 20.793875)scale(0.1 -0.1)">
      <use transform="translate(0 0.234375)" xlink:href="#DejaVuSans-Oblique-952"/>
      <use transform="translate(82.376419 38.515625)scale(0.7)" xlink:href="#DejaVuSans-8728"/>
      <use transform="translate(142.566849 0.234375)" xlink:href="#DejaVuSans-32"/>
     </g>
    </g>
   </g>
   <g id="patch_7">
    <path d="M 57.6 307.584 
L 57.6 41.472 
" style="fill:none;stroke:#000000;stroke-linecap:square;stroke-linejoin:miter;stroke-width:0.8;"/>
   </g>
   <g id="patch_8">
    <path d="M 414.72 307.584 
L 414.72 41.472 
" style="fill:none;stroke:#000000;stroke-linecap:square;stroke-linejoin:miter;stroke-width:0.8;"/>
   </g>
   <g id="patch_9">
    <path d="M 57.6 307.584 
L 414.72 307.584 
" style="fill:none;stroke:#000000;stroke-linecap:square;stroke-linejoin:miter;stroke-width:0.8;"/>
   </g>
   <g id="patch_10">
    <path d="M 57.6 41.472 
L 414.72 41.472 
" style="fill:none;stroke:#000000;stroke-linecap:square;stroke-linejoin:miter;stroke-width:0.8;"/>
   </g>
  </g>
 </g>
 <defs>
  <clipPath id="pd604890046">
   <rect height="266.112" width="357.12" x="57.6" y="41.472"/>
  </clipPath>
 </defs>
</svg>
