<?xml version="1.0" encoding="utf-8" standalone="no"?>
<!DOCTYPE svg PUBLIC "-//W3C//DTD SVG 1.1//EN"
  "http://www.w3.org/Graphics/SVG/1.1/DTD/svg11.dtd">
<!-- Created with matplotlib (https://matplotlib.org/) -->
<svg height="345.6pt" version="1.1" viewBox="0 0 460.8 345.6" width="460.8pt" xmlns="http://www.w3.org/2000/svg" xmlns:xlink="http://www.w3.org/1999/xlink">
 <defs>
  <style type="text/css">
*{stroke-linecap:butt;stroke-linejoin:round;}
  </style>
 </defs>
 <g id="figure_1">
  <g id="patch_1">
   <path d="M 0 345.6 
L 460.8 345.6 
L 460.8 0 
L 0 0 
z
" style="fill:#ffffff;"/>
  </g>
  <g id="axes_1">
   <g id="patch_2">
    <path d="M 57.6 307.584 
L 414.72 307.584 
L 414.72 41.472 
L 57.6 41.472 
z
" style="fill:#ffffff;"/>
   </g>
   <g id="matplotlib.axis_1">
    <g id="xtick_1">
     <g id="line2d_1">
      <path clip-path="url(#p0aaf809d1b)" d="M 73.832727 307.584 
L 73.832727 41.472 
" style="fill:none;stroke:#b0b0b0;stroke-linecap:square;stroke-width:0.8;"/>
     </g>
     <g id="line2d_2">
      <defs>
       <path d="M 0 0 
L 0 3.5 
" id="mc7a9885df6" style="stroke:#000000;stroke-width:0.8;"/>
      </defs>
      <g>
       <use style="stroke:#000000;stroke-width:0.8;" x="73.832727" xlink:href="#mc7a9885df6" y="307.584"/>
      </g>
     </g>
     <g id="text_1">
      <!-- 0.0 -->
      <defs>
       <path d="M 31.78125 66.40625 
Q 24.171875 66.40625 20.328125 58.90625 
Q 16.5 51.421875 16.5 36.375 
Q 16.5 21.390625 20.328125 13.890625 
Q 24.171875 6.390625 31.78125 6.390625 
Q 39.453125 6.390625 43.28125 13.890625 
Q 47.125 21.390625 47.125 36.375 
Q 47.125 51.421875 43.28125 58.90625 
Q 39.453125 66.40625 31.78125 66.40625 
z
M 31.78125 74.21875 
Q 44.046875 74.21875 50.515625 64.515625 
Q 56.984375 54.828125 56.984375 36.375 
Q 56.984375 17.96875 50.515625 8.265625 
Q 44.046875 -1.421875 31.78125 -1.421875 
Q 19.53125 -1.421875 13.0625 8.265625 
Q 6.59375 17.96875 6.59375 36.375 
Q 6.59375 54.828125 13.0625 64.515625 
Q 19.53125 74.21875 31.78125 74.21875 
z
" id="DejaVuSans-48"/>
       <path d="M 10.6875 12.40625 
L 21 12.40625 
L 21 0 
L 10.6875 0 
z
" id="DejaVuSans-46"/>
      </defs>
      <g transform="translate(65.881165 322.182437)scale(0.1 -0.1)">
       <use xlink:href="#DejaVuSans-48"/>
       <use x="63.623047" xlink:href="#DejaVuSans-46"/>
       <use x="95.410156" xlink:href="#DejaVuSans-48"/>
      </g>
     </g>
    </g>
    <g id="xtick_2">
     <g id="line2d_3">
      <path clip-path="url(#p0aaf809d1b)" d="M 154.996364 307.584 
L 154.996364 41.472 
" style="fill:none;stroke:#b0b0b0;stroke-linecap:square;stroke-width:0.8;"/>
     </g>
     <g id="line2d_4">
      <g>
       <use style="stroke:#000000;stroke-width:0.8;" x="154.996364" xlink:href="#mc7a9885df6" y="307.584"/>
      </g>
     </g>
     <g id="text_2">
      <!-- 0.5 -->
      <defs>
       <path d="M 10.796875 72.90625 
L 49.515625 72.90625 
L 49.515625 64.59375 
L 19.828125 64.59375 
L 19.828125 46.734375 
Q 21.96875 47.46875 24.109375 47.828125 
Q 26.265625 48.1875 28.421875 48.1875 
Q 40.625 48.1875 47.75 41.5 
Q 54.890625 34.8125 54.890625 23.390625 
Q 54.890625 11.625 47.5625 5.09375 
Q 40.234375 -1.421875 26.90625 -1.421875 
Q 22.3125 -1.421875 17.546875 -0.640625 
Q 12.796875 0.140625 7.71875 1.703125 
L 7.71875 11.625 
Q 12.109375 9.234375 16.796875 8.0625 
Q 21.484375 6.890625 26.703125 6.890625 
Q 35.15625 6.890625 40.078125 11.328125 
Q 45.015625 15.765625 45.015625 23.390625 
Q 45.015625 31 40.078125 35.4375 
Q 35.15625 39.890625 26.703125 39.890625 
Q 22.75 39.890625 18.8125 39.015625 
Q 14.890625 38.140625 10.796875 36.28125 
z
" id="DejaVuSans-53"/>
      </defs>
      <g transform="translate(147.044801 322.182437)scale(0.1 -0.1)">
       <use xlink:href="#DejaVuSans-48"/>
       <use x="63.623047" xlink:href="#DejaVuSans-46"/>
       <use x="95.410156" xlink:href="#DejaVuSans-53"/>
      </g>
     </g>
    </g>
    <g id="xtick_3">
     <g id="line2d_5">
      <path clip-path="url(#p0aaf809d1b)" d="M 236.16 307.584 
L 236.16 41.472 
" style="fill:none;stroke:#b0b0b0;stroke-linecap:square;stroke-width:0.8;"/>
     </g>
     <g id="line2d_6">
      <g>
       <use style="stroke:#000000;stroke-width:0.8;" x="236.16" xlink:href="#mc7a9885df6" y="307.584"/>
      </g>
     </g>
     <g id="text_3">
      <!-- 1.0 -->
      <defs>
       <path d="M 12.40625 8.296875 
L 28.515625 8.296875 
L 28.515625 63.921875 
L 10.984375 60.40625 
L 10.984375 69.390625 
L 28.421875 72.90625 
L 38.28125 72.90625 
L 38.28125 8.296875 
L 54.390625 8.296875 
L 54.390625 0 
L 12.40625 0 
z
" id="DejaVuSans-49"/>
      </defs>
      <g transform="translate(228.208438 322.182437)scale(0.1 -0.1)">
       <use xlink:href="#DejaVuSans-49"/>
       <use x="63.623047" xlink:href="#DejaVuSans-46"/>
       <use x="95.410156" xlink:href="#DejaVuSans-48"/>
      </g>
     </g>
    </g>
    <g id="xtick_4">
     <g id="line2d_7">
      <path clip-path="url(#p0aaf809d1b)" d="M 317.323636 307.584 
L 317.323636 41.472 
" style="fill:none;stroke:#b0b0b0;stroke-linecap:square;stroke-width:0.8;"/>
     </g>
     <g id="line2d_8">
      <g>
       <use style="stroke:#000000;stroke-width:0.8;" x="317.323636" xlink:href="#mc7a9885df6" y="307.584"/>
      </g>
     </g>
     <g id="text_4">
      <!-- 1.5 -->
      <g transform="translate(309.372074 322.182437)scale(0.1 -0.1)">
       <use xlink:href="#DejaVuSans-49"/>
       <use x="63.623047" xlink:href="#DejaVuSans-46"/>
       <use x="95.410156" xlink:href="#DejaVuSans-53"/>
      </g>
     </g>
    </g>
    <g id="xtick_5">
     <g id="line2d_9">
      <path clip-path="url(#p0aaf809d1b)" d="M 398.487273 307.584 
L 398.487273 41.472 
" style="fill:none;stroke:#b0b0b0;stroke-linecap:square;stroke-width:0.8;"/>
     </g>
     <g id="line2d_10">
      <g>
       <use style="stroke:#000000;stroke-width:0.8;" x="398.487273" xlink:href="#mc7a9885df6" y="307.584"/>
      </g>
     </g>
     <g id="text_5">
      <!-- 2.0 -->
      <defs>
       <path d="M 19.1875 8.296875 
L 53.609375 8.296875 
L 53.609375 0 
L 7.328125 0 
L 7.328125 8.296875 
Q 12.9375 14.109375 22.625 23.890625 
Q 32.328125 33.6875 34.8125 36.53125 
Q 39.546875 41.84375 41.421875 45.53125 
Q 43.3125 49.21875 43.3125 52.78125 
Q 43.3125 58.59375 39.234375 62.25 
Q 35.15625 65.921875 28.609375 65.921875 
Q 23.96875 65.921875 18.8125 64.3125 
Q 13.671875 62.703125 7.8125 59.421875 
L 7.8125 69.390625 
Q 13.765625 71.78125 18.9375 73 
Q 24.125 74.21875 28.421875 74.21875 
Q 39.75 74.21875 46.484375 68.546875 
Q 53.21875 62.890625 53.21875 53.421875 
Q 53.21875 48.921875 51.53125 44.890625 
Q 49.859375 40.875 45.40625 35.40625 
Q 44.1875 33.984375 37.640625 27.21875 
Q 31.109375 20.453125 19.1875 8.296875 
z
" id="DejaVuSans-50"/>
      </defs>
      <g transform="translate(390.53571 322.182437)scale(0.1 -0.1)">
       <use xlink:href="#DejaVuSans-50"/>
       <use x="63.623047" xlink:href="#DejaVuSans-46"/>
       <use x="95.410156" xlink:href="#DejaVuSans-48"/>
      </g>
     </g>
    </g>
    <g id="text_6">
     <!-- $t$ (ms) -->
     <defs>
      <path d="M 42.28125 54.6875 
L 40.921875 47.703125 
L 23 47.703125 
L 17.1875 18.015625 
Q 16.890625 16.359375 16.75 15.234375 
Q 16.609375 14.109375 16.609375 13.484375 
Q 16.609375 10.359375 18.484375 8.9375 
Q 20.359375 7.515625 24.515625 7.515625 
L 33.59375 7.515625 
L 32.078125 0 
L 23.484375 0 
Q 15.484375 0 11.546875 3.125 
Q 7.625 6.25 7.625 12.59375 
Q 7.625 13.71875 7.765625 15.0625 
Q 7.90625 16.40625 8.203125 18.015625 
L 14.015625 47.703125 
L 6.390625 47.703125 
L 7.8125 54.6875 
L 15.28125 54.6875 
L 18.3125 70.21875 
L 27.296875 70.21875 
L 24.3125 54.6875 
z
" id="DejaVuSans-Oblique-116"/>
      <path id="DejaVuSans-32"/>
      <path d="M 31 75.875 
Q 24.46875 64.65625 21.28125 53.65625 
Q 18.109375 42.671875 18.109375 31.390625 
Q 18.109375 20.125 21.3125 9.0625 
Q 24.515625 -2 31 -13.1875 
L 23.1875 -13.1875 
Q 15.875 -1.703125 12.234375 9.375 
Q 8.59375 20.453125 8.59375 31.390625 
Q 8.59375 42.28125 12.203125 53.3125 
Q 15.828125 64.359375 23.1875 75.875 
z
" id="DejaVuSans-40"/>
      <path d="M 52 44.1875 
Q 55.375 50.25 60.0625 53.125 
Q 64.75 56 71.09375 56 
Q 79.640625 56 84.28125 50.015625 
Q 88.921875 44.046875 88.921875 33.015625 
L 88.921875 0 
L 79.890625 0 
L 79.890625 32.71875 
Q 79.890625 40.578125 77.09375 44.375 
Q 74.3125 48.1875 68.609375 48.1875 
Q 61.625 48.1875 57.5625 43.546875 
Q 53.515625 38.921875 53.515625 30.90625 
L 53.515625 0 
L 44.484375 0 
L 44.484375 32.71875 
Q 44.484375 40.625 41.703125 44.40625 
Q 38.921875 48.1875 33.109375 48.1875 
Q 26.21875 48.1875 22.15625 43.53125 
Q 18.109375 38.875 18.109375 30.90625 
L 18.109375 0 
L 9.078125 0 
L 9.078125 54.6875 
L 18.109375 54.6875 
L 18.109375 46.1875 
Q 21.1875 51.21875 25.484375 53.609375 
Q 29.78125 56 35.6875 56 
Q 41.65625 56 45.828125 52.96875 
Q 50 49.953125 52 44.1875 
z
" id="DejaVuSans-109"/>
      <path d="M 44.28125 53.078125 
L 44.28125 44.578125 
Q 40.484375 46.53125 36.375 47.5 
Q 32.28125 48.484375 27.875 48.484375 
Q 21.1875 48.484375 17.84375 46.4375 
Q 14.5 44.390625 14.5 40.28125 
Q 14.5 37.15625 16.890625 35.375 
Q 19.28125 33.59375 26.515625 31.984375 
L 29.59375 31.296875 
Q 39.15625 29.25 43.1875 25.515625 
Q 47.21875 21.78125 47.21875 15.09375 
Q 47.21875 7.46875 41.1875 3.015625 
Q 35.15625 -1.421875 24.609375 -1.421875 
Q 20.21875 -1.421875 15.453125 -0.5625 
Q 10.6875 0.296875 5.421875 2 
L 5.421875 11.28125 
Q 10.40625 8.6875 15.234375 7.390625 
Q 20.0625 6.109375 24.8125 6.109375 
Q 31.15625 6.109375 34.5625 8.28125 
Q 37.984375 10.453125 37.984375 14.40625 
Q 37.984375 18.0625 35.515625 20.015625 
Q 33.0625 21.96875 24.703125 23.78125 
L 21.578125 24.515625 
Q 13.234375 26.265625 9.515625 29.90625 
Q 5.8125 33.546875 5.8125 39.890625 
Q 5.8125 47.609375 11.28125 51.796875 
Q 16.75 56 26.8125 56 
Q 31.78125 56 36.171875 55.265625 
Q 40.578125 54.546875 44.28125 53.078125 
z
" id="DejaVuSans-115"/>
      <path d="M 8.015625 75.875 
L 15.828125 75.875 
Q 23.140625 64.359375 26.78125 53.3125 
Q 30.421875 42.28125 30.421875 31.390625 
Q 30.421875 20.453125 26.78125 9.375 
Q 23.140625 -1.703125 15.828125 -13.1875 
L 8.015625 -13.1875 
Q 14.5 -2 17.703125 9.0625 
Q 20.90625 20.125 20.90625 31.390625 
Q 20.90625 42.671875 17.703125 53.65625 
Q 14.5 64.65625 8.015625 75.875 
z
" id="DejaVuSans-41"/>
     </defs>
     <g transform="translate(221.21 335.860562)scale(0.1 -0.1)">
      <use transform="translate(0 0.125)" xlink:href="#DejaVuSans-Oblique-116"/>
      <use transform="translate(39.208984 0.125)" xlink:href="#DejaVuSans-32"/>
      <use transform="translate(70.996094 0.125)" xlink:href="#DejaVuSans-40"/>
      <use transform="translate(110.009766 0.125)" xlink:href="#DejaVuSans-109"/>
      <use transform="translate(207.421875 0.125)" xlink:href="#DejaVuSans-115"/>
      <use transform="translate(259.521484 0.125)" xlink:href="#DejaVuSans-41"/>
     </g>
    </g>
   </g>
   <g id="matplotlib.axis_2">
    <g id="ytick_1">
     <g id="line2d_11">
      <path clip-path="url(#p0aaf809d1b)" d="M 57.6 299.606656 
L 414.72 299.606656 
" style="fill:none;stroke:#b0b0b0;stroke-linecap:square;stroke-width:0.8;"/>
     </g>
     <g id="line2d_12">
      <defs>
       <path d="M 0 0 
L -3.5 0 
" id="mb395753d7e" style="stroke:#000000;stroke-width:0.8;"/>
      </defs>
      <g>
       <use style="stroke:#000000;stroke-width:0.8;" x="57.6" xlink:href="#mb395753d7e" y="299.606656"/>
      </g>
     </g>
     <g id="text_7">
      <!-- −100 -->
      <defs>
       <path d="M 10.59375 35.5 
L 73.1875 35.5 
L 73.1875 27.203125 
L 10.59375 27.203125 
z
" id="DejaVuSans-8722"/>
      </defs>
      <g transform="translate(23.132812 303.405875)scale(0.1 -0.1)">
       <use xlink:href="#DejaVuSans-8722"/>
       <use x="83.789062" xlink:href="#DejaVuSans-49"/>
       <use x="147.412109" xlink:href="#DejaVuSans-48"/>
       <use x="211.035156" xlink:href="#DejaVuSans-48"/>
      </g>
     </g>
    </g>
    <g id="ytick_2">
     <g id="line2d_13">
      <path clip-path="url(#p0aaf809d1b)" d="M 57.6 267.358228 
L 414.72 267.358228 
" style="fill:none;stroke:#b0b0b0;stroke-linecap:square;stroke-width:0.8;"/>
     </g>
     <g id="line2d_14">
      <g>
       <use style="stroke:#000000;stroke-width:0.8;" x="57.6" xlink:href="#mb395753d7e" y="267.358228"/>
      </g>
     </g>
     <g id="text_8">
      <!-- 0 -->
      <g transform="translate(44.2375 271.157446)scale(0.1 -0.1)">
       <use xlink:href="#DejaVuSans-48"/>
      </g>
     </g>
    </g>
    <g id="ytick_3">
     <g id="line2d_15">
      <path clip-path="url(#p0aaf809d1b)" d="M 57.6 235.109799 
L 414.72 235.109799 
" style="fill:none;stroke:#b0b0b0;stroke-linecap:square;stroke-width:0.8;"/>
     </g>
     <g id="line2d_16">
      <g>
       <use style="stroke:#000000;stroke-width:0.8;" x="57.6" xlink:href="#mb395753d7e" y="235.109799"/>
      </g>
     </g>
     <g id="text_9">
      <!-- 100 -->
      <g transform="translate(31.5125 238.909018)scale(0.1 -0.1)">
       <use xlink:href="#DejaVuSans-49"/>
       <use x="63.623047" xlink:href="#DejaVuSans-48"/>
       <use x="127.246094" xlink:href="#DejaVuSans-48"/>
      </g>
     </g>
    </g>
    <g id="ytick_4">
     <g id="line2d_17">
      <path clip-path="url(#p0aaf809d1b)" d="M 57.6 202.861371 
L 414.72 202.861371 
" style="fill:none;stroke:#b0b0b0;stroke-linecap:square;stroke-width:0.8;"/>
     </g>
     <g id="line2d_18">
      <g>
       <use style="stroke:#000000;stroke-width:0.8;" x="57.6" xlink:href="#mb395753d7e" y="202.861371"/>
      </g>
     </g>
     <g id="text_10">
      <!-- 200 -->
      <g transform="translate(31.5125 206.66059)scale(0.1 -0.1)">
       <use xlink:href="#DejaVuSans-50"/>
       <use x="63.623047" xlink:href="#DejaVuSans-48"/>
       <use x="127.246094" xlink:href="#DejaVuSans-48"/>
      </g>
     </g>
    </g>
    <g id="ytick_5">
     <g id="line2d_19">
      <path clip-path="url(#p0aaf809d1b)" d="M 57.6 170.612943 
L 414.72 170.612943 
" style="fill:none;stroke:#b0b0b0;stroke-linecap:square;stroke-width:0.8;"/>
     </g>
     <g id="line2d_20">
      <g>
       <use style="stroke:#000000;stroke-width:0.8;" x="57.6" xlink:href="#mb395753d7e" y="170.612943"/>
      </g>
     </g>
     <g id="text_11">
      <!-- 300 -->
      <defs>
       <path d="M 40.578125 39.3125 
Q 47.65625 37.796875 51.625 33 
Q 55.609375 28.21875 55.609375 21.1875 
Q 55.609375 10.40625 48.1875 4.484375 
Q 40.765625 -1.421875 27.09375 -1.421875 
Q 22.515625 -1.421875 17.65625 -0.515625 
Q 12.796875 0.390625 7.625 2.203125 
L 7.625 11.71875 
Q 11.71875 9.328125 16.59375 8.109375 
Q 21.484375 6.890625 26.8125 6.890625 
Q 36.078125 6.890625 40.9375 10.546875 
Q 45.796875 14.203125 45.796875 21.1875 
Q 45.796875 27.640625 41.28125 31.265625 
Q 36.765625 34.90625 28.71875 34.90625 
L 20.21875 34.90625 
L 20.21875 43.015625 
L 29.109375 43.015625 
Q 36.375 43.015625 40.234375 45.921875 
Q 44.09375 48.828125 44.09375 54.296875 
Q 44.09375 59.90625 40.109375 62.90625 
Q 36.140625 65.921875 28.71875 65.921875 
Q 24.65625 65.921875 20.015625 65.03125 
Q 15.375 64.15625 9.8125 62.3125 
L 9.8125 71.09375 
Q 15.4375 72.65625 20.34375 73.4375 
Q 25.25 74.21875 29.59375 74.21875 
Q 40.828125 74.21875 47.359375 69.109375 
Q 53.90625 64.015625 53.90625 55.328125 
Q 53.90625 49.265625 50.4375 45.09375 
Q 46.96875 40.921875 40.578125 39.3125 
z
" id="DejaVuSans-51"/>
      </defs>
      <g transform="translate(31.5125 174.412161)scale(0.1 -0.1)">
       <use xlink:href="#DejaVuSans-51"/>
       <use x="63.623047" xlink:href="#DejaVuSans-48"/>
       <use x="127.246094" xlink:href="#DejaVuSans-48"/>
      </g>
     </g>
    </g>
    <g id="ytick_6">
     <g id="line2d_21">
      <path clip-path="url(#p0aaf809d1b)" d="M 57.6 138.364514 
L 414.72 138.364514 
" style="fill:none;stroke:#b0b0b0;stroke-linecap:square;stroke-width:0.8;"/>
     </g>
     <g id="line2d_22">
      <g>
       <use style="stroke:#000000;stroke-width:0.8;" x="57.6" xlink:href="#mb395753d7e" y="138.364514"/>
      </g>
     </g>
     <g id="text_12">
      <!-- 400 -->
      <defs>
       <path d="M 37.796875 64.3125 
L 12.890625 25.390625 
L 37.796875 25.390625 
z
M 35.203125 72.90625 
L 47.609375 72.90625 
L 47.609375 25.390625 
L 58.015625 25.390625 
L 58.015625 17.1875 
L 47.609375 17.1875 
L 47.609375 0 
L 37.796875 0 
L 37.796875 17.1875 
L 4.890625 17.1875 
L 4.890625 26.703125 
z
" id="DejaVuSans-52"/>
      </defs>
      <g transform="translate(31.5125 142.163733)scale(0.1 -0.1)">
       <use xlink:href="#DejaVuSans-52"/>
       <use x="63.623047" xlink:href="#DejaVuSans-48"/>
       <use x="127.246094" xlink:href="#DejaVuSans-48"/>
      </g>
     </g>
    </g>
    <g id="ytick_7">
     <g id="line2d_23">
      <path clip-path="url(#p0aaf809d1b)" d="M 57.6 106.116086 
L 414.72 106.116086 
" style="fill:none;stroke:#b0b0b0;stroke-linecap:square;stroke-width:0.8;"/>
     </g>
     <g id="line2d_24">
      <g>
       <use style="stroke:#000000;stroke-width:0.8;" x="57.6" xlink:href="#mb395753d7e" y="106.116086"/>
      </g>
     </g>
     <g id="text_13">
      <!-- 500 -->
      <g transform="translate(31.5125 109.915305)scale(0.1 -0.1)">
       <use xlink:href="#DejaVuSans-53"/>
       <use x="63.623047" xlink:href="#DejaVuSans-48"/>
       <use x="127.246094" xlink:href="#DejaVuSans-48"/>
      </g>
     </g>
    </g>
    <g id="ytick_8">
     <g id="line2d_25">
      <path clip-path="url(#p0aaf809d1b)" d="M 57.6 73.867658 
L 414.72 73.867658 
" style="fill:none;stroke:#b0b0b0;stroke-linecap:square;stroke-width:0.8;"/>
     </g>
     <g id="line2d_26">
      <g>
       <use style="stroke:#000000;stroke-width:0.8;" x="57.6" xlink:href="#mb395753d7e" y="73.867658"/>
      </g>
     </g>
     <g id="text_14">
      <!-- 600 -->
      <defs>
       <path d="M 33.015625 40.375 
Q 26.375 40.375 22.484375 35.828125 
Q 18.609375 31.296875 18.609375 23.390625 
Q 18.609375 15.53125 22.484375 10.953125 
Q 26.375 6.390625 33.015625 6.390625 
Q 39.65625 6.390625 43.53125 10.953125 
Q 47.40625 15.53125 47.40625 23.390625 
Q 47.40625 31.296875 43.53125 35.828125 
Q 39.65625 40.375 33.015625 40.375 
z
M 52.59375 71.296875 
L 52.59375 62.3125 
Q 48.875 64.0625 45.09375 64.984375 
Q 41.3125 65.921875 37.59375 65.921875 
Q 27.828125 65.921875 22.671875 59.328125 
Q 17.53125 52.734375 16.796875 39.40625 
Q 19.671875 43.65625 24.015625 45.921875 
Q 28.375 48.1875 33.59375 48.1875 
Q 44.578125 48.1875 50.953125 41.515625 
Q 57.328125 34.859375 57.328125 23.390625 
Q 57.328125 12.15625 50.6875 5.359375 
Q 44.046875 -1.421875 33.015625 -1.421875 
Q 20.359375 -1.421875 13.671875 8.265625 
Q 6.984375 17.96875 6.984375 36.375 
Q 6.984375 53.65625 15.1875 63.9375 
Q 23.390625 74.21875 37.203125 74.21875 
Q 40.921875 74.21875 44.703125 73.484375 
Q 48.484375 72.75 52.59375 71.296875 
z
" id="DejaVuSans-54"/>
      </defs>
      <g transform="translate(31.5125 77.666876)scale(0.1 -0.1)">
       <use xlink:href="#DejaVuSans-54"/>
       <use x="63.623047" xlink:href="#DejaVuSans-48"/>
       <use x="127.246094" xlink:href="#DejaVuSans-48"/>
      </g>
     </g>
    </g>
    <g id="ytick_9">
     <g id="line2d_27">
      <path clip-path="url(#p0aaf809d1b)" d="M 57.6 41.619229 
L 414.72 41.619229 
" style="fill:none;stroke:#b0b0b0;stroke-linecap:square;stroke-width:0.8;"/>
     </g>
     <g id="line2d_28">
      <g>
       <use style="stroke:#000000;stroke-width:0.8;" x="57.6" xlink:href="#mb395753d7e" y="41.619229"/>
      </g>
     </g>
     <g id="text_15">
      <!-- 700 -->
      <defs>
       <path d="M 8.203125 72.90625 
L 55.078125 72.90625 
L 55.078125 68.703125 
L 28.609375 0 
L 18.3125 0 
L 43.21875 64.59375 
L 8.203125 64.59375 
z
" id="DejaVuSans-55"/>
      </defs>
      <g transform="translate(31.5125 45.418448)scale(0.1 -0.1)">
       <use xlink:href="#DejaVuSans-55"/>
       <use x="63.623047" xlink:href="#DejaVuSans-48"/>
       <use x="127.246094" xlink:href="#DejaVuSans-48"/>
      </g>
     </g>
    </g>
    <g id="text_16">
     <!-- Force (N/m) -->
     <defs>
      <path d="M 9.8125 72.90625 
L 51.703125 72.90625 
L 51.703125 64.59375 
L 19.671875 64.59375 
L 19.671875 43.109375 
L 48.578125 43.109375 
L 48.578125 34.8125 
L 19.671875 34.8125 
L 19.671875 0 
L 9.8125 0 
z
" id="DejaVuSans-70"/>
      <path d="M 30.609375 48.390625 
Q 23.390625 48.390625 19.1875 42.75 
Q 14.984375 37.109375 14.984375 27.296875 
Q 14.984375 17.484375 19.15625 11.84375 
Q 23.34375 6.203125 30.609375 6.203125 
Q 37.796875 6.203125 41.984375 11.859375 
Q 46.1875 17.53125 46.1875 27.296875 
Q 46.1875 37.015625 41.984375 42.703125 
Q 37.796875 48.390625 30.609375 48.390625 
z
M 30.609375 56 
Q 42.328125 56 49.015625 48.375 
Q 55.71875 40.765625 55.71875 27.296875 
Q 55.71875 13.875 49.015625 6.21875 
Q 42.328125 -1.421875 30.609375 -1.421875 
Q 18.84375 -1.421875 12.171875 6.21875 
Q 5.515625 13.875 5.515625 27.296875 
Q 5.515625 40.765625 12.171875 48.375 
Q 18.84375 56 30.609375 56 
z
" id="DejaVuSans-111"/>
      <path d="M 41.109375 46.296875 
Q 39.59375 47.171875 37.8125 47.578125 
Q 36.03125 48 33.890625 48 
Q 26.265625 48 22.1875 43.046875 
Q 18.109375 38.09375 18.109375 28.8125 
L 18.109375 0 
L 9.078125 0 
L 9.078125 54.6875 
L 18.109375 54.6875 
L 18.109375 46.1875 
Q 20.953125 51.171875 25.484375 53.578125 
Q 30.03125 56 36.53125 56 
Q 37.453125 56 38.578125 55.875 
Q 39.703125 55.765625 41.0625 55.515625 
z
" id="DejaVuSans-114"/>
      <path d="M 48.78125 52.59375 
L 48.78125 44.1875 
Q 44.96875 46.296875 41.140625 47.34375 
Q 37.3125 48.390625 33.40625 48.390625 
Q 24.65625 48.390625 19.8125 42.84375 
Q 14.984375 37.3125 14.984375 27.296875 
Q 14.984375 17.28125 19.8125 11.734375 
Q 24.65625 6.203125 33.40625 6.203125 
Q 37.3125 6.203125 41.140625 7.25 
Q 44.96875 8.296875 48.78125 10.40625 
L 48.78125 2.09375 
Q 45.015625 0.34375 40.984375 -0.53125 
Q 36.96875 -1.421875 32.421875 -1.421875 
Q 20.0625 -1.421875 12.78125 6.34375 
Q 5.515625 14.109375 5.515625 27.296875 
Q 5.515625 40.671875 12.859375 48.328125 
Q 20.21875 56 33.015625 56 
Q 37.15625 56 41.109375 55.140625 
Q 45.0625 54.296875 48.78125 52.59375 
z
" id="DejaVuSans-99"/>
      <path d="M 56.203125 29.59375 
L 56.203125 25.203125 
L 14.890625 25.203125 
Q 15.484375 15.921875 20.484375 11.0625 
Q 25.484375 6.203125 34.421875 6.203125 
Q 39.59375 6.203125 44.453125 7.46875 
Q 49.3125 8.734375 54.109375 11.28125 
L 54.109375 2.78125 
Q 49.265625 0.734375 44.1875 -0.34375 
Q 39.109375 -1.421875 33.890625 -1.421875 
Q 20.796875 -1.421875 13.15625 6.1875 
Q 5.515625 13.8125 5.515625 26.8125 
Q 5.515625 40.234375 12.765625 48.109375 
Q 20.015625 56 32.328125 56 
Q 43.359375 56 49.78125 48.890625 
Q 56.203125 41.796875 56.203125 29.59375 
z
M 47.21875 32.234375 
Q 47.125 39.59375 43.09375 43.984375 
Q 39.0625 48.390625 32.421875 48.390625 
Q 24.90625 48.390625 20.390625 44.140625 
Q 15.875 39.890625 15.1875 32.171875 
z
" id="DejaVuSans-101"/>
      <path d="M 9.8125 72.90625 
L 23.09375 72.90625 
L 55.421875 11.921875 
L 55.421875 72.90625 
L 64.984375 72.90625 
L 64.984375 0 
L 51.703125 0 
L 19.390625 60.984375 
L 19.390625 0 
L 9.8125 0 
z
" id="DejaVuSans-78"/>
      <path d="M 25.390625 72.90625 
L 33.6875 72.90625 
L 8.296875 -9.28125 
L 0 -9.28125 
z
" id="DejaVuSans-47"/>
     </defs>
     <g transform="translate(17.053125 204.126438)rotate(-90)scale(0.1 -0.1)">
      <use xlink:href="#DejaVuSans-70"/>
      <use x="57.472656" xlink:href="#DejaVuSans-111"/>
      <use x="118.654297" xlink:href="#DejaVuSans-114"/>
      <use x="159.736328" xlink:href="#DejaVuSans-99"/>
      <use x="214.716797" xlink:href="#DejaVuSans-101"/>
      <use x="276.240234" xlink:href="#DejaVuSans-32"/>
      <use x="308.027344" xlink:href="#DejaVuSans-40"/>
      <use x="347.041016" xlink:href="#DejaVuSans-78"/>
      <use x="421.845703" xlink:href="#DejaVuSans-47"/>
      <use x="455.537109" xlink:href="#DejaVuSans-109"/>
      <use x="552.949219" xlink:href="#DejaVuSans-41"/>
     </g>
    </g>
   </g>
   <g id="line2d_29">
    <path clip-path="url(#p0aaf809d1b)" d="M 98.185993 83.969835 
L 98.224218 83.969835 
L 98.335912 84.200078 
L 98.360418 84.200078 
L 98.472125 84.410342 
L 98.496605 84.410342 
L 98.607798 85.060958 
L 98.632096 85.060958 
L 98.745379 85.552191 
L 98.766962 85.552191 
L 98.880482 85.707631 
L 99.173809 85.794028 
L 99.285383 86.018721 
L 99.309877 86.018721 
L 99.421462 86.185878 
L 99.445963 86.185878 
L 99.557646 86.340629 
L 99.582184 86.340629 
L 99.694066 86.605668 
L 99.718638 86.605668 
L 99.830566 86.922459 
L 99.991805 86.953488 
L 100.103889 87.106274 
L 100.128445 87.106274 
L 100.239945 87.32521 
L 100.264394 87.32521 
L 100.376062 87.44779 
L 100.400635 87.44779 
L 100.512777 87.655226 
L 100.537412 87.655226 
L 100.649527 87.834157 
L 101.085754 87.909313 
L 101.198931 87.704609 
L 101.223825 87.704609 
L 101.337565 87.467573 
L 101.362645 87.467573 
L 101.474741 87.186177 
L 101.502838 87.186177 
L 101.615189 86.789284 
L 101.643308 86.789284 
L 101.755792 86.571196 
L 101.783883 86.571196 
L 101.896215 86.376651 
L 101.924304 86.376651 
L 102.036756 86.224127 
L 102.064906 86.224127 
L 102.177342 86.034776 
L 102.346512 85.941062 
L 102.4602 85.864532 
L 102.488723 85.864532 
L 102.600143 85.75255 
L 102.631587 85.75255 
L 102.74286 85.632417 
L 102.774164 85.632417 
L 102.887832 85.43981 
L 102.916238 85.43981 
L 103.029986 85.26372 
L 103.05848 85.26372 
L 103.169948 84.981018 
L 103.201504 84.981018 
L 103.313803 84.783191 
L 103.345547 84.783191 
L 103.458064 84.624545 
L 103.489792 84.624545 
L 103.60234 84.435057 
L 103.634122 84.435057 
L 103.74707 84.26859 
L 103.779026 84.26859 
L 103.892692 84.063899 
L 103.924792 84.063899 
L 104.035999 83.789585 
L 104.071235 83.789585 
L 104.183099 83.664651 
L 104.366265 83.564553 
L 104.478426 83.397803 
L 104.513851 83.397803 
L 104.626168 83.27059 
L 104.801343 83.173877 
L 104.914518 83.111984 
L 104.946603 83.111984 
L 105.058017 82.991788 
L 105.093399 82.991788 
L 105.206199 82.722884 
L 105.242086 82.722884 
L 105.353589 82.316467 
L 105.393055 82.316467 
L 105.505935 82.011648 
L 105.545663 82.011648 
L 105.658348 81.827242 
L 105.697711 81.827242 
L 105.809067 81.619943 
L 105.848051 81.619943 
L 105.95976 81.497088 
L 105.999531 81.497088 
L 106.111149 81.385229 
L 106.155138 81.385229 
L 106.266398 81.223932 
L 106.314573 81.223932 
L 106.427711 81.081051 
L 106.636566 81.039979 
L 106.750615 80.855243 
L 106.781355 80.855243 
L 106.893075 80.672429 
L 107.407136 80.641677 
L 107.518849 80.553878 
L 107.567142 80.553878 
L 107.680916 80.433029 
L 107.897062 80.358541 
L 108.009679 80.125089 
L 108.068567 80.125089 
L 108.18124 79.933181 
L 108.245796 79.933181 
L 108.359355 79.719698 
L 108.430708 79.719698 
L 108.542633 79.985003 
L 108.62288 79.985003 
L 108.735245 80.274384 
L 109.11865 80.357902 
L 109.231943 80.398428 
L 109.503724 80.328237 
L 109.615615 80.263673 
L 109.71317 80.263673 
L 109.825554 80.428775 
L 110.124546 80.357531 
L 110.23857 80.189745 
L 110.56375 80.213885 
L 110.675722 80.513865 
L 111.206219 80.452376 
L 111.317772 80.309313 
L 111.421204 80.309313 
L 111.533978 80.134427 
L 111.639023 80.134427 
L 111.754148 79.982616 
L 111.861918 79.982616 
L 111.975907 80.120918 
L 112.577595 80.012947 
L 112.689934 79.871556 
L 112.82193 79.871556 
L 112.934737 79.69392 
L 113.558379 79.713483 
L 113.671216 79.516208 
L 114.048751 79.411389 
L 114.161329 79.10768 
L 114.293269 79.10768 
L 114.405467 78.971986 
L 114.536955 78.971986 
L 114.648743 78.714402 
L 114.779783 78.714402 
L 114.891387 78.352612 
L 115.022611 78.352612 
L 115.1347 78.11098 
L 115.266743 78.11098 
L 115.381593 77.852843 
L 115.503265 77.852843 
L 115.615027 77.614179 
L 115.7362 77.614179 
L 115.848587 77.464886 
L 115.971349 77.464886 
L 116.085696 77.327694 
L 116.211355 77.327694 
L 116.324114 77.058248 
L 116.456854 77.058248 
L 116.568903 76.83654 
L 116.699933 76.83654 
L 116.811505 76.537077 
L 116.942623 76.537077 
L 117.054482 76.384714 
L 117.18603 76.384714 
L 117.298297 76.256798 
L 117.430358 76.256798 
L 117.543076 76.005325 
L 117.675563 76.005325 
L 117.788526 75.79031 
L 117.921204 75.79031 
L 118.034238 75.53065 
L 118.166826 75.53065 
L 118.279654 75.298558 
L 118.412027 75.298558 
L 118.524763 75.12355 
L 118.657141 75.12355 
L 118.769983 74.956612 
L 118.902512 74.956612 
L 119.015427 75.087994 
L 119.148146 75.087994 
L 119.261312 75.220401 
L 119.8876 75.171448 
L 120.001302 75.059049 
L 120.382011 75.023479 
L 120.495716 74.914722 
L 121.367411 74.931428 
L 121.480582 75.110291 
L 122.104933 75.079756 
L 122.217935 74.93446 
L 122.596124 74.839364 
L 122.709178 74.694946 
L 122.841991 74.694946 
L 122.95522 74.57302 
L 123.33469 74.52966 
L 123.448166 74.371725 
L 123.828389 74.326161 
L 123.942036 74.147705 
L 124.322782 74.082004 
L 124.43685 73.900661 
L 124.570833 73.900661 
L 124.685061 73.645887 
L 124.819264 73.645887 
L 124.933675 73.489546 
L 125.068073 73.489546 
L 125.182639 73.161003 
L 125.317204 73.161003 
L 125.431908 72.96391 
L 125.566654 72.96391 
L 125.681528 72.713534 
L 125.816471 72.713534 
L 125.931474 72.592246 
L 126.066559 72.592246 
L 126.181723 72.384315 
L 126.317025 72.384315 
L 126.432349 72.214389 
L 126.567809 72.214389 
L 126.683283 71.939855 
L 126.81891 71.939855 
L 126.934497 71.792936 
L 127.07029 71.792936 
L 127.18603 71.549068 
L 127.321944 71.549068 
L 127.437791 71.407737 
L 127.826122 71.30858 
L 127.942213 71.197692 
L 128.07858 71.197692 
L 128.189747 71.009584 
L 128.331352 71.009584 
L 128.442733 70.806507 
L 128.584587 70.806507 
L 128.6961 70.691439 
L 128.838101 70.691439 
L 128.949751 70.496508 
L 129.091948 70.496508 
L 129.20371 70.137732 
L 129.346066 70.137732 
L 129.457998 69.893351 
L 129.600557 69.893351 
L 129.712681 69.769014 
L 129.8555 69.769014 
L 129.967785 69.625294 
L 130.366222 69.591856 
L 130.478728 69.509715 
L 131.134622 69.462351 
L 131.247629 69.258451 
L 131.391546 69.258451 
L 131.504651 69.142846 
L 131.905798 69.128285 
L 132.019057 68.997241 
L 132.163308 68.997241 
L 132.276756 68.794656 
L 132.421286 68.794656 
L 132.534945 68.53462 
L 132.679666 68.53462 
L 132.793425 68.3865 
L 132.938258 68.3865 
L 133.052062 68.186857 
L 133.196937 68.186857 
L 133.310783 68.036032 
L 133.455647 68.036032 
L 133.569615 67.663099 
L 133.714961 67.663099 
L 133.829299 67.479639 
L 133.974893 67.479639 
L 134.089305 67.31043 
L 134.234931 67.31043 
L 134.349397 67.160354 
L 134.495177 67.160354 
L 134.609776 67.038399 
L 134.755775 67.038399 
L 134.870625 66.887863 
L 135.016937 66.887863 
L 135.131969 66.706849 
L 135.27842 66.706849 
L 135.393531 66.557746 
L 135.540083 66.557746 
L 135.655292 66.303977 
L 135.802025 66.303977 
L 135.917397 66.052668 
L 136.064217 66.052668 
L 136.179511 65.849137 
L 136.326352 65.849137 
L 136.441895 65.584138 
L 136.589175 65.584138 
L 136.704925 65.362945 
L 137.115595 65.257159 
L 137.2316 65.15206 
L 137.643583 65.122288 
L 137.759935 64.971939 
L 138.17283 64.906998 
L 138.284074 64.784899 
L 138.703102 64.688958 
L 138.814726 64.511914 
L 138.968997 64.511914 
L 139.080719 64.380718 
L 139.23498 64.380718 
L 139.346702 64.22563 
L 139.501053 64.22563 
L 139.612873 64.031818 
L 140.033999 63.982655 
L 140.146052 63.760273 
L 140.567986 63.713969 
L 140.680244 63.557484 
L 140.835293 63.557484 
L 140.947618 63.352268 
L 141.370544 63.300368 
L 141.483043 63.052676 
L 141.63845 63.052676 
L 141.751038 62.882505 
L 141.906614 62.882505 
L 142.019322 62.714633 
L 142.175003 62.714633 
L 142.287771 62.550921 
L 142.443567 62.550921 
L 142.556422 62.351381 
L 142.712333 62.351381 
L 142.82529 62.164135 
L 142.981366 62.164135 
L 143.094449 61.995581 
L 143.2507 61.995581 
L 143.363907 61.810788 
L 143.520274 61.810788 
L 143.63356 61.55581 
L 143.790102 61.55581 
L 143.903506 61.309187 
L 144.060111 61.309187 
L 144.173542 61.100198 
L 144.330243 61.100198 
L 144.443737 60.950074 
L 144.600505 60.950074 
L 144.714057 60.702972 
L 145.141575 60.618281 
L 145.255343 60.461709 
L 145.412488 60.461709 
L 145.526308 60.28575 
L 145.955097 60.197688 
L 146.069224 60.099477 
L 146.226908 60.099477 
L 146.341134 59.97161 
L 146.498923 59.97161 
L 146.613241 59.788112 
L 146.771138 59.788112 
L 146.885478 59.65735 
L 147.31567 59.599413 
L 147.430041 59.472393 
L 148.133894 59.384623 
L 148.248645 59.265101 
L 148.407147 59.265101 
L 148.521962 59.128977 
L 148.954549 59.078863 
L 149.069628 58.969945 
L 149.228533 58.969945 
L 149.343597 58.854776 
L 149.776615 58.832782 
L 149.891905 58.666348 
L 150.051199 58.666348 
L 150.166563 58.54083 
L 150.325856 58.54083 
L 150.441147 58.41232 
L 150.874765 58.331564 
L 150.990173 58.145631 
L 151.149708 58.145631 
L 151.265344 57.990892 
L 151.425204 57.990892 
L 151.541085 57.837419 
L 151.701194 57.837419 
L 151.817161 57.655013 
L 151.977277 57.655013 
L 152.093162 57.530397 
L 152.253061 57.530397 
L 152.368746 57.332983 
L 152.528456 57.332983 
L 152.644147 57.142029 
L 152.804007 57.142029 
L 152.91982 57.009073 
L 153.079839 57.009073 
L 153.195825 56.889855 
L 153.356206 56.889855 
L 153.472518 56.749731 
L 153.911304 56.661709 
L 154.027968 56.535873 
L 155.019712 56.446627 
L 155.136181 56.400182 
L 157.809096 56.423165 
L 157.921157 56.270764 
L 158.652329 56.166413 
L 158.7651 56.070066 
L 158.934212 56.070066 
L 159.046818 55.948793 
L 159.495776 55.910546 
L 159.607826 55.808592 
L 160.056425 55.741675 
L 160.168811 55.691803 
L 160.901219 55.617051 
L 161.014162 55.566831 
L 161.750118 55.478636 
L 161.863535 55.384225 
L 163.16586 55.452293 
L 163.279358 55.528978 
L 164.020854 55.608463 
L 164.135243 55.739642 
L 164.876999 55.794576 
L 164.990693 55.899733 
L 165.161088 55.899733 
L 165.274658 56.048477 
L 165.445032 56.048477 
L 165.55862 56.191725 
L 165.729035 56.191725 
L 165.842688 56.361312 
L 166.013268 56.361312 
L 166.127074 56.560554 
L 166.297893 56.560554 
L 166.411871 56.688425 
L 166.583085 56.688425 
L 166.697442 56.834476 
L 166.869307 56.834476 
L 166.984108 56.960113 
L 167.732073 56.914644 
L 167.847389 56.760854 
L 168.020497 56.760854 
L 168.135997 56.517557 
L 168.309317 56.517557 
L 168.424846 56.277119 
L 168.597948 56.277119 
L 168.713088 56.142015 
L 168.8853 56.142015 
L 168.999815 55.863711 
L 169.457097 55.791329 
L 169.571456 55.665172 
L 170.029196 55.596187 
L 170.143663 55.470125 
L 171.45871 55.566944 
L 171.573168 55.672519 
L 171.744966 55.672519 
L 171.859586 55.786896 
L 172.895594 55.893724 
L 173.011196 56.017478 
L 173.184696 56.017478 
L 173.300409 56.19157 
L 173.473908 56.19157 
L 173.589491 56.307256 
L 173.762809 56.307256 
L 173.878369 56.512052 
L 174.051794 56.512052 
L 174.167478 56.698357 
L 174.341067 56.698357 
L 174.456848 56.887549 
L 174.921134 56.998165 
L 175.037625 57.109132 
L 175.212613 57.109132 
L 175.329393 57.239909 
L 175.504603 57.239909 
L 175.621361 57.429607 
L 175.796453 57.429607 
L 175.913201 57.6406 
L 176.380631 57.7285 
L 176.497581 57.773821 
L 176.673009 57.773821 
L 176.789954 57.905756 
L 176.965196 57.905756 
L 177.081701 58.058248 
L 177.255965 58.058248 
L 177.371909 58.184788 
L 177.545975 58.184788 
L 177.662351 58.359698 
L 177.837543 58.359698 
L 177.948858 58.577816 
L 178.130895 58.577816 
L 178.242647 58.89541 
L 178.425035 58.89541 
L 178.536756 59.187041 
L 178.718665 59.187041 
L 178.835506 59.391259 
L 179.010091 59.391259 
L 179.126224 59.513519 
L 179.591924 59.475406 
L 179.708944 59.322603 
L 179.88434 59.322603 
L 180.000026 59.050659 
L 180.171225 59.050659 
L 180.284182 58.753467 
L 180.452625 58.753467 
L 180.565084 58.588271 
L 181.022793 58.603042 
L 181.139463 58.731322 
L 181.314713 58.731322 
L 181.425905 58.9102 
L 181.607737 58.9102 
L 181.719488 59.112618 
L 181.902308 59.112618 
L 182.014675 59.342367 
L 182.197744 59.342367 
L 182.30981 59.457756 
L 182.789596 59.547802 
L 182.902436 59.73841 
L 183.086208 59.73841 
L 183.198598 59.873191 
L 183.967463 59.979247 
L 184.079076 60.115174 
L 184.558556 60.183289 
L 184.67183 60.338525 
L 185.156801 60.336042 
L 185.270617 60.484641 
L 185.456102 60.484641 
L 185.56958 60.618968 
L 185.754216 60.618968 
L 185.866979 60.74325 
L 186.050228 60.74325 
L 186.162138 60.934957 
L 186.344419 60.934957 
L 186.456212 61.108456 
L 186.936469 61.125178 
L 187.050031 61.232946 
L 187.235611 61.232946 
L 187.349381 61.367045 
L 187.833582 61.43978 
L 187.946759 61.547115 
L 188.13084 61.547115 
L 188.243459 61.69424 
L 188.725329 61.719824 
L 188.839122 61.850808 
L 189.324936 61.879434 
L 189.438761 62.083693 
L 189.92296 62.137894 
L 190.0363 62.28857 
L 190.521223 62.316809 
L 190.635314 62.437658 
L 190.821393 62.437658 
L 190.935359 62.558986 
L 191.421267 62.651172 
L 191.541248 62.675972 
L 191.721489 62.675972 
L 191.835825 62.873826 
L 192.022547 62.873826 
L 192.137017 63.018211 
L 192.624984 63.074984 
L 192.739505 63.24529 
L 193.530387 63.337359 
L 193.645044 63.491663 
L 193.832006 63.491663 
L 193.946614 63.691771 
L 194.133645 63.691771 
L 194.248336 63.836715 
L 194.435577 63.836715 
L 194.550354 63.986236 
L 195.341764 64.049332 
L 195.456749 64.171445 
L 195.644451 64.171445 
L 195.759496 64.347662 
L 196.249956 64.440504 
L 196.364966 64.557494 
L 197.157333 64.637345 
L 197.272096 64.730958 
L 197.459366 64.730958 
L 197.57413 64.916914 
L 197.761426 64.916914 
L 197.876257 65.066085 
L 198.668251 65.027501 
L 198.783256 65.303507 
L 199.575648 65.233509 
L 199.690522 65.544536 
L 199.877845 65.544536 
L 199.992724 65.671302 
L 200.78534 65.689951 
L 200.900477 65.800618 
L 201.693984 65.857407 
L 201.80901 65.936143 
L 202.2998 65.963183 
L 202.415026 66.078496 
L 203.515724 66.054382 
L 203.631422 66.208037 
L 203.820223 66.208037 
L 203.93592 66.334466 
L 205.954185 66.413522 
L 206.070203 66.50059 
L 207.481493 66.599485 
L 207.597622 66.786809 
L 208.704076 66.850492 
L 208.820258 66.951515 
L 209.62203 67.034813 
L 209.738351 67.099409 
L 210.53935 67.11144 
L 210.655538 67.259279 
L 211.458299 67.35446 
L 211.574775 67.447428 
L 212.376792 67.472352 
L 212.492952 67.673974 
L 213.602208 67.703607 
L 213.71887 67.806079 
L 214.521808 67.851911 
L 214.638088 67.978967 
L 215.750634 68.027321 
L 215.868027 68.101113 
L 216.675155 68.198893 
L 216.792085 68.233984 
L 216.98293 68.233984 
L 217.10003 68.354935 
L 217.601423 68.44691 
L 217.713271 68.51201 
L 218.840907 68.576186 
L 218.958213 68.715502 
L 220.704954 68.822206 
L 220.816689 68.903959 
L 221.948961 68.946768 
L 222.06167 69.073135 
L 222.887657 69.163074 
L 222.999921 69.224528 
L 223.512091 69.227263 
L 223.624853 69.343553 
L 224.139767 69.45049 
L 224.252931 69.513042 
L 225.394274 69.588214 
L 225.507151 69.698854 
L 226.022082 69.746468 
L 226.135094 69.833155 
L 226.963163 69.899361 
L 227.076146 69.954474 
L 227.591043 70.03266 
L 227.704074 70.070922 
L 228.534762 70.175794 
L 228.648098 70.254028 
L 229.164663 70.347314 
L 229.27813 70.420791 
L 230.111758 70.513334 
L 230.225345 70.570737 
L 230.742549 70.647764 
L 230.856192 70.756127 
L 231.692021 70.85501 
L 231.806138 70.924686 
L 232.325389 71.015343 
L 232.439353 71.085806 
L 232.959304 71.135839 
L 233.073497 71.234606 
L 233.911711 71.317931 
L 234.026281 71.418402 
L 234.23002 71.418402 
L 234.344574 71.545061 
L 235.502086 71.637221 
L 235.616923 71.805137 
L 236.778775 71.898727 
L 236.893628 71.998237 
L 237.736745 72.062794 
L 237.851454 72.144319 
L 238.055454 72.144319 
L 238.170275 72.305864 
L 238.37447 72.305864 
L 238.489412 72.511442 
L 238.693987 72.511442 
L 238.809118 72.698216 
L 239.01364 72.698216 
L 239.12854 72.826396 
L 239.650925 72.834824 
L 239.765656 72.631107 
L 239.969728 72.631107 
L 240.084584 72.181656 
L 240.288954 72.181656 
L 240.403985 71.638181 
L 240.608403 71.638181 
L 240.723235 71.431674 
L 240.927021 71.431674 
L 241.041586 71.616882 
L 241.245389 71.616882 
L 241.360158 71.999926 
L 241.564386 71.999926 
L 241.679371 72.455683 
L 241.883952 72.455683 
L 241.999079 72.861606 
L 242.203666 72.861606 
L 242.318557 73.112013 
L 242.839327 73.119123 
L 242.953563 72.999753 
L 243.797741 73.110097 
L 243.913485 73.432676 
L 244.118857 73.432676 
L 244.234078 73.864349 
L 244.438282 73.864349 
L 244.552861 74.2347 
L 245.075427 74.278804 
L 245.190648 74.016163 
L 245.395871 74.016163 
L 245.511449 73.783598 
L 245.717041 73.783598 
L 245.832622 73.617246 
L 246.996766 73.710799 
L 247.112386 74.023832 
L 247.317844 74.023832 
L 247.433355 74.396002 
L 247.638643 74.396002 
L 247.75417 74.567844 
L 248.602655 74.671793 
L 248.731575 74.685025 
L 250.532214 74.733442 
L 250.647932 74.879578 
L 250.853869 74.879578 
L 250.969732 75.100466 
L 251.175528 75.100466 
L 251.291254 75.28291 
L 252.140726 75.220842 
L 252.256584 75.059869 
L 253.106707 75.093872 
L 253.222647 75.273306 
L 253.428713 75.273306 
L 253.544645 75.396371 
L 255.363799 75.473963 
L 255.479862 75.547665 
L 256.654815 75.521398 
L 256.771112 75.777538 
L 256.97786 75.777538 
L 257.094158 75.891528 
L 257.946728 75.837255 
L 258.06301 75.734996 
L 258.916245 75.804517 
L 259.032544 75.931138 
L 259.56262 75.878468 
L 259.678998 75.81751 
L 261.504502 75.818079 
L 261.620986 75.931603 
L 264.743432 75.86025 
L 264.860237 75.813057 
L 267.016696 75.731536 
L 267.133746 75.676035 
L 268.96914 75.602765 
L 269.086381 75.518982 
L 269.946367 75.497403 
L 270.063628 75.354872 
L 270.597701 75.351973 
L 270.714926 75.206954 
L 271.901385 75.098029 
L 272.018825 74.864989 
L 272.553959 74.856394 
L 272.671495 74.719295 
L 274.187454 74.720017 
L 274.305112 74.544907 
L 274.84107 74.573473 
L 274.958717 74.407501 
L 275.495103 74.319635 
L 275.612813 74.131042 
L 275.822129 74.131042 
L 275.93337 73.95715 
L 276.804071 73.849582 
L 276.915496 73.745129 
L 277.131828 73.745129 
L 277.243241 73.578635 
L 277.459561 73.578635 
L 277.571032 73.43 
L 277.787352 73.43 
L 277.898766 73.237612 
L 278.115162 73.237612 
L 278.226654 73.390006 
L 278.44308 73.390006 
L 278.554642 73.257757 
L 279.099408 73.207404 
L 279.217586 73.140315 
L 279.427599 73.140315 
L 279.539187 72.976835 
L 280.412885 72.874572 
L 280.524608 72.693498 
L 281.070284 72.585753 
L 281.182039 72.329368 
L 281.7278 72.276505 
L 281.839622 72.196998 
L 282.056801 72.196998 
L 282.168718 72.012844 
L 282.385994 72.012844 
L 282.497968 71.881619 
L 283.044807 71.811879 
L 283.15683 71.681838 
L 283.70383 71.581737 
L 283.822486 71.540732 
L 284.033392 71.540732 
L 284.145444 71.358639 
L 284.363078 71.358639 
L 284.475216 71.124882 
L 284.692833 71.124882 
L 284.804943 70.995888 
L 285.022593 70.995888 
L 285.134728 70.792349 
L 285.352351 70.792349 
L 285.464506 70.661267 
L 286.012207 70.647042 
L 286.124437 70.469562 
L 286.342336 70.469562 
L 286.454595 70.245701 
L 286.672525 70.245701 
L 286.784833 70.094946 
L 287.002776 70.094946 
L 287.115064 69.947784 
L 287.333061 69.947784 
L 287.445377 69.793818 
L 287.993786 69.684471 
L 288.106177 69.453328 
L 288.324362 69.453328 
L 288.436782 69.338784 
L 288.654972 69.338784 
L 288.767393 69.104278 
L 288.985542 69.104278 
L 289.097951 68.981453 
L 289.316226 68.981453 
L 289.428639 68.834692 
L 289.977806 68.766564 
L 290.09036 68.478565 
L 290.308811 68.478565 
L 290.42138 68.18964 
L 290.639896 68.18964 
L 290.752451 68.041405 
L 290.970967 68.041405 
L 291.08352 67.742513 
L 291.96429 67.650418 
L 292.076865 67.468611 
L 292.295512 67.468611 
L 292.408201 67.281901 
L 292.627078 67.281901 
L 292.739824 67.163188 
L 292.958526 67.163188 
L 293.071147 66.849598 
L 293.289736 66.849598 
L 293.402374 66.699767 
L 293.621243 66.699767 
L 293.73407 66.565925 
L 293.953067 66.565925 
L 294.065832 66.379008 
L 294.284718 66.379008 
L 294.397524 66.150316 
L 294.948744 66.114078 
L 295.061609 65.701174 
L 295.280628 65.701174 
L 295.393437 65.496685 
L 295.612529 65.496685 
L 295.725453 65.366697 
L 295.944717 65.366697 
L 296.057637 65.146896 
L 296.276785 65.146896 
L 296.389697 64.844255 
L 296.608886 64.844255 
L 296.721821 64.703461 
L 296.941038 64.703461 
L 297.053959 64.490197 
L 297.273096 64.490197 
L 297.385988 64.268576 
L 297.605071 64.268576 
L 297.717961 64.098837 
L 297.93723 64.098837 
L 298.050197 63.892122 
L 298.269445 63.892122 
L 298.382375 63.697588 
L 298.601566 63.697588 
L 298.714463 63.398705 
L 298.933712 63.398705 
L 299.046694 63.180089 
L 299.266047 63.180089 
L 299.379075 62.983328 
L 299.598444 62.983328 
L 299.711452 62.784736 
L 299.930851 62.784736 
L 300.043928 62.550262 
L 300.263477 62.550262 
L 300.376602 62.393121 
L 300.596192 62.393121 
L 300.709334 62.268883 
L 300.928956 62.268883 
L 301.042089 61.957832 
L 301.261698 61.957832 
L 301.374869 61.775248 
L 301.594538 61.775248 
L 301.707695 61.58594 
L 301.927439 61.58594 
L 302.040638 61.293771 
L 302.260376 61.293771 
L 302.373604 61.104456 
L 302.593412 61.104456 
L 302.706626 60.889659 
L 302.926376 60.889659 
L 303.039629 60.684684 
L 303.259491 60.684684 
L 303.372751 60.480585 
L 303.59263 60.480585 
L 303.705899 60.310451 
L 303.925756 60.310451 
L 304.039004 60.040571 
L 304.258842 60.040571 
L 304.372069 59.752006 
L 304.591834 59.752006 
L 304.705068 59.555556 
L 304.924978 59.555556 
L 305.038301 59.325377 
L 305.258286 59.325377 
L 305.371637 59.119073 
L 305.591661 59.119073 
L 305.704939 58.947676 
L 305.924815 58.947676 
L 306.038091 58.762299 
L 306.257995 58.762299 
L 306.371277 58.585171 
L 306.924565 58.489 
L 307.037903 58.261337 
L 307.257938 58.261337 
L 307.371325 58.140224 
L 307.591491 58.140224 
L 307.704949 57.966362 
L 307.925269 57.966362 
L 308.038791 57.757304 
L 308.592943 57.698145 
L 308.70641 57.593297 
L 309.260368 57.526084 
L 309.373789 57.343267 
L 309.593933 57.343267 
L 309.707289 57.197448 
L 310.260707 57.107025 
L 310.374077 56.804225 
L 310.594155 56.804225 
L 310.707543 56.674447 
L 310.927713 56.674447 
L 311.041187 56.553515 
L 311.261572 56.553515 
L 311.375145 56.440371 
L 311.929216 56.411159 
L 312.042588 56.22042 
L 312.596031 56.158496 
L 312.709528 55.989981 
L 312.930032 55.989981 
L 313.043652 55.829176 
L 313.930367 55.753906 
L 314.043752 55.575817 
L 314.598093 55.527358 
L 314.711677 55.355157 
L 314.931961 55.355157 
L 315.045303 55.146059 
L 315.265127 55.146059 
L 315.37835 54.943155 
L 315.93121 54.901631 
L 316.044516 54.756118 
L 316.598944 54.704581 
L 316.712653 54.529308 
L 317.598891 54.455391 
L 317.711989 54.331742 
L 318.264982 54.246371 
L 318.378596 54.191325 
L 318.5993 54.191325 
L 318.713021 54.038124 
L 319.601071 53.955813 
L 319.714421 53.914963 
L 321.602507 53.823976 
L 321.716167 53.718689 
L 325.277054 53.774638 
L 325.390035 53.885939 
L 326.276555 53.82113 
L 326.390313 53.766994 
L 328.612396 53.657464 
L 328.725407 53.617409 
L 330.615456 53.687285 
L 330.728605 53.776324 
L 330.948652 53.776324 
L 331.062169 53.998494 
L 331.282647 53.998494 
L 331.396248 54.22957 
L 331.616736 54.22957 
L 331.730291 54.425955 
L 331.950681 54.425955 
L 332.064219 54.624367 
L 332.284698 54.624367 
L 332.398331 54.820186 
L 332.617594 54.820186 
L 332.730466 54.981696 
L 332.950821 54.981696 
L 333.064714 55.119845 
L 333.285884 55.119845 
L 333.399807 55.256924 
L 335.617854 55.347779 
L 335.730451 55.394194 
L 336.277578 55.467095 
L 336.395997 55.515629 
L 337.264724 55.623115 
L 337.383557 55.667699 
L 337.926247 55.700669 
L 338.039006 55.882746 
L 338.589945 55.982986 
L 338.702909 56.146766 
L 338.922353 56.146766 
L 339.035469 56.264981 
L 339.255243 56.264981 
L 339.368579 56.519136 
L 339.588793 56.519136 
L 339.702367 56.7489 
L 339.923126 56.7489 
L 340.036985 57.029257 
L 340.258112 57.029257 
L 340.372034 57.246708 
L 340.593166 57.246708 
L 340.706906 57.476597 
L 340.92707 57.476597 
L 341.040234 57.630459 
L 341.591421 57.741125 
L 341.717407 57.755081 
L 342.909493 57.67768 
L 343.027267 57.617796 
L 344.881865 57.692426 
L 344.994442 57.858935 
L 345.545274 57.939002 
L 345.65836 58.129507 
L 345.878169 58.129507 
L 345.991543 58.289169 
L 346.211874 58.289169 
L 346.325475 58.483304 
L 346.546158 58.483304 
L 346.659884 58.802672 
L 346.880525 58.802672 
L 346.994103 59.167032 
L 347.214382 59.167032 
L 347.327762 59.450178 
L 347.547858 59.450178 
L 347.661317 59.710281 
L 347.88174 59.710281 
L 347.995426 60.043313 
L 348.216581 60.043313 
L 348.330827 60.370389 
L 348.553157 60.370389 
L 348.667826 60.695283 
L 348.890367 60.695283 
L 349.004895 61.0738 
L 349.892146 60.975999 
L 350.008434 60.775602 
L 351.196272 60.883081 
L 351.313911 61.020483 
L 351.523125 61.020483 
L 351.634375 61.151103 
L 352.179138 61.259489 
L 352.297742 61.286474 
L 353.83439 61.393455 
L 353.946859 61.47764 
L 355.161073 61.549903 
L 355.274139 61.707305 
L 355.493748 61.707305 
L 355.606897 61.873286 
L 356.159593 61.930578 
L 356.272906 62.090535 
L 356.492987 62.090535 
L 356.606439 62.346955 
L 356.826703 62.346955 
L 356.94016 62.536162 
L 357.160308 62.536162 
L 357.273755 62.647639 
L 357.828276 62.704293 
L 357.941845 62.847836 
L 358.161992 62.847836 
L 358.275242 63.074877 
L 358.494729 63.074877 
L 358.607535 63.328259 
L 359.484699 63.394578 
L 359.596312 63.525651 
L 360.140432 63.611727 
L 360.251784 63.89766 
L 360.467939 63.89766 
L 360.579281 64.009111 
L 361.450315 63.941168 
L 361.561632 64.460739 
L 361.777617 64.460739 
L 361.895318 64.313531 
L 362.431337 64.338143 
L 362.548972 64.692092 
L 364.716924 64.74313 
L 364.834236 64.925222 
L 366.35019 64.999046 
L 366.467723 65.117952 
L 367.655155 65.18248 
L 367.772586 65.311006 
L 368.307282 65.378124 
L 368.424668 65.467134 
L 369.284438 65.530302 
L 369.40153 65.627853 
L 369.934642 65.637754 
L 370.051586 65.771951 
L 371.23157 65.820573 
L 371.348127 65.884127 
L 372.525836 65.946823 
L 372.642026 66.014177 
L 373.17114 66.063534 
L 373.287396 66.20225 
L 373.817074 66.275951 
L 373.93321 66.354723 
L 374.782773 66.41754 
L 374.89836 66.648649 
L 376.068631 66.65249 
L 376.184498 66.843031 
L 376.711289 66.841783 
L 376.826685 66.966293 
L 377.995918 67.042134 
L 378.112091 67.088259 
L 378.961973 67.186299 
L 379.07748 67.226522 
L 379.282693 67.226522 
L 379.39819 67.349889 
L 379.926491 67.450688 
L 380.042949 67.551986 
L 380.894801 67.564187 
L 381.010195 67.66969 
L 381.21513 67.66969 
L 381.33041 67.82737 
L 382.501596 67.915001 
L 382.61777 67.939727 
L 383.145784 68.000992 
L 383.261227 68.058555 
L 384.430354 68.07741 
L 384.546644 68.1756 
L 385.396437 68.251865 
L 385.511816 68.322627 
L 386.038648 68.339976 
L 386.154511 68.519585 
L 387.325265 68.597456 
L 387.440843 68.645105 
L 387.966982 68.729534 
L 388.082442 68.793428 
L 388.607942 68.88083 
L 388.723199 68.95925 
L 389.568231 69.054609 
L 389.683383 69.13083 
L 390.527488 69.236231 
L 390.642448 69.300306 
L 391.165756 69.390532 
L 391.280567 69.494101 
L 391.803783 69.581625 
L 391.918805 69.626593 
L 392.442802 69.68466 
L 392.557679 69.754834 
L 393.080531 69.842377 
L 393.195328 69.959011 
L 393.719302 70.024322 
L 393.834404 70.071802 
L 394.358506 70.153426 
L 394.473353 70.234294 
L 394.99646 70.301441 
L 395.111331 70.365355 
L 395.634577 70.467924 
L 395.749418 70.537655 
L 396.272688 70.573007 
L 396.387608 70.702234 
L 396.591794 70.702234 
L 396.70654 70.847693 
L 397.547624 70.866117 
L 397.662352 71.007742 
L 397.866574 71.007742 
L 397.98159 71.182903 
L 398.486279 71.22726 
L 398.486279 71.22726 
" style="fill:none;stroke:#000000;stroke-linecap:square;stroke-width:0.7;"/>
   </g>
   <g id="line2d_30">
    <path clip-path="url(#p0aaf809d1b)" d="M 98.185993 247.696591 
L 98.496605 247.729366 
L 98.607798 247.983257 
L 98.632096 247.983257 
L 98.745379 248.148218 
L 98.902145 248.235335 
L 99.013348 248.336034 
L 99.037803 248.336034 
L 99.149317 248.543436 
L 99.173809 248.543436 
L 99.285383 248.695818 
L 99.309877 248.695818 
L 99.421462 248.8562 
L 99.445963 248.8562 
L 99.557646 249.135225 
L 99.582184 249.135225 
L 99.694066 249.308422 
L 99.718638 249.308422 
L 99.830566 249.459651 
L 100.128445 249.499319 
L 100.239945 249.573897 
L 100.537412 249.66287 
L 100.649527 249.711639 
L 101.362645 249.705045 
L 101.474741 249.570589 
L 101.643308 249.45995 
L 101.845666 249.415111 
L 102.488723 249.305495 
L 102.600143 249.253631 
L 102.774164 249.18125 
L 102.887832 249.061909 
L 103.05848 248.980199 
L 103.169948 248.853421 
L 103.345547 248.7588 
L 103.458064 248.686835 
L 103.634122 248.602176 
L 103.74707 248.509008 
L 103.924792 248.405417 
L 104.035999 248.255939 
L 104.218508 248.166468 
L 104.330816 248.106573 
L 104.657598 248.005287 
L 104.769588 247.90253 
L 104.946603 247.802527 
L 105.058017 247.686181 
L 105.093399 247.686181 
L 105.206199 247.542321 
L 105.242086 247.542321 
L 105.353589 247.359198 
L 105.545663 247.251008 
L 105.658348 247.195019 
L 105.999531 247.103103 
L 106.111149 247.019852 
L 106.314573 246.939883 
L 106.427711 246.838741 
L 106.636566 246.763849 
L 106.750615 246.704493 
L 106.936914 246.596751 
L 107.049364 246.556431 
L 107.567142 246.495938 
L 107.680916 246.435159 
L 107.897062 246.383245 
L 108.009679 246.224748 
L 108.068567 246.224748 
L 108.18124 246.105333 
L 109.304469 246.071354 
L 109.418793 245.943648 
L 110.124546 245.915472 
L 110.23857 245.824226 
L 111.421204 245.750846 
L 111.533978 245.703811 
L 111.861918 245.640597 
L 111.975907 245.516429 
L 112.332095 245.414942 
L 112.44499 245.366575 
L 112.577595 245.366575 
L 112.689934 245.230643 
L 113.80362 245.152584 
L 113.916398 245.11403 
L 114.536955 245.054709 
L 114.648743 244.92802 
L 115.022611 244.823784 
L 115.1347 244.714263 
L 116.456854 244.680948 
L 116.568903 244.560189 
L 116.942623 244.461269 
L 117.054482 244.39126 
L 117.675563 244.34043 
L 117.788526 244.263522 
L 118.902512 244.308633 
L 119.015427 244.420374 
L 119.39425 244.504072 
L 119.507578 244.572178 
L 120.134825 244.654499 
L 120.248533 244.728026 
L 120.875371 244.826313 
L 120.988549 244.894574 
L 121.367411 244.986716 
L 121.480582 245.129159 
L 123.088214 245.234716 
L 123.201563 245.312277 
L 127.826122 245.410136 
L 127.942213 245.464259 
L 128.584587 245.528328 
L 128.6961 245.643716 
L 129.091948 245.653479 
L 129.20371 245.756435 
L 130.366222 245.823323 
L 130.478728 245.932866 
L 130.621988 245.932866 
L 130.73463 246.073506 
L 131.134622 246.136065 
L 131.247629 246.213927 
L 131.391546 246.213927 
L 131.504651 246.349842 
L 131.905798 246.45951 
L 132.019057 246.678397 
L 132.938258 246.757483 
L 133.052062 246.798949 
L 133.455647 246.850832 
L 133.569615 246.912919 
L 134.234931 246.971067 
L 134.349397 247.025687 
L 134.755775 247.100818 
L 134.870625 247.174791 
L 135.016937 247.174791 
L 135.131969 247.328872 
L 135.540083 247.385504 
L 135.655292 247.535509 
L 136.064217 247.624001 
L 136.179511 247.695511 
L 136.589175 247.75949 
L 136.704925 247.893866 
L 137.115595 247.976137 
L 137.2316 248.100737 
L 137.37938 248.100737 
L 137.495583 248.235251 
L 137.643583 248.235251 
L 137.759935 248.355103 
L 137.908089 248.355103 
L 138.024548 248.479027 
L 138.17283 248.479027 
L 138.284074 248.715372 
L 138.703102 248.822955 
L 138.814726 248.951145 
L 138.968997 248.951145 
L 139.080719 249.081947 
L 139.501053 249.181876 
L 139.612873 249.251458 
L 140.033999 249.360425 
L 140.146052 249.518507 
L 140.567986 249.615829 
L 140.680244 249.781663 
L 141.102809 249.888646 
L 141.215237 249.952426 
L 141.63845 250.050025 
L 141.751038 250.148214 
L 142.175003 250.250774 
L 142.287771 250.308996 
L 142.712333 250.387291 
L 142.82529 250.50008 
L 144.060111 250.609261 
L 144.178945 250.624714 
L 144.330243 250.624714 
L 144.443737 250.742013 
L 144.870912 250.836526 
L 144.984547 250.917854 
L 145.683581 250.971534 
L 145.797567 251.05637 
L 146.498923 251.150629 
L 146.613241 251.21531 
L 147.588066 251.257933 
L 147.702581 251.377274 
L 147.860815 251.377274 
L 147.975468 251.561435 
L 150.325856 251.644229 
L 150.441147 251.703419 
L 152.253061 251.596748 
L 152.374253 251.584063 
L 153.633413 251.673826 
L 153.750095 251.725049 
L 155.297173 251.744395 
L 155.413911 251.850327 
L 156.133743 251.897847 
L 156.245377 251.994327 
L 157.249867 251.887378 
L 157.367168 251.84962 
L 158.089491 251.741411 
L 158.2131 251.72769 
L 159.775914 251.630414 
L 159.88804 251.585264 
L 160.901219 251.478796 
L 161.014162 251.420486 
L 161.466686 251.343529 
L 161.580022 251.27563 
L 162.033592 251.192213 
L 162.146898 251.117597 
L 162.882582 251.20272 
L 162.995819 251.274015 
L 163.449881 251.351993 
L 163.563782 251.403371 
L 164.020854 251.461652 
L 164.135243 251.562171 
L 165.161088 251.62881 
L 165.274658 251.720478 
L 165.729035 251.793751 
L 165.842688 251.872199 
L 166.297893 251.960785 
L 166.411871 251.995075 
L 167.444079 251.95109 
L 167.559218 251.756278 
L 167.732073 251.756278 
L 167.847389 251.479442 
L 168.020497 251.479442 
L 168.135997 251.120435 
L 168.309317 251.120435 
L 168.424846 250.732495 
L 168.597948 250.732495 
L 168.713088 250.393023 
L 168.8853 250.393023 
L 168.999815 249.955861 
L 169.171333 249.955861 
L 169.285627 249.663003 
L 169.457097 249.663003 
L 169.571456 249.372264 
L 169.743062 249.372264 
L 169.857501 249.113597 
L 170.029196 249.113597 
L 170.143663 248.828834 
L 170.31535 248.828834 
L 170.429785 248.686102 
L 170.887182 248.578821 
L 171.024295 248.570383 
L 171.744966 248.468873 
L 171.859586 248.359037 
L 172.031697 248.359037 
L 172.146564 248.245103 
L 172.606978 248.180814 
L 172.722347 248.124564 
L 173.762809 248.101904 
L 173.878369 248.013267 
L 174.341067 247.939514 
L 174.456848 247.842457 
L 175.796453 247.758436 
L 175.913201 247.623511 
L 176.088376 247.623511 
L 176.205235 247.446045 
L 176.380631 247.446045 
L 176.497581 247.249454 
L 176.673009 247.249454 
L 176.789954 247.094623 
L 176.965196 247.094623 
L 177.081701 246.934591 
L 178.425035 246.837713 
L 178.536756 246.739357 
L 178.718665 246.739357 
L 178.835506 246.609452 
L 179.010091 246.609452 
L 179.126224 246.438182 
L 179.30046 246.438182 
L 179.416841 246.244024 
L 179.591924 246.244024 
L 179.703089 246.065601 
L 179.88434 246.065601 
L 180.000026 245.848831 
L 180.171225 245.848831 
L 180.284182 245.579668 
L 180.452625 245.579668 
L 180.565084 245.28939 
L 180.73488 245.28939 
L 180.849152 245.062237 
L 181.314713 244.962427 
L 181.425905 244.797279 
L 181.607737 244.797279 
L 181.719488 244.67788 
L 181.902308 244.67788 
L 182.014675 244.562688 
L 182.789596 244.490895 
L 182.902436 244.414335 
L 183.086208 244.414335 
L 183.198598 244.277634 
L 183.381434 244.277634 
L 183.493091 244.117388 
L 184.261862 244.037132 
L 184.374342 243.969138 
L 184.857172 243.882521 
L 184.970996 243.552903 
L 185.156801 243.552903 
L 185.270617 243.393541 
L 185.456102 243.393541 
L 185.56958 243.273839 
L 186.050228 243.242451 
L 186.162138 243.154538 
L 186.344419 243.154538 
L 186.456212 243.014424 
L 186.639191 243.014424 
L 186.751846 242.87302 
L 186.936469 242.87302 
L 187.050031 242.620118 
L 187.534914 242.650795 
L 187.648507 242.502148 
L 187.833582 242.502148 
L 187.946759 242.369983 
L 188.13084 242.369983 
L 188.243459 242.191995 
L 188.725329 242.112544 
L 188.839122 241.957675 
L 189.025065 241.957675 
L 189.139066 241.801403 
L 189.624357 241.745917 
L 189.73795 241.601624 
L 190.22147 241.536853 
L 190.335226 241.449357 
L 190.521223 241.449357 
L 190.635314 241.242227 
L 190.821393 241.242227 
L 190.935359 241.096022 
L 191.121352 241.096022 
L 191.235343 240.945669 
L 191.421267 240.945669 
L 191.535247 240.800341 
L 192.323749 240.770207 
L 192.438225 240.632728 
L 193.22844 240.552616 
L 193.343226 240.439428 
L 193.530387 240.439428 
L 193.645044 240.289966 
L 194.435577 240.191905 
L 194.550354 240.110531 
L 195.644451 240.081314 
L 195.759496 239.93428 
L 197.761426 239.895129 
L 197.876257 239.81831 
L 198.36583 239.72675 
L 198.4807 239.651171 
L 198.668251 239.651171 
L 198.783256 239.797096 
L 200.78534 239.869559 
L 200.900477 239.961238 
L 202.2998 240.065861 
L 202.415026 240.162073 
L 202.907097 240.168156 
L 203.022674 240.374261 
L 204.124681 240.456811 
L 204.240318 240.56756 
L 204.733709 240.674295 
L 204.849575 240.801345 
L 205.343766 240.863874 
L 205.459734 240.949802 
L 205.954185 241.019233 
L 206.070203 241.216694 
L 206.564789 241.321049 
L 206.680872 241.483267 
L 207.481493 241.544587 
L 207.597622 241.692666 
L 207.787128 241.692666 
L 207.903253 241.815629 
L 208.092715 241.815629 
L 208.208877 242.097156 
L 208.398412 242.097156 
L 208.514553 242.275935 
L 209.009837 242.356159 
L 209.126113 242.405851 
L 209.315956 242.405851 
L 209.432277 242.589918 
L 209.62203 242.589918 
L 209.738351 242.769619 
L 209.927979 242.769619 
L 210.044109 243.025468 
L 210.233635 243.025468 
L 210.349841 243.216316 
L 210.53935 243.216316 
L 210.655538 243.341047 
L 210.845288 243.341047 
L 210.961639 243.511528 
L 211.151617 243.511528 
L 211.26816 243.699515 
L 211.458299 243.699515 
L 211.574775 243.923547 
L 211.764817 243.923547 
L 211.881244 244.121825 
L 212.376792 244.202125 
L 212.492952 244.380121 
L 212.68256 244.380121 
L 212.798883 244.642937 
L 212.988748 244.642937 
L 213.105169 244.870583 
L 213.295371 244.870583 
L 213.411976 245.136919 
L 213.602208 245.136919 
L 213.71887 245.321497 
L 214.215828 245.350286 
L 214.332167 245.588798 
L 214.521808 245.588798 
L 214.638088 245.898653 
L 214.827941 245.898653 
L 214.944359 246.193724 
L 215.134564 246.193724 
L 215.251329 246.447186 
L 215.750634 246.520012 
L 215.868027 246.662853 
L 216.059439 246.662853 
L 216.176625 246.956242 
L 216.36744 246.956242 
L 216.484322 247.262717 
L 216.675155 247.262717 
L 216.792085 247.535762 
L 216.98293 247.535762 
L 217.10003 247.647069 
L 217.291372 247.647069 
L 217.40281 247.79657 
L 217.601423 247.79657 
L 217.713271 248.086093 
L 217.912156 248.086093 
L 218.024027 248.451393 
L 218.222721 248.451393 
L 218.334263 248.793567 
L 218.532259 248.793567 
L 218.649598 248.939272 
L 219.149685 249.045946 
L 219.261049 249.338044 
L 219.459481 249.338044 
L 219.571343 249.705217 
L 219.770509 249.705217 
L 219.882692 250.081881 
L 220.082245 250.081881 
L 220.194454 250.248941 
L 220.704954 250.351878 
L 220.816689 250.63864 
L 221.015193 250.63864 
L 221.126796 251.033769 
L 221.325366 251.033769 
L 221.437231 251.38706 
L 221.636518 251.38706 
L 221.748856 251.528587 
L 222.262228 251.631983 
L 222.37504 251.900808 
L 222.575394 251.900808 
L 222.687921 252.306018 
L 222.887657 252.306018 
L 222.999921 252.734521 
L 223.199544 252.734521 
L 223.31198 252.898062 
L 223.825625 252.991367 
L 223.938668 253.269172 
L 224.139767 253.269172 
L 224.252931 253.682931 
L 224.453918 253.682931 
L 224.566792 254.119485 
L 224.767337 254.119485 
L 224.880141 254.32903 
L 225.080791 254.32903 
L 225.193674 254.45416 
L 225.394274 254.45416 
L 225.507151 254.732817 
L 225.708031 254.732817 
L 225.821097 255.152357 
L 226.022082 255.152357 
L 226.135094 255.584677 
L 226.335777 255.584677 
L 226.448651 255.794868 
L 226.649396 255.794868 
L 226.762339 255.929207 
L 226.963163 255.929207 
L 227.076146 256.214453 
L 227.277069 256.214453 
L 227.390111 256.635817 
L 227.591043 256.635817 
L 227.704074 257.069304 
L 227.905198 257.069304 
L 228.01861 257.315301 
L 228.220097 257.315301 
L 228.333372 257.481896 
L 228.534762 257.481896 
L 228.648098 257.773322 
L 228.849671 257.773322 
L 228.963058 258.195619 
L 229.164663 258.195619 
L 229.27813 258.616311 
L 229.480053 258.616311 
L 229.593744 258.876238 
L 229.795991 258.876238 
L 229.909724 259.066466 
L 230.111758 259.066466 
L 230.225345 259.362668 
L 230.427167 259.362668 
L 230.540679 259.760731 
L 230.742549 259.760731 
L 230.856192 260.195805 
L 231.058474 260.195805 
L 231.1724 260.484699 
L 231.375092 260.484699 
L 231.489158 260.675947 
L 231.692021 260.675947 
L 231.806138 260.947892 
L 232.008914 260.947892 
L 232.122872 261.327549 
L 232.325389 261.327549 
L 232.439353 261.756279 
L 232.64215 261.756279 
L 232.756305 262.076233 
L 232.959304 262.076233 
L 233.073497 262.28638 
L 233.27652 262.28638 
L 233.390754 262.567667 
L 233.59391 262.567667 
L 233.708246 262.935732 
L 233.911711 262.935732 
L 234.026281 263.367302 
L 234.23002 263.367302 
L 234.344574 263.704784 
L 234.548135 263.704784 
L 234.662611 263.90053 
L 234.866081 263.90053 
L 234.980494 264.140897 
L 235.183836 264.140897 
L 235.298283 264.520096 
L 235.502086 264.520096 
L 235.616923 264.98929 
L 235.821226 264.98929 
L 235.93613 265.346891 
L 236.140397 265.346891 
L 236.255328 265.539245 
L 236.459655 265.539245 
L 236.574593 265.746736 
L 236.778775 265.746736 
L 236.893628 266.099943 
L 237.098024 266.099943 
L 237.213104 266.588912 
L 237.417669 266.588912 
L 237.53264 266.989798 
L 237.736745 266.989798 
L 237.851454 267.22147 
L 238.055454 267.22147 
L 238.170275 267.373727 
L 238.37447 267.373727 
L 238.489412 267.681598 
L 238.693987 267.681598 
L 238.809118 268.16165 
L 239.01364 268.16165 
L 239.12854 268.540731 
L 239.332498 268.540731 
L 239.447105 268.788964 
L 239.650925 268.788964 
L 239.765656 268.998685 
L 239.969728 268.998685 
L 240.084584 269.332011 
L 240.288954 269.332011 
L 240.403985 269.820153 
L 240.608403 269.820153 
L 240.723235 270.249189 
L 240.927021 270.249189 
L 241.041586 270.494286 
L 241.245389 270.494286 
L 241.360158 270.630267 
L 241.564386 270.630267 
L 241.679371 270.894193 
L 241.883952 270.894193 
L 241.999079 271.256347 
L 242.203666 271.256347 
L 242.318557 271.591849 
L 242.522209 271.591849 
L 242.636447 271.906373 
L 242.839327 271.906373 
L 242.953563 272.17192 
L 243.157137 272.17192 
L 243.271953 272.491077 
L 243.476545 272.491077 
L 243.59193 272.935009 
L 243.797741 272.935009 
L 243.913485 273.268745 
L 244.438282 273.373647 
L 244.552861 273.535207 
L 244.756433 273.535207 
L 244.87109 273.971322 
L 245.075427 273.971322 
L 245.190648 274.495263 
L 245.395871 274.495263 
L 245.511449 275.049118 
L 246.676288 274.947832 
L 246.791215 275.321946 
L 246.996766 275.321946 
L 247.112386 276.249312 
L 247.317844 276.249312 
L 247.433355 276.985681 
L 247.959703 276.9239 
L 248.075363 276.680952 
L 248.602655 276.609309 
L 248.718682 276.845962 
L 248.924833 276.845962 
L 249.040584 277.645598 
L 249.246473 277.645598 
L 249.362239 278.605827 
L 249.889214 278.595798 
L 250.004894 278.471952 
L 250.853869 278.561691 
L 250.969732 279.114422 
L 251.175528 279.114422 
L 251.291254 279.815905 
L 251.497137 279.815905 
L 251.61301 280.030468 
L 251.81897 280.030468 
L 251.934791 279.842778 
L 252.462641 279.920581 
L 252.57861 280.07135 
L 252.784737 280.07135 
L 252.900631 280.634643 
L 253.106707 280.634643 
L 253.222647 281.188281 
L 253.428713 281.188281 
L 253.544645 281.395115 
L 254.39583 281.343963 
L 254.511994 281.542409 
L 254.718548 281.542409 
L 254.834759 281.923387 
L 255.041298 281.923387 
L 255.157423 282.426363 
L 255.363799 282.426363 
L 255.479862 282.598726 
L 256.008715 282.706386 
L 256.124901 282.828447 
L 256.331621 282.828447 
L 256.447972 282.976548 
L 256.654815 282.976548 
L 256.771112 283.317923 
L 256.97786 283.317923 
L 257.094158 283.549602 
L 257.300881 283.549602 
L 257.417132 283.703426 
L 257.623809 283.703426 
L 257.740067 283.875773 
L 257.946728 283.875773 
L 258.06301 284.062661 
L 258.269854 284.062661 
L 258.386222 284.268341 
L 258.593098 284.268341 
L 258.709462 284.533471 
L 258.916245 284.533471 
L 259.032544 284.666035 
L 259.56262 284.721417 
L 259.678998 284.938977 
L 259.885977 284.938977 
L 260.002423 285.139376 
L 260.20957 285.139376 
L 260.326169 285.448411 
L 260.533462 285.448411 
L 260.650008 285.653368 
L 261.504502 285.763949 
L 261.620986 285.858572 
L 261.828051 285.858572 
L 261.94458 286.108972 
L 262.151798 286.108972 
L 262.26836 286.371868 
L 262.799285 286.471302 
L 262.915758 286.52438 
L 263.446467 286.625709 
L 263.563015 286.786882 
L 263.770324 286.786882 
L 263.886964 287.002224 
L 264.094508 287.002224 
L 264.211329 287.204122 
L 264.743432 287.236589 
L 264.860237 287.334929 
L 265.067854 287.334929 
L 265.184643 287.456305 
L 265.392324 287.456305 
L 265.509153 287.64484 
L 265.716962 287.64484 
L 265.833922 287.865745 
L 266.691642 287.943102 
L 266.808644 288.027266 
L 267.016696 288.027266 
L 267.133746 288.159473 
L 267.341826 288.159473 
L 267.458924 288.356764 
L 267.667171 288.356764 
L 267.784309 288.525629 
L 268.643559 288.574609 
L 268.760771 288.645343 
L 268.96914 288.645343 
L 269.086381 288.80249 
L 269.294818 288.80249 
L 269.41208 288.994711 
L 270.597701 289.104157 
L 270.714926 289.2318 
L 270.923381 289.2318 
L 271.040654 289.373215 
L 271.249218 289.373215 
L 271.366566 289.520975 
L 272.553959 289.618933 
L 272.671495 289.776454 
L 272.880403 289.776454 
L 272.997997 289.900045 
L 274.514224 289.954578 
L 274.631877 290.112804 
L 276.14929 290.205585 
L 276.260591 290.395616 
L 277.131828 290.472106 
L 277.249795 290.529195 
L 278.115162 290.617702 
L 278.233211 290.671556 
L 279.099408 290.57486 
L 279.211022 290.488769 
L 279.755936 290.596936 
L 279.874178 290.659369 
L 281.7278 290.693246 
L 281.839622 290.850071 
L 283.044807 290.754045 
L 283.163418 290.734189 
L 286.672525 290.651271 
L 286.784833 290.57262 
L 288.654972 290.488813 
L 288.767393 290.419676 
L 289.977806 290.308804 
L 290.09698 290.277845 
L 290.639896 290.178078 
L 290.752451 290.132726 
L 291.633069 290.16172 
L 291.745697 289.96348 
L 292.295512 289.935272 
L 292.408201 289.74847 
L 292.958526 289.710628 
L 293.071147 289.618016 
L 294.284718 289.559896 
L 294.397524 289.336139 
L 294.616653 289.336139 
L 294.729557 289.216989 
L 295.612529 289.11397 
L 295.725453 289.018951 
L 296.276785 289.060121 
L 296.389697 288.895724 
L 296.608886 288.895724 
L 296.721821 288.761453 
L 296.941038 288.761453 
L 297.053959 288.594488 
L 297.273096 288.594488 
L 297.385988 288.455983 
L 297.93723 288.374744 
L 298.050197 288.311006 
L 298.601566 288.262478 
L 298.714463 288.143214 
L 299.266047 288.099433 
L 299.379075 287.837963 
L 299.930851 287.739987 
L 300.043928 287.625798 
L 300.596192 287.541257 
L 300.709334 287.401468 
L 301.261698 287.296941 
L 301.374869 287.217359 
L 301.594538 287.217359 
L 301.707695 287.004447 
L 302.260376 286.92009 
L 302.373604 286.763692 
L 302.593412 286.763692 
L 302.706626 286.633643 
L 303.259491 286.568104 
L 303.372751 286.390274 
L 303.59263 286.390274 
L 303.705899 286.272403 
L 304.258842 286.189784 
L 304.372069 286.067035 
L 305.258286 285.962703 
L 305.371637 285.846253 
L 306.257995 285.755508 
L 306.371277 285.687692 
L 306.591204 285.687692 
L 306.704542 285.495634 
L 307.257938 285.484778 
L 307.371325 285.33528 
L 308.259165 285.22654 
L 308.372664 285.145868 
L 308.926699 285.069675 
L 309.040171 284.920941 
L 310.260707 284.811028 
L 310.374077 284.772997 
L 310.927713 284.693993 
L 311.041187 284.566247 
L 311.595545 284.504423 
L 311.709029 284.415687 
L 313.597171 284.339897 
L 313.71042 284.268152 
L 317.598891 284.349427 
L 317.711989 284.392888 
L 318.933647 284.338151 
L 319.047203 284.256142 
L 319.934403 284.318588 
L 320.047731 284.400103 
L 323.941021 284.361325 
L 324.055076 284.266184 
L 326.276555 284.374982 
L 326.390313 284.519671 
L 326.611339 284.519671 
L 326.725268 284.684743 
L 326.946493 284.684743 
L 327.060477 284.819922 
L 327.281614 284.819922 
L 327.395316 284.983118 
L 327.948144 285.058186 
L 328.06112 285.18389 
L 328.280309 285.18389 
L 328.393195 285.325208 
L 328.612396 285.325208 
L 328.725407 285.544362 
L 328.945074 285.544362 
L 329.058454 285.682781 
L 330.615456 285.603709 
L 330.728605 285.495297 
L 330.948652 285.495297 
L 331.062169 285.326774 
L 331.282647 285.326774 
L 331.396248 285.163265 
L 331.616736 285.163265 
L 331.730291 285.033614 
L 331.950681 285.033614 
L 332.064219 284.920971 
L 333.285884 284.93374 
L 333.399807 285.072565 
L 333.620753 285.072565 
L 333.734379 285.274923 
L 333.954511 285.274923 
L 334.067704 285.504086 
L 334.287197 285.504086 
L 334.400228 285.808716 
L 334.619713 285.808716 
L 334.732877 286.133425 
L 334.95268 286.133425 
L 335.065931 286.481128 
L 335.285652 286.481128 
L 335.398717 286.821554 
L 335.617854 286.821554 
L 335.730451 287.084401 
L 335.948334 287.084401 
L 336.060329 287.292972 
L 336.277578 287.292972 
L 336.38942 287.465647 
L 336.935175 287.558508 
L 337.047112 287.617041 
L 337.926247 287.715447 
L 338.039006 287.773137 
L 340.258112 287.824273 
L 340.372034 287.885932 
L 340.593166 287.885932 
L 340.706906 288.024712 
L 340.92707 288.024712 
L 341.040234 288.192539 
L 341.259579 288.192539 
L 341.372463 288.305858 
L 341.591421 288.305858 
L 341.704149 288.565366 
L 341.922758 288.565366 
L 342.035217 288.918838 
L 342.25316 288.918838 
L 342.365199 289.326706 
L 342.582107 289.326706 
L 342.693533 289.848484 
L 342.909493 289.848484 
L 343.020722 290.24637 
L 343.236855 290.24637 
L 343.348303 290.54564 
L 343.564734 290.54564 
L 343.676298 290.836336 
L 343.892922 290.836336 
L 344.004619 291.070357 
L 344.221735 291.070357 
L 344.333699 291.233822 
L 344.551343 291.233822 
L 344.663628 291.358928 
L 345.545274 291.455501 
L 345.65836 291.509762 
L 346.546158 291.445181 
L 346.659884 291.380817 
L 347.547858 291.381833 
L 347.661317 291.514077 
L 347.88174 291.514077 
L 347.995426 291.654047 
L 348.553157 291.762959 
L 348.667826 291.825634 
L 349.892146 291.886994 
L 350.008434 292.121212 
L 350.214687 292.121212 
L 350.33145 292.451314 
L 350.541242 292.451314 
L 350.652918 292.815314 
L 350.869278 292.815314 
L 350.980542 292.955986 
L 351.196272 292.955986 
L 351.313911 293.161898 
L 351.523125 293.161898 
L 351.634375 293.311467 
L 351.850614 293.311467 
L 351.962171 293.44625 
L 352.179138 293.44625 
L 352.291147 293.697999 
L 352.50896 293.697999 
L 352.621264 293.907714 
L 352.839408 293.907714 
L 352.951922 294.11434 
L 353.170738 294.11434 
L 353.283672 294.340107 
L 353.502892 294.340107 
L 353.615722 294.510555 
L 354.165209 294.597979 
L 354.277886 294.659147 
L 354.828802 294.754207 
L 354.941739 294.83978 
L 355.826635 294.948385 
L 355.939834 295.084149 
L 356.826703 295.159947 
L 356.94016 295.255297 
L 358.161992 295.275049 
L 358.275242 295.380524 
L 361.450315 295.488 
L 361.561632 295.239354 
L 362.104584 295.317655 
L 362.222202 295.366946 
L 362.431337 295.366946 
L 362.548972 295.226813 
L 363.411745 295.15925 
L 363.529452 295.104224 
L 364.716924 295.088789 
L 364.834236 294.982053 
L 365.369729 294.901994 
L 365.487426 294.704601 
L 366.676487 294.611289 
L 366.793912 294.464367 
L 367.002683 294.464367 
L 367.120079 294.318122 
L 367.328897 294.318122 
L 367.446358 294.19928 
L 368.307282 294.100597 
L 368.424668 293.92823 
L 368.633361 293.92823 
L 368.750661 293.808659 
L 368.959005 293.808659 
L 369.076204 293.579689 
L 369.934642 293.504701 
L 370.051586 293.314857 
L 370.259381 293.314857 
L 370.376137 293.163942 
L 370.583584 293.163942 
L 370.700287 292.861671 
L 370.907673 292.861671 
L 371.024289 292.701577 
L 371.55538 292.658832 
L 371.672039 292.521904 
L 371.879329 292.521904 
L 371.99584 292.331106 
L 372.202893 292.331106 
L 372.319247 292.094848 
L 372.525836 292.094848 
L 372.642026 291.827675 
L 372.848559 291.827675 
L 372.964646 291.70341 
L 373.17114 291.70341 
L 373.287396 291.546493 
L 373.494094 291.546493 
L 373.610378 291.31863 
L 373.817074 291.31863 
L 373.93321 291.075737 
L 374.139537 291.075737 
L 374.255542 290.837859 
L 374.782773 290.751933 
L 374.89836 290.532026 
L 375.103842 290.532026 
L 375.219499 290.252058 
L 375.425172 290.252058 
L 375.540888 289.988807 
L 375.746824 289.988807 
L 375.862699 289.719831 
L 376.068631 289.719831 
L 376.184498 289.581673 
L 376.711289 289.510784 
L 376.826685 289.179329 
L 377.031796 289.179329 
L 377.147231 288.845145 
L 377.352483 288.845145 
L 377.46803 288.541099 
L 377.67376 288.541099 
L 377.789659 288.404223 
L 377.995918 288.404223 
L 378.112091 288.291861 
L 378.318641 288.291861 
L 378.434721 288.017801 
L 378.640824 288.017801 
L 378.756506 287.694292 
L 378.961973 287.694292 
L 379.07748 287.363711 
L 379.282693 287.363711 
L 379.39819 287.242866 
L 379.603824 287.242866 
L 379.719783 287.101884 
L 379.926491 287.101884 
L 380.042949 286.793589 
L 380.250005 286.793589 
L 380.366434 286.429345 
L 380.573167 286.429345 
L 380.689147 286.070404 
L 380.894801 286.070404 
L 381.010195 285.925253 
L 381.21513 285.925253 
L 381.33041 285.795207 
L 381.535387 285.795207 
L 381.650858 285.476488 
L 381.856554 285.476488 
L 381.972492 285.099246 
L 382.178825 285.099246 
L 382.29504 284.736145 
L 382.501596 284.736145 
L 382.61777 284.585244 
L 382.824209 284.585244 
L 382.940138 284.435012 
L 383.145784 284.435012 
L 383.261227 284.09757 
L 383.466173 284.09757 
L 383.581402 283.708453 
L 383.786469 283.708453 
L 383.902 283.39747 
L 384.430354 283.289653 
L 384.546644 283.113318 
L 384.753388 283.113318 
L 384.869553 282.759762 
L 385.075637 282.759762 
L 385.191272 282.329068 
L 385.396437 282.329068 
L 385.511816 281.997318 
L 386.038648 281.902977 
L 386.154511 281.692708 
L 386.360611 281.692708 
L 386.476616 281.329597 
L 386.682818 281.329597 
L 386.798657 280.870748 
L 387.004251 280.870748 
L 387.119817 280.552116 
L 387.325265 280.552116 
L 387.440843 280.397011 
L 387.646243 280.397011 
L 387.761694 280.175727 
L 387.966982 280.175727 
L 388.082442 279.794759 
L 388.287547 279.794759 
L 388.402904 279.333667 
L 388.607942 279.333667 
L 388.723199 279.027781 
L 388.928097 279.027781 
L 389.043363 278.892225 
L 389.248264 278.892225 
L 389.363481 278.628499 
L 389.568231 278.628499 
L 389.683383 278.218006 
L 389.888046 278.218006 
L 390.003141 277.766248 
L 390.207783 277.766248 
L 390.322928 277.46836 
L 390.527488 277.46836 
L 390.642448 277.294252 
L 390.846726 277.294252 
L 390.961588 277.032606 
L 391.165756 277.032606 
L 391.280567 276.6217 
L 391.484648 276.6217 
L 391.599482 276.16841 
L 391.803783 276.16841 
L 391.918805 275.879969 
L 392.123401 275.879969 
L 392.238458 275.69615 
L 392.442802 275.69615 
L 392.557679 275.409139 
L 392.761883 275.409139 
L 392.876559 275.002752 
L 393.080531 275.002752 
L 393.195328 274.543319 
L 393.399639 274.543319 
L 393.514689 274.242959 
L 393.719302 274.242959 
L 393.834404 274.064098 
L 394.039027 274.064098 
L 394.154099 273.793709 
L 394.358506 273.793709 
L 394.473353 273.395144 
L 394.67743 273.395144 
L 394.792249 272.948361 
L 394.99646 272.948361 
L 395.111331 272.64408 
L 395.315539 272.64408 
L 395.430402 272.448863 
L 395.634577 272.448863 
L 395.749418 272.157528 
L 395.953569 272.157528 
L 396.068427 271.759768 
L 396.272688 271.759768 
L 396.387608 271.310485 
L 396.591794 271.310485 
L 396.70654 270.999195 
L 396.91035 270.999195 
L 397.024925 270.817759 
L 397.228975 270.817759 
L 397.343739 270.554237 
L 397.547624 270.554237 
L 397.662352 270.138016 
L 397.866574 270.138016 
L 397.98159 269.664195 
L 398.186102 269.664195 
L 398.301084 269.338406 
L 398.486279 269.338406 
L 398.486279 269.338406 
" style="fill:none;stroke:#000000;stroke-dasharray:2.59,1.12;stroke-dashoffset:0;stroke-width:0.7;"/>
   </g>
   <g id="patch_3">
    <path d="M 57.6 307.584 
L 57.6 41.472 
" style="fill:none;stroke:#000000;stroke-linecap:square;stroke-linejoin:miter;stroke-width:0.8;"/>
   </g>
   <g id="patch_4">
    <path d="M 414.72 307.584 
L 414.72 41.472 
" style="fill:none;stroke:#000000;stroke-linecap:square;stroke-linejoin:miter;stroke-width:0.8;"/>
   </g>
   <g id="patch_5">
    <path d="M 57.6 307.584 
L 414.72 307.584 
" style="fill:none;stroke:#000000;stroke-linecap:square;stroke-linejoin:miter;stroke-width:0.8;"/>
   </g>
   <g id="patch_6">
    <path d="M 57.6 41.472 
L 414.72 41.472 
" style="fill:none;stroke:#000000;stroke-linecap:square;stroke-linejoin:miter;stroke-width:0.8;"/>
   </g>
   <g id="legend_1">
    <g id="patch_7">
     <path d="M 214.324844 190.706125 
L 257.995156 190.706125 
Q 259.995156 190.706125 259.995156 188.706125 
L 259.995156 160.349875 
Q 259.995156 158.349875 257.995156 158.349875 
L 214.324844 158.349875 
Q 212.324844 158.349875 212.324844 160.349875 
L 212.324844 188.706125 
Q 212.324844 190.706125 214.324844 190.706125 
z
" style="fill:#ffffff;opacity:0.8;stroke:#cccccc;stroke-linejoin:miter;"/>
    </g>
    <g id="line2d_31">
     <path d="M 216.324844 166.448312 
L 236.324844 166.448312 
" style="fill:none;stroke:#000000;stroke-linecap:square;stroke-width:0.7;"/>
    </g>
    <g id="line2d_32"/>
    <g id="text_17">
     <!-- Fx -->
     <defs>
      <path d="M 54.890625 54.6875 
L 35.109375 28.078125 
L 55.90625 0 
L 45.3125 0 
L 29.390625 21.484375 
L 13.484375 0 
L 2.875 0 
L 24.125 28.609375 
L 4.6875 54.6875 
L 15.28125 54.6875 
L 29.78125 35.203125 
L 44.28125 54.6875 
z
" id="DejaVuSans-120"/>
     </defs>
     <g transform="translate(244.324844 169.948312)scale(0.1 -0.1)">
      <use xlink:href="#DejaVuSans-70"/>
      <use x="57.519531" xlink:href="#DejaVuSans-120"/>
     </g>
    </g>
    <g id="line2d_33">
     <path d="M 216.324844 181.126437 
L 236.324844 181.126437 
" style="fill:none;stroke:#000000;stroke-dasharray:2.59,1.12;stroke-dashoffset:0;stroke-width:0.7;"/>
    </g>
    <g id="line2d_34"/>
    <g id="text_18">
     <!-- Fy -->
     <defs>
      <path d="M 32.171875 -5.078125 
Q 28.375 -14.84375 24.75 -17.8125 
Q 21.140625 -20.796875 15.09375 -20.796875 
L 7.90625 -20.796875 
L 7.90625 -13.28125 
L 13.1875 -13.28125 
Q 16.890625 -13.28125 18.9375 -11.515625 
Q 21 -9.765625 23.484375 -3.21875 
L 25.09375 0.875 
L 2.984375 54.6875 
L 12.5 54.6875 
L 29.59375 11.921875 
L 46.6875 54.6875 
L 56.203125 54.6875 
z
" id="DejaVuSans-121"/>
     </defs>
     <g transform="translate(244.324844 184.626437)scale(0.1 -0.1)">
      <use xlink:href="#DejaVuSans-70"/>
      <use x="57.378906" xlink:href="#DejaVuSans-121"/>
     </g>
    </g>
   </g>
  </g>
  <g id="axes_2">
   <g id="matplotlib.axis_3">
    <g id="xtick_6">
     <g id="line2d_35">
      <defs>
       <path d="M 0 0 
L 0 -3.5 
" id="m2bd328038a" style="stroke:#000000;stroke-width:0.8;"/>
      </defs>
      <g>
       <use style="stroke:#000000;stroke-width:0.8;" x="73.832727" xlink:href="#m2bd328038a" y="41.472"/>
      </g>
     </g>
     <g id="text_19">
      <!-- 0 -->
      <g transform="translate(70.651477 32.392313)scale(0.1 -0.1)">
       <use xlink:href="#DejaVuSans-48"/>
      </g>
     </g>
    </g>
    <g id="xtick_7">
     <g id="line2d_36">
      <g>
       <use style="stroke:#000000;stroke-width:0.8;" x="154.996364" xlink:href="#m2bd328038a" y="41.472"/>
      </g>
     </g>
     <g id="text_20">
      <!-- 36 -->
      <g transform="translate(148.633864 32.392313)scale(0.1 -0.1)">
       <use xlink:href="#DejaVuSans-51"/>
       <use x="63.623047" xlink:href="#DejaVuSans-54"/>
      </g>
     </g>
    </g>
    <g id="xtick_8">
     <g id="line2d_37">
      <g>
       <use style="stroke:#000000;stroke-width:0.8;" x="236.16" xlink:href="#m2bd328038a" y="41.472"/>
      </g>
     </g>
     <g id="text_21">
      <!-- 0 -->
      <g transform="translate(232.97875 32.392313)scale(0.1 -0.1)">
       <use xlink:href="#DejaVuSans-48"/>
      </g>
     </g>
    </g>
    <g id="xtick_9">
     <g id="line2d_38">
      <g>
       <use style="stroke:#000000;stroke-width:0.8;" x="317.323636" xlink:href="#m2bd328038a" y="41.472"/>
      </g>
     </g>
     <g id="text_22">
      <!-- -36 -->
      <defs>
       <path d="M 4.890625 31.390625 
L 31.203125 31.390625 
L 31.203125 23.390625 
L 4.890625 23.390625 
z
" id="DejaVuSans-45"/>
      </defs>
      <g transform="translate(309.15723 32.392313)scale(0.1 -0.1)">
       <use xlink:href="#DejaVuSans-45"/>
       <use x="36.083984" xlink:href="#DejaVuSans-51"/>
       <use x="99.707031" xlink:href="#DejaVuSans-54"/>
      </g>
     </g>
    </g>
    <g id="xtick_10">
     <g id="line2d_39">
      <g>
       <use style="stroke:#000000;stroke-width:0.8;" x="398.487273" xlink:href="#m2bd328038a" y="41.472"/>
      </g>
     </g>
     <g id="text_23">
      <!-- 0 -->
      <g transform="translate(395.306023 32.392313)scale(0.1 -0.1)">
       <use xlink:href="#DejaVuSans-48"/>
      </g>
     </g>
    </g>
    <g id="text_24">
     <!-- $\theta ^\circ$  -->
     <defs>
      <path d="M 45.515625 34.671875 
L 14.453125 34.671875 
Q 12.359375 20.0625 14.5 13.875 
Q 17.1875 6.25 24.46875 6.25 
Q 31.78125 6.25 37.359375 13.921875 
Q 42.234375 20.65625 45.515625 34.671875 
z
M 47.015625 42.96875 
Q 48.34375 56.84375 46.625 61.71875 
Q 43.953125 69.4375 36.765625 69.4375 
Q 29.296875 69.4375 23.828125 61.8125 
Q 19.53125 55.671875 16.15625 42.96875 
z
M 38.1875 76.765625 
Q 49.90625 76.765625 54.59375 66.40625 
Q 59.28125 56.109375 55.71875 37.84375 
Q 52.203125 19.625 43.453125 9.28125 
Q 34.765625 -1.125 23.046875 -1.125 
Q 11.28125 -1.125 6.640625 9.28125 
Q 2 19.625 5.515625 37.84375 
Q 9.078125 56.109375 17.71875 66.40625 
Q 26.421875 76.765625 38.1875 76.765625 
z
" id="DejaVuSans-Oblique-952"/>
      <path d="M 31.296875 40.671875 
Q 27.390625 40.671875 24.703125 37.953125 
Q 22.015625 35.25 22.015625 31.34375 
Q 22.015625 27.484375 24.703125 24.828125 
Q 27.390625 22.171875 31.296875 22.171875 
Q 35.203125 22.171875 37.890625 24.828125 
Q 40.578125 27.484375 40.578125 31.34375 
Q 40.578125 35.203125 37.859375 37.9375 
Q 35.15625 40.671875 31.296875 40.671875 
z
M 31.296875 46.96875 
Q 34.421875 46.96875 37.296875 45.765625 
Q 40.1875 44.578125 42.28125 42.328125 
Q 44.53125 40.140625 45.65625 37.34375 
Q 46.78125 34.5625 46.78125 31.34375 
Q 46.78125 24.90625 42.265625 20.4375 
Q 37.75 15.96875 31.203125 15.96875 
Q 24.609375 15.96875 20.21875 20.359375 
Q 15.828125 24.75 15.828125 31.34375 
Q 15.828125 37.890625 20.3125 42.421875 
Q 24.8125 46.96875 31.296875 46.96875 
z
" id="DejaVuSans-8728"/>
     </defs>
     <g transform="translate(227.41 20.793875)scale(0.1 -0.1)">
      <use transform="translate(0 0.234375)" xlink:href="#DejaVuSans-Oblique-952"/>
      <use transform="translate(82.376419 38.515625)scale(0.7)" xlink:href="#DejaVuSans-8728"/>
      <use transform="translate(142.566849 0.234375)" xlink:href="#DejaVuSans-32"/>
     </g>
    </g>
   </g>
   <g id="patch_8">
    <path d="M 57.6 307.584 
L 57.6 41.472 
" style="fill:none;stroke:#000000;stroke-linecap:square;stroke-linejoin:miter;stroke-width:0.8;"/>
   </g>
   <g id="patch_9">
    <path d="M 414.72 307.584 
L 414.72 41.472 
" style="fill:none;stroke:#000000;stroke-linecap:square;stroke-linejoin:miter;stroke-width:0.8;"/>
   </g>
   <g id="patch_10">
    <path d="M 57.6 307.584 
L 414.72 307.584 
" style="fill:none;stroke:#000000;stroke-linecap:square;stroke-linejoin:miter;stroke-width:0.8;"/>
   </g>
   <g id="patch_11">
    <path d="M 57.6 41.472 
L 414.72 41.472 
" style="fill:none;stroke:#000000;stroke-linecap:square;stroke-linejoin:miter;stroke-width:0.8;"/>
   </g>
  </g>
 </g>
 <defs>
  <clipPath id="p0aaf809d1b">
   <rect height="266.112" width="357.12" x="57.6" y="41.472"/>
  </clipPath>
 </defs>
</svg>
