<?xml version="1.0"?>
<!DOCTYPE svg PUBLIC "-//W3C//DTD SVG 1.0//EN"
"http://www.w3.org/TR/2001/REC-SVG-20010904/DTD/svg10.dtd">
<svg xmlns:svg="http://www.w3.org/2000/svg"
     xmlns:xlink="http://www.w3.org/1999/xlink"
     width="425.20" height="283.46"
     version="1.0">
<title></title>
<desc></desc>
<!-- drawing begins here -->
<text x="231.93" y="25.77" style="font-size:10pt;text-anchor:middle;fill:black;stroke:none;font-weight:normal;font-family:sanserif" >Flow domain for backwards facing step</text>
<text x="115.96" y="103.08" style="font-size:10pt;text-anchor:middle;fill:black;stroke:none;font-weight:normal;font-family:sanserif" >Blk0</text>
<text x="251.25" y="103.08" style="font-size:10pt;text-anchor:middle;fill:black;stroke:none;font-weight:normal;font-family:sanserif" >Blk1</text>
<text x="251.25" y="193.27" style="font-size:10pt;text-anchor:middle;fill:black;stroke:none;font-weight:normal;font-family:sanserif" >Blk2</text>
<polygon points="77.31,149.46 79.89,149.46 82.46,149.46 85.04,149.46 87.62,149.46 90.19,149.46 92.77,149.46 95.35,149.46 97.92,149.46 100.50,149.46 103.08,149.46 105.65,149.46 108.23,149.46 110.81,149.46 113.39,149.46 115.96,149.46 118.54,149.46 121.12,149.46 123.69,149.46 126.27,149.46 128.85,149.46 131.42,149.46 134.00,149.46 136.58,149.46 139.16,149.46 141.73,149.46 144.31,149.46 146.89,149.46 149.46,149.46 152.04,149.46 154.62,149.46 154.62,146.20 154.62,142.93 154.62,139.67 154.62,136.41 154.62,133.14 154.62,129.88 154.62,126.61 154.62,123.35 154.62,120.09 154.62,116.82 154.62,113.56 154.62,110.29 154.62,107.03 154.62,103.77 154.62,100.50 154.62,97.24 154.62,93.97 154.62,90.71 154.62,87.44 154.62,84.18 154.62,80.92 154.62,77.65 154.62,74.39 154.62,71.12 154.62,67.86 154.62,64.60 154.62,61.33 154.62,58.07 154.62,54.80 154.62,51.54 152.04,51.54 149.46,51.54 146.89,51.54 144.31,51.54 141.73,51.54 139.16,51.54 136.58,51.54 134.00,51.54 131.42,51.54 128.85,51.54 126.27,51.54 123.69,51.54 121.12,51.54 118.54,51.54 115.96,51.54 113.39,51.54 110.81,51.54 108.23,51.54 105.65,51.54 103.08,51.54 100.50,51.54 97.92,51.54 95.35,51.54 92.77,51.54 90.19,51.54 87.62,51.54 85.04,51.54 82.46,51.54 79.89,51.54 77.31,51.54 77.31,54.80 77.31,58.07 77.31,61.33 77.31,64.60 77.31,67.86 77.31,71.12 77.31,74.39 77.31,77.65 77.31,80.92 77.31,84.18 77.31,87.44 77.31,90.71 77.31,93.97 77.31,97.24 77.31,100.50 77.31,103.77 77.31,107.03 77.31,110.29 77.31,113.56 77.31,116.82 77.31,120.09 77.31,123.35 77.31,126.61 77.31,129.88 77.31,133.14 77.31,136.41 77.31,139.67 77.31,142.93 77.31,146.20 77.31,149.46" style="fill:green;fill-opacity:0.5"/>
<polygon points="77.31,149.46 79.89,149.46 82.46,149.46 85.04,149.46 87.62,149.46 90.19,149.46 92.77,149.46 95.35,149.46 97.92,149.46 100.50,149.46 103.08,149.46 105.65,149.46 108.23,149.46 110.81,149.46 113.39,149.46 115.96,149.46 118.54,149.46 121.12,149.46 123.69,149.46 126.27,149.46 128.85,149.46 131.42,149.46 134.00,149.46 136.58,149.46 139.16,149.46 141.73,149.46 144.31,149.46 146.89,149.46 149.46,149.46 152.04,149.46 154.62,149.46 154.62,146.20 154.62,142.93 154.62,139.67 154.62,136.41 154.62,133.14 154.62,129.88 154.62,126.61 154.62,123.35 154.62,120.09 154.62,116.82 154.62,113.56 154.62,110.29 154.62,107.03 154.62,103.77 154.62,100.50 154.62,97.24 154.62,93.97 154.62,90.71 154.62,87.44 154.62,84.18 154.62,80.92 154.62,77.65 154.62,74.39 154.62,71.12 154.62,67.86 154.62,64.60 154.62,61.33 154.62,58.07 154.62,54.80 154.62,51.54 152.04,51.54 149.46,51.54 146.89,51.54 144.31,51.54 141.73,51.54 139.16,51.54 136.58,51.54 134.00,51.54 131.42,51.54 128.85,51.54 126.27,51.54 123.69,51.54 121.12,51.54 118.54,51.54 115.96,51.54 113.39,51.54 110.81,51.54 108.23,51.54 105.65,51.54 103.08,51.54 100.50,51.54 97.92,51.54 95.35,51.54 92.77,51.54 90.19,51.54 87.62,51.54 85.04,51.54 82.46,51.54 79.89,51.54 77.31,51.54 77.31,54.80 77.31,58.07 77.31,61.33 77.31,64.60 77.31,67.86 77.31,71.12 77.31,74.39 77.31,77.65 77.31,80.92 77.31,84.18 77.31,87.44 77.31,90.71 77.31,93.97 77.31,97.24 77.31,100.50 77.31,103.77 77.31,107.03 77.31,110.29 77.31,113.56 77.31,116.82 77.31,120.09 77.31,123.35 77.31,126.61 77.31,129.88 77.31,133.14 77.31,136.41 77.31,139.67 77.31,142.93 77.31,146.20 77.31,149.46" style="fill:none;stroke:black;stroke-width:0.28;stroke-linecap:round;stroke-opacity:0.5"/>
<polygon points="154.62,149.46 161.06,149.46 167.50,149.46 173.94,149.46 180.39,149.46 186.83,149.46 193.27,149.46 199.71,149.46 206.16,149.46 212.60,149.46 219.04,149.46 225.48,149.46 231.93,149.46 238.37,149.46 244.81,149.46 251.25,149.46 257.70,149.46 264.14,149.46 270.58,149.46 277.02,149.46 283.46,149.46 289.91,149.46 296.35,149.46 302.79,149.46 309.23,149.46 315.68,149.46 322.12,149.46 328.56,149.46 335.00,149.46 341.45,149.46 347.89,149.46 347.89,146.20 347.89,142.93 347.89,139.67 347.89,136.41 347.89,133.14 347.89,129.88 347.89,126.61 347.89,123.35 347.89,120.09 347.89,116.82 347.89,113.56 347.89,110.29 347.89,107.03 347.89,103.77 347.89,100.50 347.89,97.24 347.89,93.97 347.89,90.71 347.89,87.44 347.89,84.18 347.89,80.92 347.89,77.65 347.89,74.39 347.89,71.12 347.89,67.86 347.89,64.60 347.89,61.33 347.89,58.07 347.89,54.80 347.89,51.54 341.45,51.54 335.00,51.54 328.56,51.54 322.12,51.54 315.68,51.54 309.23,51.54 302.79,51.54 296.35,51.54 289.91,51.54 283.46,51.54 277.02,51.54 270.58,51.54 264.14,51.54 257.70,51.54 251.25,51.54 244.81,51.54 238.37,51.54 231.93,51.54 225.48,51.54 219.04,51.54 212.60,51.54 206.16,51.54 199.71,51.54 193.27,51.54 186.83,51.54 180.39,51.54 173.94,51.54 167.50,51.54 161.06,51.54 154.62,51.54 154.62,54.80 154.62,58.07 154.62,61.33 154.62,64.60 154.62,67.86 154.62,71.12 154.62,74.39 154.62,77.65 154.62,80.92 154.62,84.18 154.62,87.44 154.62,90.71 154.62,93.97 154.62,97.24 154.62,100.50 154.62,103.77 154.62,107.03 154.62,110.29 154.62,113.56 154.62,116.82 154.62,120.09 154.62,123.35 154.62,126.61 154.62,129.88 154.62,133.14 154.62,136.41 154.62,139.67 154.62,142.93 154.62,146.20 154.62,149.46" style="fill:green;fill-opacity:0.5"/>
<polygon points="154.62,149.46 161.06,149.46 167.50,149.46 173.94,149.46 180.39,149.46 186.83,149.46 193.27,149.46 199.71,149.46 206.16,149.46 212.60,149.46 219.04,149.46 225.48,149.46 231.93,149.46 238.37,149.46 244.81,149.46 251.25,149.46 257.70,149.46 264.14,149.46 270.58,149.46 277.02,149.46 283.46,149.46 289.91,149.46 296.35,149.46 302.79,149.46 309.23,149.46 315.68,149.46 322.12,149.46 328.56,149.46 335.00,149.46 341.45,149.46 347.89,149.46 347.89,146.20 347.89,142.93 347.89,139.67 347.89,136.41 347.89,133.14 347.89,129.88 347.89,126.61 347.89,123.35 347.89,120.09 347.89,116.82 347.89,113.56 347.89,110.29 347.89,107.03 347.89,103.77 347.89,100.50 347.89,97.24 347.89,93.97 347.89,90.71 347.89,87.44 347.89,84.18 347.89,80.92 347.89,77.65 347.89,74.39 347.89,71.12 347.89,67.86 347.89,64.60 347.89,61.33 347.89,58.07 347.89,54.80 347.89,51.54 341.45,51.54 335.00,51.54 328.56,51.54 322.12,51.54 315.68,51.54 309.23,51.54 302.79,51.54 296.35,51.54 289.91,51.54 283.46,51.54 277.02,51.54 270.58,51.54 264.14,51.54 257.70,51.54 251.25,51.54 244.81,51.54 238.37,51.54 231.93,51.54 225.48,51.54 219.04,51.54 212.60,51.54 206.16,51.54 199.71,51.54 193.27,51.54 186.83,51.54 180.39,51.54 173.94,51.54 167.50,51.54 161.06,51.54 154.62,51.54 154.62,54.80 154.62,58.07 154.62,61.33 154.62,64.60 154.62,67.86 154.62,71.12 154.62,74.39 154.62,77.65 154.62,80.92 154.62,84.18 154.62,87.44 154.62,90.71 154.62,93.97 154.62,97.24 154.62,100.50 154.62,103.77 154.62,107.03 154.62,110.29 154.62,113.56 154.62,116.82 154.62,120.09 154.62,123.35 154.62,126.61 154.62,129.88 154.62,133.14 154.62,136.41 154.62,139.67 154.62,142.93 154.62,146.20 154.62,149.46" style="fill:none;stroke:black;stroke-width:0.28;stroke-linecap:round;stroke-opacity:0.5"/>
<polygon points="154.62,231.93 161.06,231.93 167.50,231.93 173.94,231.93 180.39,231.93 186.83,231.93 193.27,231.93 199.71,231.93 206.16,231.93 212.60,231.93 219.04,231.93 225.48,231.93 231.93,231.93 238.37,231.93 244.81,231.93 251.25,231.93 257.70,231.93 264.14,231.93 270.58,231.93 277.02,231.93 283.46,231.93 289.91,231.93 296.35,231.93 302.79,231.93 309.23,231.93 315.68,231.93 322.12,231.93 328.56,231.93 335.00,231.93 341.45,231.93 347.89,231.93 347.89,229.18 347.89,226.43 347.89,223.68 347.89,220.93 347.89,218.18 347.89,215.43 347.89,212.68 347.89,209.94 347.89,207.19 347.89,204.44 347.89,201.69 347.89,198.94 347.89,196.19 347.89,193.44 347.89,190.69 347.89,187.95 347.89,185.20 347.89,182.45 347.89,179.70 347.89,176.95 347.89,174.20 347.89,171.45 347.89,168.70 347.89,165.96 347.89,163.21 347.89,160.46 347.89,157.71 347.89,154.96 347.89,152.21 347.89,149.46 341.45,149.46 335.00,149.46 328.56,149.46 322.12,149.46 315.68,149.46 309.23,149.46 302.79,149.46 296.35,149.46 289.91,149.46 283.46,149.46 277.02,149.46 270.58,149.46 264.14,149.46 257.70,149.46 251.25,149.46 244.81,149.46 238.37,149.46 231.93,149.46 225.48,149.46 219.04,149.46 212.60,149.46 206.16,149.46 199.71,149.46 193.27,149.46 186.83,149.46 180.39,149.46 173.94,149.46 167.50,149.46 161.06,149.46 154.62,149.46 154.62,152.21 154.62,154.96 154.62,157.71 154.62,160.46 154.62,163.21 154.62,165.96 154.62,168.70 154.62,171.45 154.62,174.20 154.62,176.95 154.62,179.70 154.62,182.45 154.62,185.20 154.62,187.95 154.62,190.69 154.62,193.44 154.62,196.19 154.62,198.94 154.62,201.69 154.62,204.44 154.62,207.19 154.62,209.94 154.62,212.68 154.62,215.43 154.62,218.18 154.62,220.93 154.62,223.68 154.62,226.43 154.62,229.18 154.62,231.93" style="fill:green;fill-opacity:0.5"/>
<polygon points="154.62,231.93 161.06,231.93 167.50,231.93 173.94,231.93 180.39,231.93 186.83,231.93 193.27,231.93 199.71,231.93 206.16,231.93 212.60,231.93 219.04,231.93 225.48,231.93 231.93,231.93 238.37,231.93 244.81,231.93 251.25,231.93 257.70,231.93 264.14,231.93 270.58,231.93 277.02,231.93 283.46,231.93 289.91,231.93 296.35,231.93 302.79,231.93 309.23,231.93 315.68,231.93 322.12,231.93 328.56,231.93 335.00,231.93 341.45,231.93 347.89,231.93 347.89,229.18 347.89,226.43 347.89,223.68 347.89,220.93 347.89,218.18 347.89,215.43 347.89,212.68 347.89,209.94 347.89,207.19 347.89,204.44 347.89,201.69 347.89,198.94 347.89,196.19 347.89,193.44 347.89,190.69 347.89,187.95 347.89,185.20 347.89,182.45 347.89,179.70 347.89,176.95 347.89,174.20 347.89,171.45 347.89,168.70 347.89,165.96 347.89,163.21 347.89,160.46 347.89,157.71 347.89,154.96 347.89,152.21 347.89,149.46 341.45,149.46 335.00,149.46 328.56,149.46 322.12,149.46 315.68,149.46 309.23,149.46 302.79,149.46 296.35,149.46 289.91,149.46 283.46,149.46 277.02,149.46 270.58,149.46 264.14,149.46 257.70,149.46 251.25,149.46 244.81,149.46 238.37,149.46 231.93,149.46 225.48,149.46 219.04,149.46 212.60,149.46 206.16,149.46 199.71,149.46 193.27,149.46 186.83,149.46 180.39,149.46 173.94,149.46 167.50,149.46 161.06,149.46 154.62,149.46 154.62,152.21 154.62,154.96 154.62,157.71 154.62,160.46 154.62,163.21 154.62,165.96 154.62,168.70 154.62,171.45 154.62,174.20 154.62,176.95 154.62,179.70 154.62,182.45 154.62,185.20 154.62,187.95 154.62,190.69 154.62,193.44 154.62,196.19 154.62,198.94 154.62,201.69 154.62,204.44 154.62,207.19 154.62,209.94 154.62,212.68 154.62,215.43 154.62,218.18 154.62,220.93 154.62,223.68 154.62,226.43 154.62,229.18 154.62,231.93" style="fill:none;stroke:black;stroke-width:0.28;stroke-linecap:round;stroke-opacity:0.5"/>
<path d="M 77.31,149.46 L 79.89,149.46 L 82.46,149.46 L 85.04,149.46 L 87.62,149.46 L 90.19,149.46 L 92.77,149.46 L 95.35,149.46 L 97.92,149.46 L 100.50,149.46 L 103.08,149.46 L 105.65,149.46 L 108.23,149.46 L 110.81,149.46 L 113.39,149.46 L 115.96,149.46 L 118.54,149.46 L 121.12,149.46 L 123.69,149.46 L 126.27,149.46 L 128.85,149.46 L 131.42,149.46 L 134.00,149.46 L 136.58,149.46 L 139.16,149.46 L 141.73,149.46 L 144.31,149.46 L 146.89,149.46 L 149.46,149.46 L 152.04,149.46 L 154.62,149.46" style="fill:none;stroke:black;stroke-width:1.13;stroke-linecap:round;stroke-opacity:1"/>
<path d="M 154.62,231.93 L 154.62,229.18 L 154.62,226.43 L 154.62,223.68 L 154.62,220.93 L 154.62,218.18 L 154.62,215.43 L 154.62,212.68 L 154.62,209.94 L 154.62,207.19 L 154.62,204.44 L 154.62,201.69 L 154.62,198.94 L 154.62,196.19 L 154.62,193.44 L 154.62,190.69 L 154.62,187.95 L 154.62,185.20 L 154.62,182.45 L 154.62,179.70 L 154.62,176.95 L 154.62,174.20 L 154.62,171.45 L 154.62,168.70 L 154.62,165.96 L 154.62,163.21 L 154.62,160.46 L 154.62,157.71 L 154.62,154.96 L 154.62,152.21 L 154.62,149.46" style="fill:none;stroke:black;stroke-width:1.13;stroke-linecap:round;stroke-opacity:1"/>
<circle cx="77.31" cy="149.46" r="2.83" style="fill:black" />
<text x="77.31" y="145.21" style="font-size:10pt;text-anchor:middle;fill:black;stroke:none;font-weight:normal;font-family:sanserif" >a</text>
<circle cx="154.62" cy="149.46" r="2.83" style="fill:black" />
<text x="154.62" y="145.21" style="font-size:10pt;text-anchor:middle;fill:black;stroke:none;font-weight:normal;font-family:sanserif" >b</text>
<circle cx="154.62" cy="231.93" r="2.83" style="fill:black" />
<text x="154.62" y="227.67" style="font-size:10pt;text-anchor:middle;fill:black;stroke:none;font-weight:normal;font-family:sanserif" >c</text>
<circle cx="347.89" cy="231.93" r="2.83" style="fill:black" />
<text x="347.89" y="227.67" style="font-size:10pt;text-anchor:middle;fill:black;stroke:none;font-weight:normal;font-family:sanserif" >d</text>
<circle cx="347.89" cy="149.46" r="2.83" style="fill:black" />
<text x="347.89" y="145.21" style="font-size:10pt;text-anchor:middle;fill:black;stroke:none;font-weight:normal;font-family:sanserif" >e</text>
<circle cx="347.89" cy="51.54" r="2.83" style="fill:black" />
<text x="347.89" y="47.29" style="font-size:10pt;text-anchor:middle;fill:black;stroke:none;font-weight:normal;font-family:sanserif" >f</text>
<circle cx="154.62" cy="51.54" r="2.83" style="fill:black" />
<text x="154.62" y="47.29" style="font-size:10pt;text-anchor:middle;fill:black;stroke:none;font-weight:normal;font-family:sanserif" >g</text>
<circle cx="77.31" cy="51.54" r="2.83" style="fill:black" />
<text x="77.31" y="47.29" style="font-size:10pt;text-anchor:middle;fill:black;stroke:none;font-weight:normal;font-family:sanserif" >h</text>
<g opacity="1" >
<line x1="77.31" y1="257.70" x2="347.89" y2="257.70" style="fill:none;stroke:black;stroke-width:0.85;stroke-linecap:round;stroke-opacity:1" />
<line x1="77.31" y1="257.70" x2="77.31" y2="258.21" style="fill:none;stroke:black;stroke-width:0.85;stroke-linecap:round;stroke-opacity:1" />
<line x1="115.96" y1="257.70" x2="115.96" y2="258.21" style="fill:none;stroke:black;stroke-width:0.85;stroke-linecap:round;stroke-opacity:1" />
<line x1="154.62" y1="257.70" x2="154.62" y2="258.21" style="fill:none;stroke:black;stroke-width:0.85;stroke-linecap:round;stroke-opacity:1" />
<line x1="193.27" y1="257.70" x2="193.27" y2="258.21" style="fill:none;stroke:black;stroke-width:0.85;stroke-linecap:round;stroke-opacity:1" />
<line x1="231.93" y1="257.70" x2="231.93" y2="258.21" style="fill:none;stroke:black;stroke-width:0.85;stroke-linecap:round;stroke-opacity:1" />
<line x1="270.58" y1="257.70" x2="270.58" y2="258.21" style="fill:none;stroke:black;stroke-width:0.85;stroke-linecap:round;stroke-opacity:1" />
<line x1="309.23" y1="257.70" x2="309.23" y2="258.21" style="fill:none;stroke:black;stroke-width:0.85;stroke-linecap:round;stroke-opacity:1" />
<line x1="347.89" y1="257.70" x2="347.89" y2="258.21" style="fill:none;stroke:black;stroke-width:0.85;stroke-linecap:round;stroke-opacity:1" />
</g>
<text x="77.31" y="259.24" style="font-size:10pt;text-anchor:middle;fill:black;stroke:none;font-weight:normal;font-family:sanserif" >0.0</text>
<text x="115.96" y="259.24" style="font-size:10pt;text-anchor:middle;fill:black;stroke:none;font-weight:normal;font-family:sanserif" >1.0</text>
<text x="154.62" y="259.24" style="font-size:10pt;text-anchor:middle;fill:black;stroke:none;font-weight:normal;font-family:sanserif" >2.0</text>
<text x="193.27" y="259.24" style="font-size:10pt;text-anchor:middle;fill:black;stroke:none;font-weight:normal;font-family:sanserif" >3.0</text>
<text x="231.93" y="259.24" style="font-size:10pt;text-anchor:middle;fill:black;stroke:none;font-weight:normal;font-family:sanserif" >4.0</text>
<text x="270.58" y="259.24" style="font-size:10pt;text-anchor:middle;fill:black;stroke:none;font-weight:normal;font-family:sanserif" >5.0</text>
<text x="309.23" y="259.24" style="font-size:10pt;text-anchor:middle;fill:black;stroke:none;font-weight:normal;font-family:sanserif" >6.0</text>
<text x="347.89" y="259.24" style="font-size:10pt;text-anchor:middle;fill:black;stroke:none;font-weight:normal;font-family:sanserif" >7.0</text>
<text x="57.98" y="257.70" style="font-size:12pt;text-anchor:middle;fill:black;stroke:none;font-weight:normal;font-family:sanserif" >x</text>
<g opacity="1" >
<line x1="38.65" y1="231.93" x2="38.65" y2="51.54" style="fill:none;stroke:black;stroke-width:0.85;stroke-linecap:round;stroke-opacity:1" />
<line x1="38.65" y1="231.93" x2="37.88" y2="231.93" style="fill:none;stroke:black;stroke-width:0.85;stroke-linecap:round;stroke-opacity:1" />
<line x1="38.65" y1="206.16" x2="37.88" y2="206.16" style="fill:none;stroke:black;stroke-width:0.85;stroke-linecap:round;stroke-opacity:1" />
<line x1="38.65" y1="180.39" x2="37.88" y2="180.39" style="fill:none;stroke:black;stroke-width:0.85;stroke-linecap:round;stroke-opacity:1" />
<line x1="38.65" y1="154.62" x2="37.88" y2="154.62" style="fill:none;stroke:black;stroke-width:0.85;stroke-linecap:round;stroke-opacity:1" />
<line x1="38.65" y1="128.85" x2="37.88" y2="128.85" style="fill:none;stroke:black;stroke-width:0.85;stroke-linecap:round;stroke-opacity:1" />
<line x1="38.65" y1="103.08" x2="37.88" y2="103.08" style="fill:none;stroke:black;stroke-width:0.85;stroke-linecap:round;stroke-opacity:1" />
<line x1="38.65" y1="77.31" x2="37.88" y2="77.31" style="fill:none;stroke:black;stroke-width:0.85;stroke-linecap:round;stroke-opacity:1" />
<line x1="38.65" y1="51.54" x2="37.88" y2="51.54" style="fill:none;stroke:black;stroke-width:0.85;stroke-linecap:round;stroke-opacity:1" />
</g>
<text x="37.88" y="231.93" style="font-size:10pt;text-anchor:end;fill:black;stroke:none;font-weight:normal;font-family:sanserif" >0.0</text>
<text x="37.88" y="206.16" style="font-size:10pt;text-anchor:end;fill:black;stroke:none;font-weight:normal;font-family:sanserif" >1.0</text>
<text x="37.88" y="180.39" style="font-size:10pt;text-anchor:end;fill:black;stroke:none;font-weight:normal;font-family:sanserif" >2.0</text>
<text x="37.88" y="154.62" style="font-size:10pt;text-anchor:end;fill:black;stroke:none;font-weight:normal;font-family:sanserif" >3.0</text>
<text x="37.88" y="128.85" style="font-size:10pt;text-anchor:end;fill:black;stroke:none;font-weight:normal;font-family:sanserif" >4.0</text>
<text x="37.88" y="103.08" style="font-size:10pt;text-anchor:end;fill:black;stroke:none;font-weight:normal;font-family:sanserif" >5.0</text>
<text x="37.88" y="77.31" style="font-size:10pt;text-anchor:end;fill:black;stroke:none;font-weight:normal;font-family:sanserif" >6.0</text>
<text x="37.88" y="51.54" style="font-size:10pt;text-anchor:end;fill:black;stroke:none;font-weight:normal;font-family:sanserif" >7.0</text>
<text x="38.65" y="244.81" style="font-size:12pt;text-anchor:middle;fill:black;stroke:none;font-weight:normal;font-family:sanserif" >y</text>
<!-- end of drawing -->
</svg>
